# vtk DataFile Version 3.0
Extruded Polyhedra
ASCII
DATASET UNSTRUCTURED_GRID
POINTS 104 float
0.5555555555555556 0.6666666666666666 0.0
0.7222222222222223 0.5 0.0
0.6944444444444444 0.5833333333333333 0.0
0.638888888888889 0.5833333333333333 0.0
0.4722222222222223 0.75 0.0
0.7777777777777778 0.5 0.0
0.6111111111111112 0.6666666666666666 0.0
0.638888888888889 0.41666666666666663 0.0
0.5555555555555556 0.5 0.0
0.5277777777777778 0.75 0.0
0.6111111111111112 0.5 0.0
0.3888888888888889 0.6666666666666666 0.0
0.4722222222222223 0.5833333333333333 0.0
0.6944444444444444 0.41666666666666663 0.0
0.5277777777777778 0.5833333333333333 0.0
0.5555555555555556 0.3333333333333333 0.0
0.4722222222222223 0.41666666666666663 0.0
0.4444444444444445 0.6666666666666666 0.0
0.5277777777777778 0.41666666666666663 0.0
0.3055555555555556 0.5833333333333333 0.0
0.3888888888888889 0.5 0.0
0.6111111111111112 0.3333333333333333 0.0
0.4444444444444445 0.5 0.0
0.4722222222222223 0.25 0.0
0.3888888888888889 0.3333333333333333 0.0
0.3611111111111111 0.5833333333333333 0.0
0.4444444444444445 0.3333333333333333 0.0
0.22222222222222215 0.5 0.0
0.3055555555555556 0.41666666666666663 0.0
0.5277777777777778 0.25 0.0
0.3611111111111111 0.41666666666666663 0.0
0.2777777777777778 0.5 0.0
0.9444444444444446 0.0 0.0
0.9444444444444446 1.0 0.0
0.8333333333333334 0.0 0.0
0.7222222222222223 0.0 0.0
0.38888888888888923 0.0 0.0
0.0555555555555568 0.0 0.0
0.6111111111111112 0.0 0.0
0.16666666666666596 0.0 0.0
0.8333333333333334 1.0 0.0
0.7222222222222223 1.0 0.0
0.6111111111111112 1.0 0.0
0.3888888888888889 1.0 0.0
0.2777777777777778 1.0 0.0
0.16666666666666666 1.0 0.0
0.2777777777777778 0.0 0.0
0.05555555555555561 1.0 0.0
1.0 0.0 0.0
1.0 1.0 0.0
0.0 0.0 0.0
0.0 1.0 0.0
0.5555555555555556 0.6666666666666666 1.0
0.7222222222222223 0.5 1.0
0.6944444444444444 0.5833333333333333 1.0
0.638888888888889 0.5833333333333333 1.0
0.4722222222222223 0.75 1.0
0.7777777777777778 0.5 1.0
0.6111111111111112 0.6666666666666666 1.0
0.638888888888889 0.41666666666666663 1.0
0.5555555555555556 0.5 1.0
0.5277777777777778 0.75 1.0
0.6111111111111112 0.5 1.0
0.3888888888888889 0.6666666666666666 1.0
0.4722222222222223 0.5833333333333333 1.0
0.6944444444444444 0.41666666666666663 1.0
0.5277777777777778 0.5833333333333333 1.0
0.5555555555555556 0.3333333333333333 1.0
0.4722222222222223 0.41666666666666663 1.0
0.4444444444444445 0.6666666666666666 1.0
0.5277777777777778 0.41666666666666663 1.0
0.3055555555555556 0.5833333333333333 1.0
0.3888888888888889 0.5 1.0
0.6111111111111112 0.3333333333333333 1.0
0.4444444444444445 0.5 1.0
0.4722222222222223 0.25 1.0
0.3888888888888889 0.3333333333333333 1.0
0.3611111111111111 0.5833333333333333 1.0
0.4444444444444445 0.3333333333333333 1.0
0.22222222222222215 0.5 1.0
0.3055555555555556 0.41666666666666663 1.0
0.5277777777777778 0.25 1.0
0.3611111111111111 0.41666666666666663 1.0
0.2777777777777778 0.5 1.0
0.9444444444444446 0.0 1.0
0.9444444444444446 1.0 1.0
0.8333333333333334 0.0 1.0
0.7222222222222223 0.0 1.0
0.38888888888888923 0.0 1.0
0.0555555555555568 0.0 1.0
0.6111111111111112 0.0 1.0
0.16666666666666596 0.0 1.0
0.8333333333333334 1.0 1.0
0.7222222222222223 1.0 1.0
0.6111111111111112 1.0 1.0
0.3888888888888889 1.0 1.0
0.2777777777777778 1.0 1.0
0.16666666666666666 1.0 1.0
0.2777777777777778 0.0 1.0
0.05555555555555561 1.0 1.0
1.0 0.0 1.0
1.0 1.0 1.0
0.0 0.0 1.0
0.0 1.0 1.0

CELLS 25 1024
31 6 4 43 4 9 42 4 95 56 61 94 4 43 4 56 95 4 4 9 61 56 4 9 42 94 61 4 42 43 95 94
31 6 4 38 29 23 36 4 90 81 75 88 4 38 29 81 90 4 29 23 75 81 4 23 36 88 75 4 36 38 90 88
38 7 5 33 5 32 48 49 5 85 57 84 100 101 4 33 5 57 85 4 5 32 84 57 4 32 48 100 84 4 48 49 101 100 4 49 33 85 101
38 7 5 40 2 1 5 33 5 92 54 53 57 85 4 40 2 54 92 4 2 1 53 54 4 1 5 57 53 4 5 33 85 57 4 33 40 92 85
38 7 5 41 6 3 2 40 5 93 58 55 54 92 4 41 6 58 93 4 6 3 55 58 4 3 2 54 55 4 2 40 92 54 4 40 41 93 92
38 7 5 42 9 0 6 41 5 94 61 52 58 93 4 42 9 61 94 4 9 0 52 61 4 0 6 58 52 4 6 41 93 58 4 41 42 94 93
38 7 5 44 11 17 4 43 5 96 63 69 56 95 4 44 11 63 96 4 11 17 69 63 4 17 4 56 69 4 4 43 95 56 4 43 44 96 95
38 7 5 45 19 25 11 44 5 97 71 77 63 96 4 45 19 71 97 4 19 25 77 71 4 25 11 63 77 4 11 44 96 63 4 44 45 97 96
38 7 5 47 27 31 19 45 5 99 79 83 71 97 4 47 27 79 99 4 27 31 83 79 4 31 19 71 83 4 19 45 97 71 4 45 47 99 97
38 7 5 36 23 26 24 46 5 88 75 78 76 98 4 36 23 75 88 4 23 26 78 75 4 26 24 76 78 4 24 46 98 76 4 46 36 88 98
38 7 5 46 24 30 28 39 5 98 76 82 80 91 4 46 24 76 98 4 24 30 82 76 4 30 28 80 82 4 28 39 91 80 4 39 46 98 91
38 7 5 39 28 31 27 37 5 91 80 83 79 89 4 39 28 80 91 4 28 31 83 80 4 31 27 79 83 4 27 37 89 79 4 37 39 91 89
38 7 5 32 5 1 13 34 5 84 57 53 65 86 4 32 5 57 84 4 5 1 53 57 4 1 13 65 53 4 13 34 86 65 4 34 32 84 86
38 7 5 34 13 7 21 35 5 86 65 59 73 87 4 34 13 65 86 4 13 7 59 65 4 7 21 73 59 4 21 35 87 73 4 35 34 86 87
38 7 5 35 21 15 29 38 5 87 73 67 81 90 4 35 21 73 87 4 21 15 67 73 4 15 29 81 67 4 29 38 90 81 4 38 35 87 90
38 7 5 51 50 37 27 47 5 103 102 89 79 99 4 51 50 102 103 4 50 37 89 102 4 37 27 79 89 4 27 47 99 79 4 47 51 103 99
45 8 6 10 7 13 1 2 3 6 62 59 65 53 54 55 4 10 7 59 62 4 7 13 65 59 4 13 1 53 65 4 1 2 54 53 4 2 3 55 54 4 3 10 62 55
45 8 6 14 8 10 3 6 0 6 66 60 62 55 58 52 4 14 8 60 66 4 8 10 62 60 4 10 3 55 62 4 3 6 58 55 4 6 0 52 58 4 0 14 66 52
45 8 6 17 12 14 0 9 4 6 69 64 66 52 61 56 4 17 12 64 69 4 12 14 66 64 4 14 0 52 66 4 0 9 61 52 4 9 4 56 61 4 4 17 69 56
45 8 6 18 15 21 7 10 8 6 70 67 73 59 62 60 4 18 15 67 70 4 15 21 73 67 4 21 7 59 73 4 7 10 62 59 4 10 8 60 62 4 8 18 70 60
45 8 6 22 16 18 8 14 12 6 74 68 70 60 66 64 4 22 16 68 74 4 16 18 70 68 4 18 8 60 70 4 8 14 66 60 4 14 12 64 66 4 12 22 74 64
45 8 6 25 20 22 12 17 11 6 77 72 74 64 69 63 4 25 20 72 77 4 20 22 74 72 4 22 12 64 74 4 12 17 69 64 4 17 11 63 69 4 11 25 77 63
45 8 6 26 23 29 15 18 16 6 78 75 81 67 70 68 4 26 23 75 78 4 23 29 81 75 4 29 15 67 81 4 15 18 70 67 4 18 16 68 70 4 16 26 78 68
45 8 6 30 24 26 16 22 20 6 82 76 78 68 74 72 4 30 24 76 82 4 24 26 78 76 4 26 16 68 78 4 16 22 74 68 4 22 20 72 74 4 20 30 82 72
45 8 6 31 28 30 20 25 19 6 83 80 82 72 77 71 4 31 28 80 83 4 28 30 82 80 4 30 20 72 82 4 20 25 77 72 4 25 19 71 77 4 19 31 83 71

CELL_TYPES 25
42
42
42
42
42
42
42
42
42
42
42
42
42
42
42
42
42
42
42
42
42
42
42
42
42

CELL_DATA 25
SCALARS CellEntityIds int 1
LOOKUP_TABLE default
4
4
5
5
5
5
5
5
5
5
5
5
5
5
5
5
6
6
6
6
6
6
6
6
6
