<?xml version="1.0"?>
<VTKFile type="UnstructuredGrid" version="0.1" byte_order="LittleEndian" header_type="UInt32" compressor="vtkZLibDataCompressor">
  <UnstructuredGrid>
    <FieldData>
      <DataArray type="Float64" Name="TIME" NumberOfTuples="1" format="ascii" RangeMin="0.1450000000000001" RangeMax="0.1450000000000001">
        0.1450000000000001
      </DataArray>
    </FieldData>
    <Piece NumberOfPoints="24" NumberOfCells="11">
      <PointData>
      </PointData>
      <CellData>
        <DataArray type="Float64" Name="fracturePorosity_referencePorosity" format="ascii" RangeMin="1" RangeMax="1">
          1 1 1 1 1 1
          1 1 1 1 1
        </DataArray>
        <DataArray type="Float64" Name="fracturePorosity_initialPorosity" format="ascii" RangeMin="1" RangeMax="1">
          1 1 1 1 1 1
          1 1 1 1 1
        </DataArray>
        <DataArray type="Float64" Name="fracturePorosity_porosity" format="ascii" RangeMin="1" RangeMax="1">
          1 1 1 1 1 1
          1 1 1 1 1
        </DataArray>
        <DataArray type="Float64" Name="water_dEnthalpy" format="ascii" RangeMin="0" RangeMax="0">
          0 0 0 0 0 0
          0 0 0 0 0
        </DataArray>
        <DataArray type="Float64" Name="water_enthalpy" format="ascii" RangeMin="0" RangeMax="0">
          0 0 0 0 0 0
          0 0 0 0 0
        </DataArray>
        <DataArray type="Float64" Name="water_dInternalEnergy" format="ascii" RangeMin="0" RangeMax="0">
          0 0 0 0 0 0
          0 0 0 0 0
        </DataArray>
        <DataArray type="Float64" Name="water_internalEnergy" format="ascii" RangeMin="0" RangeMax="0">
          0 0 0 0 0 0
          0 0 0 0 0
        </DataArray>
        <DataArray type="Float64" Name="water_viscosity" format="ascii" RangeMin="0.001" RangeMax="0.001">
          0.001 0.001 0.001 0.001 0.001 0.001
          0.001 0.001 0.001 0.001 0.001
        </DataArray>
        <DataArray type="Float64" Name="fracturePerm_permeability" NumberOfComponents="3" format="ascii" RangeMin="0.000016771625068438692" RangeMax="0.00002321802764179437">
          0.000009683102248010555 0.000009683102248010555 0.000009683102248010555 0.00001002812746525053 0.00001002812746525053 0.00001002812746525053
          0.000010379187515288814 0.000010379187515288814 0.000010379187515288814 0.000010736282504390258 0.000010736282504390258 0.000010736282504390258
          0.000011099412529315919 0.000011099412529315919 0.000011099412529315919 0.000011468577691699528 0.000011468577691699528 0.000011468577691699528
          0.00001184377809861402 0.00001184377809861402 0.00001184377809861402 0.0000122250138623994 0.0000122250138623994 0.0000122250138623994
          0.000012612285100494149 0.000012612285100494149 0.000012612285100494149 0.000013005591935880969 0.000013005591935880969 0.000013005591935880969
          0.000013404934509042152 0.000013404934509042152 0.000013404934509042152
          <InformationKey name="L2_NORM_RANGE" location="vtkDataArray" length="2">
            <Value index="0">
              1.6771625068e-05
            </Value>
            <Value index="1">
              2.3218027642e-05
            </Value>
          </InformationKey>
        </DataArray>
        <DataArray type="Float64" Name="water_dDensity" format="ascii" RangeMin="5e-9" RangeMax="5e-9">
          5e-9 5e-9 5e-9 5e-9 5e-9 5e-9
          5e-9 5e-9 5e-9 5e-9 5e-9
        </DataArray>
        <DataArray type="Float64" Name="water_dViscosity" format="ascii" RangeMin="0" RangeMax="0">
          0 0 0 0 0 0
          0 0 0 0 0
        </DataArray>
        <DataArray type="Float64" Name="water_density" format="ascii" RangeMin="1000.0500000000001" RangeMax="1000.1453103">
          1000.0500000000001 1000.061020084775 1000.0716640744724 1000.0819509093035 1000.0918982778027 1000.1015227189796
          1000.1108397142542 1000.1198637706854 1000.1286084964603 1000.1370866694814 1000.1453103
        </DataArray>
        <DataArray type="Int64" Name="SinglePhaseFlow_singlePhaseVariables_dofIndex" format="ascii" RangeMin="0" RangeMax="10">
          0 1 2 3 4 5
          6 7 8 9 10
        </DataArray>
        <DataArray type="Float64" Name="mass" format="ascii" RangeMin="0.10000500000000001" RangeMax="0.10001453103">
          0.10000500000000001 0.10000610200847751 0.10000716640744725 0.10000819509093035 0.10000918982778027 0.10001015227189797
          0.10001108397142543 0.10001198637706854 0.10001286084964603 0.10001370866694814 0.10001453103
        </DataArray>
        <DataArray type="Int64" Name="localToGlobalMap" format="ascii" RangeMin="11" RangeMax="21">
          11 12 13 14 15 16
          17 18 19 20 21
        </DataArray>
        <DataArray type="Int32" Name="ghostRank" format="ascii" RangeMin="-2" RangeMax="-2">
          -2 -2 -2 -2 -2 -2
          -2 -2 -2 -2 -2
        </DataArray>
        <DataArray type="Float64" Name="elementCenter" NumberOfComponents="3" format="ascii" RangeMin="0.7071067811865476" RangeMax="10.51189802081432">
          0 0.5 0.5 0 1.5 0.5
          0 2.5 0.5 0 3.5 0.5
          0 4.5 0.5 0 5.5 0.5
          0 6.5 0.5 0 7.5 0.5
          0 8.5 0.5 0 9.5 0.5
          0 10.5 0.5
          <InformationKey name="L2_NORM_RANGE" location="vtkDataArray" length="2">
            <Value index="0">
              0.70710678119
            </Value>
            <Value index="1">
              10.511898021
            </Value>
          </InformationKey>
        </DataArray>
        <DataArray type="Float64" Name="deltaPressure" format="ascii" RangeMin="10000000" RangeMax="29062060">
          10000000 12204016.955003697 14332814.89447709 16390181.860712295 18379655.56053458 20304543.795912713
          22167942.85083857 23972754.137101397 25721699.292037096 27417333.89626341 29062060
        </DataArray>
        <DataArray type="Float64" Name="elementVolume" format="ascii" RangeMin="0.0001" RangeMax="0.0001">
          0.0001 0.0001 0.0001 0.0001 0.0001 0.0001
          0.0001 0.0001 0.0001 0.0001 0.0001
        </DataArray>
        <DataArray type="Float64" Name="elementArea" format="ascii" RangeMin="1" RangeMax="1">
          1 1 1 1 1 1
          1 1 1 1 1
        </DataArray>
        <DataArray type="Float64" Name="pressure" format="ascii" RangeMin="10000000" RangeMax="29062060">
          10000000 12204016.955003697 14332814.89447709 16390181.860712295 18379655.56053458 20304543.795912713
          22167942.85083857 23972754.137101397 25721699.292037096 27417333.89626341 29062060
        </DataArray>
        <DataArray type="Float64" Name="normalVector" NumberOfComponents="3" format="ascii" RangeMin="1" RangeMax="1">
          0 0 1 0 0 1
          0 0 1 0 0 1
          0 0 1 0 0 1
          0 0 1 0 0 1
          0 0 1 0 0 1
          0 0 1
          <InformationKey name="L2_NORM_RANGE" location="vtkDataArray" length="2">
            <Value index="0">
              1
            </Value>
            <Value index="1">
              1
            </Value>
          </InformationKey>
        </DataArray>
        <DataArray type="Float64" Name="temperature" format="ascii" RangeMin="0" RangeMax="0">
          0 0 0 0 0 0
          0 0 0 0 0
        </DataArray>
        <DataArray type="Float64" Name="tangentVector1" NumberOfComponents="3" format="ascii" RangeMin="1" RangeMax="1">
          1 0 0 1 0 0
          1 0 0 1 0 0
          1 0 0 1 0 0
          1 0 0 1 0 0
          1 0 0 1 0 0
          1 0 0
          <InformationKey name="L2_NORM_RANGE" location="vtkDataArray" length="2">
            <Value index="0">
              1
            </Value>
            <Value index="1">
              1
            </Value>
          </InformationKey>
        </DataArray>
        <DataArray type="Float64" Name="massCreated" format="ascii" RangeMin="0" RangeMax="0">
          0 0 0 0 0 0
          0 0 0 0 0
        </DataArray>
        <DataArray type="Float64" Name="elementAperture" format="ascii" RangeMin="0.0001" RangeMax="0.0001">
          0.0001 0.0001 0.0001 0.0001 0.0001 0.0001
          0.0001 0.0001 0.0001 0.0001 0.0001
        </DataArray>
        <DataArray type="Float64" Name="tangentVector2" NumberOfComponents="3" format="ascii" RangeMin="1" RangeMax="1">
          0 1 0 0 1 0
          0 1 0 0 1 0
          0 1 0 0 1 0
          0 1 0 0 1 0
          0 1 0 0 1 0
          0 1 0
          <InformationKey name="L2_NORM_RANGE" location="vtkDataArray" length="2">
            <Value index="0">
              1
            </Value>
            <Value index="1">
              1
            </Value>
          </InformationKey>
        </DataArray>
        <DataArray type="Float64" Name="hydraulicAperture" format="ascii" RangeMin="0.010779481758235256" RangeMax="0.01268302858581127">
          0.010779481758235256 0.010969846379189015 0.01116020833960844 0.011350567829526552 0.011540925021495937 0.011731280079360237
          0.011921633159234864 0.0121119844100293 0.012302333973922582 0.012492681987090347 0.01268302858581127
        </DataArray>
      </CellData>
      <Points>
        <DataArray type="Float32" Name="Points" NumberOfComponents="3" format="ascii" RangeMin="0.7071067811865476" RangeMax="11.022703842524301">
          0.5 1 0.5 0.5 0 0.5
          -0.5 0 0.5 -0.5 1 0.5
          -0.5 2 0.5 0.5 2 0.5
          -0.5 3 0.5 0.5 3 0.5
          -0.5 4 0.5 0.5 4 0.5
          -0.5 5 0.5 0.5 5 0.5
          -0.5 6 0.5 0.5 6 0.5
          -0.5 7 0.5 0.5 7 0.5
          -0.5 8 0.5 0.5 8 0.5
          -0.5 9 0.5 0.5 9 0.5
          -0.5 10 0.5 0.5 10 0.5
          -0.5 11 0.5 0.5 11 0.5
          <InformationKey name="L2_NORM_RANGE" location="vtkDataArray" length="2">
            <Value index="0">
              0.70710678119
            </Value>
            <Value index="1">
              11.022703843
            </Value>
          </InformationKey>
        </DataArray>
      </Points>
      <Cells>
        <DataArray type="Int64" Name="connectivity" format="ascii" RangeMin="0" RangeMax="23">
          0 1 2 3 0 3
          4 5 5 4 6 7
          7 6 8 9 9 8
          10 11 11 10 12 13
          13 12 14 15 15 14
          16 17 17 16 18 19
          19 18 20 21 21 20
          22 23
        </DataArray>
        <DataArray type="Int64" Name="offsets" format="ascii" RangeMin="4" RangeMax="44">
          4 8 12 16 20 24
          28 32 36 40 44
        </DataArray>
        <DataArray type="UInt8" Name="types" format="ascii" RangeMin="7" RangeMax="7">
          7 7 7 7 7 7
          7 7 7 7 7
        </DataArray>
      </Cells>
    </Piece>
  </UnstructuredGrid>
</VTKFile>
