<?xml version="1.0"?>
<VTKFile type="UnstructuredGrid" version="0.1" byte_order="LittleEndian" header_type="UInt32" compressor="vtkZLibDataCompressor">
  <UnstructuredGrid>
    <FieldData>
      <DataArray type="Float64" Name="TIME" NumberOfTuples="1" format="ascii" RangeMin="43" RangeMax="43">
        43
      </DataArray>
    </FieldData>
    <Piece NumberOfPoints="24" NumberOfCells="11">
      <PointData>
      </PointData>
      <CellData>
        <DataArray type="Float64" Name="fracturePorosity_referencePorosity" format="ascii" RangeMin="1" RangeMax="1">
          1 1 1 1 1 1
          1 1 1 1 1
        </DataArray>
        <DataArray type="Float64" Name="fracturePorosity_initialPorosity" format="ascii" RangeMin="1" RangeMax="1">
          1 1 1 1 1 1
          1 1 1 1 1
        </DataArray>
        <DataArray type="Float64" Name="fracturePorosity_porosity" format="ascii" RangeMin="1" RangeMax="1">
          1 1 1 1 1 1
          1 1 1 1 1
        </DataArray>
        <DataArray type="Float64" Name="water_dEnthalpy" format="ascii" RangeMin="0" RangeMax="0">
          0 0 0 0 0 0
          0 0 0 0 0
        </DataArray>
        <DataArray type="Float64" Name="water_enthalpy" format="ascii" RangeMin="0" RangeMax="0">
          0 0 0 0 0 0
          0 0 0 0 0
        </DataArray>
        <DataArray type="Float64" Name="water_dInternalEnergy" format="ascii" RangeMin="0" RangeMax="0">
          0 0 0 0 0 0
          0 0 0 0 0
        </DataArray>
        <DataArray type="Float64" Name="water_internalEnergy" format="ascii" RangeMin="0" RangeMax="0">
          0 0 0 0 0 0
          0 0 0 0 0
        </DataArray>
        <DataArray type="Float64" Name="water_viscosity" format="ascii" RangeMin="0.001" RangeMax="0.001">
          0.001 0.001 0.001 0.001 0.001 0.001
          0.001 0.001 0.001 0.001 0.001
        </DataArray>
        <DataArray type="Float64" Name="fracturePerm_permeability" NumberOfComponents="3" format="ascii" RangeMin="0.000016771625068438692" RangeMax="0.000018587383609166307">
          0.000009683102248010555 0.000009683102248010555 0.000009683102248010555 0.000009785512540991972 0.000009785512540991972 0.000009785512540991972
          0.000009888461183117397 0.000009888461183117397 0.000009888461183117397 0.000009991948178983643 0.000009991948178983643 0.000009991948178983643
          0.00001009597352728138 0.00001009597352728138 0.00001009597352728138 0.00001020053722630584 0.00001020053722630584 0.00001020053722630584
          0.00001030563927434136 0.00001030563927434136 0.00001030563927434136 0.00001041127966968967 0.00001041127966968967 0.00001041127966968967
          0.00001051745841069634 0.00001051745841069634 0.00001051745841069634 0.000010624175496109968 0.000010624175496109968 0.000010624175496109968
          0.000010731430930283005 0.000010731430930283005 0.000010731430930283005
          <InformationKey name="L2_NORM_RANGE" location="vtkDataArray" length="2">
            <Value index="0">
              1.6771625068e-05
            </Value>
            <Value index="1">
              1.8587383609e-05
            </Value>
          </InformationKey>
        </DataArray>
        <DataArray type="Float64" Name="water_dDensity" format="ascii" RangeMin="5e-9" RangeMax="5e-9">
          5e-9 5e-9 5e-9 5e-9 5e-9 5e-9
          5e-9 5e-9 5e-9 5e-9 5e-9
        </DataArray>
        <DataArray type="Float64" Name="water_dViscosity" format="ascii" RangeMin="0" RangeMax="0">
          0 0 0 0 0 0
          0 0 0 0 0
        </DataArray>
        <DataArray type="Float64" Name="water_density" format="ascii" RangeMin="1000.0500000000001" RangeMax="1000.0818145999999">
          1000.0500000000001 1000.0533317318518 1000.0566286747401 1000.0598913710401 1000.0631203517216 1000.0663161368202
          1000.0694792357285 1000.0726101474684 1000.0757093609544 1000.0787773552578 1000.0818145999999
        </DataArray>
        <DataArray type="Int64" Name="SinglePhaseFlow_singlePhaseVariables_dofIndex" format="ascii" RangeMin="0" RangeMax="10">
          0 1 2 3 4 5
          6 7 8 9 10
        </DataArray>
        <DataArray type="Float64" Name="mass" format="ascii" RangeMin="0.10000500000000001" RangeMax="0.10000818146">
          0.10000500000000001 0.10000533317318519 0.10000566286747402 0.10000598913710401 0.10000631203517217 0.10000663161368202
          0.10000694792357286 0.10000726101474684 0.10000757093609544 0.10000787773552579 0.10000818146
        </DataArray>
        <DataArray type="Int64" Name="localToGlobalMap" format="ascii" RangeMin="11" RangeMax="21">
          11 12 13 14 15 16
          17 18 19 20 21
        </DataArray>
        <DataArray type="Int32" Name="ghostRank" format="ascii" RangeMin="-2" RangeMax="-2">
          -2 -2 -2 -2 -2 -2
          -2 -2 -2 -2 -2
        </DataArray>
        <DataArray type="Float64" Name="elementCenter" NumberOfComponents="3" format="ascii" RangeMin="0.7071067811865476" RangeMax="10.51189802081432">
          0 0.5 0.5 0 1.5 0.5
          0 2.5 0.5 0 3.5 0.5
          0 4.5 0.5 0 5.5 0.5
          0 6.5 0.5 0 7.5 0.5
          0 8.5 0.5 0 9.5 0.5
          0 10.5 0.5
          <InformationKey name="L2_NORM_RANGE" location="vtkDataArray" length="2">
            <Value index="0">
              0.70710678119
            </Value>
            <Value index="1">
              10.511898021
            </Value>
          </InformationKey>
        </DataArray>
        <DataArray type="Float64" Name="deltaPressure" format="ascii" RangeMin="10000000" RangeMax="16362920">
          10000000 10666346.37034944 11325734.94803894 11978274.208019454 12624070.344313491 13263227.364019949
          13895847.1456923 14522029.49369287 15141872.190873837 15755471.051554915 16362920
        </DataArray>
        <DataArray type="Float64" Name="elementVolume" format="ascii" RangeMin="0.0001" RangeMax="0.0001">
          0.0001 0.0001 0.0001 0.0001 0.0001 0.0001
          0.0001 0.0001 0.0001 0.0001 0.0001
        </DataArray>
        <DataArray type="Float64" Name="elementArea" format="ascii" RangeMin="1" RangeMax="1">
          1 1 1 1 1 1
          1 1 1 1 1
        </DataArray>
        <DataArray type="Float64" Name="pressure" format="ascii" RangeMin="10000000" RangeMax="16362920">
          10000000 10666346.37034944 11325734.94803894 11978274.208019454 12624070.344313491 13263227.364019949
          13895847.1456923 14522029.49369287 15141872.190873837 15755471.051554915 16362920
        </DataArray>
        <DataArray type="Float64" Name="normalVector" NumberOfComponents="3" format="ascii" RangeMin="1" RangeMax="1">
          0 0 1 0 0 1
          0 0 1 0 0 1
          0 0 1 0 0 1
          0 0 1 0 0 1
          0 0 1 0 0 1
          0 0 1
          <InformationKey name="L2_NORM_RANGE" location="vtkDataArray" length="2">
            <Value index="0">
              1
            </Value>
            <Value index="1">
              1
            </Value>
          </InformationKey>
        </DataArray>
        <DataArray type="Float64" Name="temperature" format="ascii" RangeMin="0" RangeMax="0">
          0 0 0 0 0 0
          0 0 0 0 0
        </DataArray>
        <DataArray type="Float64" Name="tangentVector1" NumberOfComponents="3" format="ascii" RangeMin="1" RangeMax="1">
          1 0 0 1 0 0
          1 0 0 1 0 0
          1 0 0 1 0 0
          1 0 0 1 0 0
          1 0 0 1 0 0
          1 0 0
          <InformationKey name="L2_NORM_RANGE" location="vtkDataArray" length="2">
            <Value index="0">
              1
            </Value>
            <Value index="1">
              1
            </Value>
          </InformationKey>
        </DataArray>
        <DataArray type="Float64" Name="massCreated" format="ascii" RangeMin="0" RangeMax="0">
          0 0 0 0 0 0
          0 0 0 0 0
        </DataArray>
        <DataArray type="Float64" Name="elementAperture" format="ascii" RangeMin="0.0001" RangeMax="0.0001">
          0.0001 0.0001 0.0001 0.0001 0.0001 0.0001
          0.0001 0.0001 0.0001 0.0001 0.0001
        </DataArray>
        <DataArray type="Float64" Name="tangentVector2" NumberOfComponents="3" format="ascii" RangeMin="1" RangeMax="1">
          0 1 0 0 1 0
          0 1 0 0 1 0
          0 1 0 0 1 0
          0 1 0 0 1 0
          0 1 0 0 1 0
          0 1 0
          <InformationKey name="L2_NORM_RANGE" location="vtkDataArray" length="2">
            <Value index="0">
              1
            </Value>
            <Value index="1">
              1
            </Value>
          </InformationKey>
        </DataArray>
        <DataArray type="Float64" Name="hydraulicAperture" format="ascii" RangeMin="0.010779481758235256" RangeMax="0.011348002959260984">
          0.010779481758235256 0.010836334735135476 0.010893187513184962 0.01095004009799981 0.011006892491860569 0.01106374469678644
          0.011120596714749452 0.011177448547690838 0.01123430019753594 0.01129115166638548 0.011348002959260984
        </DataArray>
      </CellData>
      <Points>
        <DataArray type="Float32" Name="Points" NumberOfComponents="3" format="ascii" RangeMin="0.7071067811865476" RangeMax="11.022703842524301">
          0.5 1 0.5 0.5 0 0.5
          -0.5 0 0.5 -0.5 1 0.5
          -0.5 2 0.5 0.5 2 0.5
          -0.5 3 0.5 0.5 3 0.5
          -0.5 4 0.5 0.5 4 0.5
          -0.5 5 0.5 0.5 5 0.5
          -0.5 6 0.5 0.5 6 0.5
          -0.5 7 0.5 0.5 7 0.5
          -0.5 8 0.5 0.5 8 0.5
          -0.5 9 0.5 0.5 9 0.5
          -0.5 10 0.5 0.5 10 0.5
          -0.5 11 0.5 0.5 11 0.5
          <InformationKey name="L2_NORM_RANGE" location="vtkDataArray" length="2">
            <Value index="0">
              0.70710678119
            </Value>
            <Value index="1">
              11.022703843
            </Value>
          </InformationKey>
        </DataArray>
      </Points>
      <Cells>
        <DataArray type="Int64" Name="connectivity" format="ascii" RangeMin="0" RangeMax="23">
          0 1 2 3 0 3
          4 5 5 4 6 7
          7 6 8 9 9 8
          10 11 11 10 12 13
          13 12 14 15 15 14
          16 17 17 16 18 19
          19 18 20 21 21 20
          22 23
        </DataArray>
        <DataArray type="Int64" Name="offsets" format="ascii" RangeMin="4" RangeMax="44">
          4 8 12 16 20 24
          28 32 36 40 44
        </DataArray>
        <DataArray type="UInt8" Name="types" format="ascii" RangeMin="7" RangeMax="7">
          7 7 7 7 7 7
          7 7 7 7 7
        </DataArray>
      </Cells>
    </Piece>
  </UnstructuredGrid>
</VTKFile>
