ply
format ascii 1.0
comment VTK generated PLY File
obj_info vtkPolyData points and polygons: vtk4.0
element vertex 675
property float x
property float y
property float z
element face 0
property list uchar int vertex_indices
end_header
1.7071 331477 0 
3.32513 331466 0 
3.32513 331466 0 
4.35737 331461 0 
5.19915 331459 0 
5.91614 331456 0 
5.19915 331459 0 
5.91614 331456 0 
7.14267 331454 0 
7.68151 331452 0 
7.14106 331454 0 
7.14267 331454 0 
7.68151 331452 0 
9.11103 331450 0 
9.53968 331449 0 
8.66013 331451 0 
8.66013 331451 0 
9.11103 331450 0 
9.53968 331449 0 
10.3441 331448 0 
9.94971 331448 0 
10.3441 331448 0 
11.0909 331447 0 
11.4457 331446 0 
11.0909 331447 0 
11.4457 331446 0 
11.4454 331446 0 
11.4454 331446 0 
12.1244 331445 0 
12.767 331445 0 
12.1244 331445 0 
13.0769 331444 0 
13.3792 331444 0 
13.0766 331444 0 
13.0766 331444 0 
13.0769 331444 0 
13.3792 331444 0 
13.9643 331443 0 
14.2477 331443 0 
14.2477 331443 0 
13.9643 331443 0 
15.0666 331442 0 
15.3298 331442 0 
14.7986 331442 0 
14.7986 331442 0 
15.0666 331442 0 
15.3298 331442 0 
15.843 331441 0 
15.8429 331441 0 
15.5884 331442 0 
15.8429 331441 0 
15.843 331441 0 
17.0588 331440 0 
17.2916 331440 0 
16.5831 331441 0 
16.5831 331441 0 
17.0588 331440 0 
17.2916 331440 0 
17.7482 331439 0 
17.0586 331440 0 
17.0586 331440 0 
17.7482 331439 0 
17.5214 331440 0 
17.5214 331440 0 
18.4119 331439 0 
18.4119 331439 0 
18.4119 331439 0 
18.6279 331439 0 
18.6279 331439 0 
19.0526 331438 0 
19.2614 331438 0 
19.6723 331438 0 
19.2613 331438 0 
19.8745 331438 0 
19.8745 331438 0 
19.2613 331438 0 
19.0526 331438 0 
19.2614 331438 0 
19.6723 331438 0 
21.0475 331437 0 
21.2367 331437 0 
20.2731 331437 0 
21.0475 331437 0 
20.2731 331437 0 
20.2731 331437 0 
20.2731 331437 0 
21.0475 331437 0 
21.0475 331437 0 
21.2367 331437 0 
21.6101 331436 0 
22.1585 331436 0 
21.4242 331436 0 
21.2367 331436 0 
21.4242 331436 0 
21.6101 331436 0 
22.1585 331436 0 
21.9772 331436 0 
21.9772 331436 0 
23.0434 331435 0 
23.2163 331435 0 
23.5584 331435 0 
22.8691 331435 0 
22.6935 331435 0 
22.6935 331435 0 
22.8691 331435 0 
23.0434 331435 0 
23.2163 331435 0 
23.5584 331435 0 
23.0434 331435 0 
23.0434 331435 0 
23.7275 331435 0 
24.0623 331434 0 
23.7275 331435 0 
24.228 331434 0 
24.228 331434 0 
24.0624 331434 0 
24.7183 331434 0 
24.7183 331434 0 
24.7183 331434 0 
24.0624 331434 0 
24.7183 331434 0 
25.0399 331434 0 
25.1991 331434 0 
25.5146 331433 0 
25.9807 331433 0 
25.5146 331433 0 
25.5146 331433 0 
25.5146 331433 0 
25.5146 331433 0 
25.0399 331434 0 
25.1991 331434 0 
25.5146 331433 0 
25.9807 331433 0 
25.8263 331433 0 
25.8263 331433 0 
26.4385 331433 0 
26.4385 331433 0 
27.0369 331432 0 
27.1845 331432 0 
27.4772 331432 0 
26.5894 331433 0 
27.3312 331432 0 
27.0369 331432 0 
26.8886 331432 0 
27.0369 331432 0 
26.5894 331433 0 
27.3312 331432 0 
27.0369 331432 0 
27.1845 331432 0 
27.4772 331432 0 
27.4772 331432 0 
27.4772 331432 0 
27.9105 331432 0 
28.478 331431 0 
27.9105 331432 0 
28.478 331431 0 
28.1957 331431 0 
28.1957 331431 0 
29.0344 331431 0 
29.1718 331431 0 
29.4448 331431 0 
29.1718 331431 0 
28.6181 331431 0 
28.3372 331431 0 
28.3372 331431 0 
28.6181 331431 0 
29.1718 331431 0 
29.0344 331431 0 
29.1718 331431 0 
29.4448 331431 0 
29.1718 331431 0 
29.1718 331431 0 
29.8495 331430 0 
30.3808 331430 0 
29.9832 331430 0 
29.8495 331430 0 
29.7152 331430 0 
29.8495 331430 0 
29.9832 331430 0 
29.8495 331430 0 
30.3808 331430 0 
31.0322 331430 0 
31.1608 331430 0 
30.2489 331430 0 
30.2489 331430 0 
31.0322 331430 0 
31.1608 331430 0 
31.4165 331430 0 
31.7961 331429 0 
31.0321 331430 0 
30.903 331430 0 
31.1608 331429 0 
31.1608 331429 0 
30.903 331430 0 
31.0321 331430 0 
31.4165 331430 0 
31.7961 331429 0 
31.7961 331429 0 
31.4164 331429 0 
31.4164 331429 0 
31.7961 331429 0 
31.9217 331429 0 
31.9217 331429 0 
33.0302 331429 0 
33.1511 331429 0 
32.2954 331429 0 
32.9089 331428 0 
32.6649 331428 0 
32.6649 331428 0 
32.5422 331428 0 
32.6649 331428 0 
32.6649 331428 0 
32.2954 331429 0 
32.9089 331428 0 
33.0302 331429 0 
33.1511 331429 0 
33.3915 331428 0 
33.749 331428 0 
33.0302 331428 0 
33.0302 331428 0 
33.3915 331428 0 
33.749 331428 0 
33.6302 331428 0 
33.6302 331428 0 
33.6302 331428 0 
33.6302 331428 0 
33.9852 331427 0 
33.9852 331427 0 
34.2198 331427 0 
34.2198 331427 0 
35.0285 331427 0 
35.1425 331427 0 
34.2198 331428 0 
34.7993 331427 0 
34.4528 331427 0 
34.6842 331427 0 
35.3694 331426 0 
34.6842 331427 0 
34.4528 331427 0 
34.2198 331428 0 
34.7993 331427 0 
35.0285 331427 0 
35.1425 331427 0 
35.3694 331427 0 
35.707 331427 0 
35.4823 331426 0 
35.4823 331426 0 
35.3694 331427 0 
35.707 331427 0 
37.0269 331426 0 
37.1348 331426 0 
36.1523 331427 0 
35.4823 331427 0 
35.3694 331427 0 
35.8189 331426 0 
35.8189 331426 0 
35.3694 331427 0 
35.4823 331427 0 
36.1523 331427 0 
37.0269 331426 0 
37.1348 331426 0 
36.2628 331426 0 
36.3729 331426 0 
36.3729 331426 0 
36.2628 331426 0 
37.3496 331426 0 
37.6695 331426 0 
36.7014 331426 0 
37.3496 331426 0 
37.1348 331425 0 
37.0269 331425 0 
36.8102 331425 0 
36.8102 331425 0 
37.0269 331425 0 
37.1348 331425 0 
36.7014 331426 0 
37.3496 331426 0 
37.3496 331426 0 
37.6695 331426 0 
37.4565 331425 0 
37.4565 331425 0 
39.0255 331425 0 
39.1279 331425 0 
38.0919 331425 0 
38.6133 331425 0 
38.0919 331425 0 
38.0919 331425 0 
38.3013 331424 0 
38.1967 331424 0 
38.3013 331424 0 
38.0919 331425 0 
38.0919 331425 0 
38.0919 331425 0 
38.6133 331425 0 
39.0255 331425 0 
39.1279 331425 0 
39.3318 331425 0 
39.6357 331425 0 
38.6133 331424 0 
38.6133 331424 0 
39.3318 331425 0 
39.6357 331425 0 
39.23 331424 0 
38.9229 331424 0 
39.1279 331424 0 
39.1279 331424 0 
38.9229 331424 0 
39.23 331424 0 
39.6357 331423 0 
39.6357 331423 0 
39.837 331423 0 
39.837 331423 0 
41.0243 331424 0 
41.1216 331424 0 
40.0373 331424 0 
40.5338 331424 0 
39.9373 331424 0 
39.837 331423 0 
40.2367 331423 0 
40.2367 331423 0 
39.837 331423 0 
39.9373 331424 0 
40.0373 331424 0 
40.5338 331424 0 
41.3157 331424 0 
41.6052 331423 0 
40.7307 331423 0 
40.7307 331423 0 
40.8288 331423 0 
40.8288 331423 0 
41.1216 331423 0 
41.797 331422 0 
41.4124 331422 0 
41.1216 331422 0 
41.0242 331422 0 
41.1216 331422 0 
41.4124 331422 0 
41.1216 331423 0 
41.797 331422 0 
41.988 331423 0 
42.4616 331422 0 
41.6051 331422 0 
41.6051 331422 0 
41.8926 331422 0 
41.8926 331422 0 
43.0231 331423 0 
43.116 331423 0 
42.5557 331422 0 
42.5557 331421 0 
42.4616 331421 0 
42.4616 331421 0 
42.5557 331421 0 
42.5557 331422 0 
43.3011 331423 0 
43.5774 331422 0 
42.6496 331421 0 
42.6496 331421 0 
43.0231 331421 0 
43.0231 331421 0 
43.0231 331422 0 
43.6691 331421 0 
43.943 331422 0 
44.3958 331421 0 
43.3934 331421 0 
43.5774 331420 0 
43.5774 331420 0 
43.3934 331421 0 
45.0221 331422 0 
45.1108 331422 0 
44.3958 331420 0 
44.3056 331420 0 
43.943 331420 0 
43.8519 331420 0 
43.943 331420 0 
44.3056 331420 0 
45.2878 331421 0 
45.552 331421 0 
44.2152 331419 0 
44.2152 331419 0 
44.6653 331419 0 
44.6653 331419 0 
44.9331 331421 0 
45.552 331420 0 
45.1994 331420 0 
45.2878 331419 0 
45.4641 331418 0 
45.2878 331418 0 
45.2878 331418 0 
45.4641 331418 0 
45.2878 331419 0 
45.9019 331420 0 
46.3356 331420 0 
46.0759 331419 0 
45.8147 331418 0 
45.8147 331418 0 
46.2492 331419 0 
46.3356 331418 0 
46.3356 331418 0 
47.0211 331421 0 
47.1061 331421 0 
47.2756 331420 0 
47.5288 331420 0 
46.8507 331419 0 
47.4445 331418 0 
47.0211 331418 0 
47.0211 331418 0 
47.0211 331417 0 
46.7652 331417 0 
46.6796 331417 0 
46.7652 331417 0 
47.0211 331417 0 
47.8642 331419 0 
48.2803 331418 0 
47.4445 331416 0 
47.4445 331416 0 
49.0202 331420 0 
49.1018 331420 0 
49.2644 331419 0 
49.5074 331418 0 
48.1143 331417 0 
47.8642 331417 0 
48.0311 331416 0 
48.2803 331415 0 
48.1143 331415 0 
48.1143 331415 0 
48.2803 331415 0 
48.7748 331418 0 
49.3456 331417 0 
48.7748 331416 0 
48.6105 331415 0 
48.6105 331415 0 
49.8295 331418 0 
50.2293 331417 0 
48.8568 331416 0 
49.1018 331415 0 
51.0194 331419 0 
51.0978 331418 0 
51.2541 331418 0 
49.9898 331416 0 
49.6687 331415 0 
49.7492 331414 0 
49.8295 331413 0 
49.5881 331413 0 
49.5074 331413 0 
49.5881 331413 0 
49.8295 331413 0 
50.7049 331416 0 
50.2293 331413 0 
51.4877 331417 0 
51.7975 331416 0 
50.5468 331414 0 
50.7049 331414 0 
50.7837 331413 0 
51.2541 331414 0 
51.8747 331413 0 
51.4877 331413 0 
51.4877 331412 0 
51.4099 331411 0 
51.0978 331411 0 
50.941 331411 0 
50.941 331411 0 
51.0978 331411 0 
52.1822 331414 0 
52.6401 331413 0 
51.8747 331411 0 
53.0187 331418 0 
53.0941 331417 0 
53.2445 331417 0 
53.4694 331415 0 
52.5641 331412 0 
52.3353 331411 0 
52.4879 331410 0 
52.6401 331408 0 
52.4117 331408 0 
52.3353 331408 0 
52.4117 331408 0 
53.1694 331411 0 
53.7678 331410 0 
53.0187 331408 0 
53.7678 331413 0 
54.1385 331411 0 
53.3196 331410 0 
53.2445 331409 0 
53.5442 331408 0 
55.018 331417 0 
55.0906 331416 0 
55.2357 331415 0 
54.58 331409 0 
55.0907 331407 0 
54.1385 331408 0 
54.2124 331407 0 
53.9164 331404 0 
53.7678 331404 0 
53.7678 331404 0 
55.4525 331413 0 
55.7403 331410 0 
54.4333 331408 0 
55.1632 331404 0 
54.2124 331404 0 
55.018 331404 0 
54.6533 331404 0 
55.2357 331402 0 
56.0979 331404 0 
56.5242 331396 0 
55.6685 331403 0 
56.3114 331396 0 
55.4525 331397 0 
55.2357 331397 0 
55.1632 331398 0 
55.9552 331396 0 
55.812 331397 0 
55.9552 331395 0 
56.3114 331392 0 
57.0174 331414 0 
57.0875 331413 0 
57.2274 331411 0 
57.4367 331407 0 
56.8065 331369 0 
56.9472 331367 0 
56.736 331377 0 
56.5949 331377 0 
57.0174 331389 0 
57.5759 331362 0 
57.0174 331368 0 
57.0174 331374 0 
57.7146 331396 0 
58.0601 331353 0 
57.4367 331359 0 
57.7839 331184 0 
57.7146 331184 0 
57.9912 331177 0 
58.0601 331204 0 
58.1978 331173 0 
58.2665 331194 0 
58.472 331277 0 
58.949 331101 0 
58.6087 331145 0 
41.0243 331424 0 
41.1216 331424 0 
41.3157 331424 0 
41.6052 331423 0 
41.988 331423 0 
42.4616 331422 0 
43.0231 331423 0 
43.116 331423 0 
43.3011 331423 0 
43.5774 331422 0 
43.0231 331422 0 
43.6691 331421 0 
43.943 331422 0 
44.3958 331421 0 
44.3958 331420 0 
45.0221 331422 0 
45.1108 331422 0 
45.2878 331421 0 
45.552 331421 0 
45.1994 331420 0 
44.9331 331421 0 
45.552 331420 0 
46.0759 331419 0 
45.9019 331420 0 
46.3356 331420 0 
46.2492 331419 0 
47.0211 331418 0 
47.0211 331418 0 
46.8507 331419 0 
47.4445 331418 0 
47.0211 331421 0 
47.1061 331421 0 
47.2756 331420 0 
47.5288 331420 0 
47.8642 331419 0 
48.2803 331418 0 
48.0311 331416 0 
47.8642 331417 0 
48.1143 331417 0 
49.0202 331420 0 
49.1018 331420 0 
49.2644 331419 0 
49.5074 331418 0 
48.7748 331416 0 
48.7748 331418 0 
49.3456 331417 0 
49.1018 331415 0 
48.8568 331416 0 
49.8295 331418 0 
50.2293 331417 0 
49.7492 331414 0 
49.6687 331415 0 
49.9898 331416 0 
51.0194 331419 0 
51.0978 331418 0 
51.2541 331418 0 
50.2293 331413 0 
50.7049 331416 0 
50.5468 331414 0 
51.4877 331417 0 
51.7975 331416 0 
50.7837 331413 0 
50.7049 331414 0 
51.4099 331411 0 
51.4877 331412 0 
51.4877 331413 0 
51.2541 331414 0 
51.8747 331413 0 
51.8747 331411 0 
52.1822 331414 0 
52.6401 331413 0 
52.6401 331408 0 
52.4879 331410 0 
52.3353 331411 0 
52.5641 331412 0 
53.0187 331418 0 
53.0941 331417 0 
53.2445 331417 0 
53.4694 331415 0 
53.0187 331408 0 
53.1694 331411 0 
53.7678 331410 0 
53.2445 331409 0 
53.3196 331410 0 
53.7678 331413 0 
54.1385 331411 0 
53.5442 331408 0 
53.9164 331404 0 
54.2124 331407 0 
54.1385 331408 0 
54.58 331409 0 
55.0907 331407 0 
55.018 331417 0 
55.0906 331416 0 
55.2357 331415 0 
54.2124 331404 0 
54.4333 331408 0 
55.1632 331404 0 
55.4525 331413 0 
55.7403 331410 0 
54.6533 331404 0 
55.018 331404 0 
55.2357 331402 0 
55.2357 331397 0 
55.4525 331397 0 
55.6685 331403 0 
56.3114 331396 0 
56.0979 331404 0 
56.5242 331396 0 
55.812 331397 0 
55.9552 331396 0 
55.9552 331395 0 
56.3114 331392 0 
56.5949 331377 0 
56.736 331377 0 
56.9472 331367 0 
56.8065 331369 0 
57.0174 331414 0 
57.0875 331413 0 
57.2274 331411 0 
57.4367 331407 0 
57.0174 331374 0 
57.0174 331368 0 
57.0174 331389 0 
57.5759 331362 0 
57.4367 331359 0 
57.7146 331396 0 
58.0601 331353 0 
57.9912 331207 0 
58.0601 331204 0 
57.9912 331177 0 
57.7146 331184 0 
57.7839 331184 0 
58.2665 331194 0 
58.1978 331173 0 
58.6087 331145 0 
58.472 331277 0 
58.949 331101 0 
