ply
format ascii 1.0
comment VTK generated PLY File
obj_info vtkPolyData points and polygons: vtk4.0
element vertex 675
property float x
property float y
property float z
element face 0
property list uchar int vertex_indices
end_header
1.7071 0.0015208 0 
3.32513 0.00151898 0 
3.32513 0.00151898 0 
4.35737 0.00151715 0 
5.19915 0.00151532 0 
5.91614 0.0015135 0 
5.19915 0.00151532 0 
5.91614 0.0015135 0 
7.14267 0.00150983 0 
7.68151 0.001508 0 
7.14106 0.00150983 0 
7.14267 0.00150983 0 
7.68151 0.001508 0 
9.11103 0.00150248 0 
9.53968 0.00150063 0 
8.66013 0.00150432 0 
8.66013 0.00150432 0 
9.11103 0.00150248 0 
9.53968 0.00150063 0 
10.3441 0.00149694 0 
9.94971 0.00149878 0 
10.3441 0.00149694 0 
11.0909 0.00149324 0 
11.4457 0.00149138 0 
11.0909 0.00149324 0 
11.4457 0.00149138 0 
11.4454 0.00149138 0 
11.4454 0.00149138 0 
12.1244 0.00148766 0 
12.767 0.00148393 0 
12.1244 0.00148766 0 
13.0769 0.00148207 0 
13.3792 0.0014802 0 
13.0766 0.00148206 0 
13.0766 0.00148206 0 
13.0769 0.00148207 0 
13.3792 0.0014802 0 
13.9643 0.00147645 0 
14.2477 0.00147457 0 
14.2477 0.00147457 0 
13.9643 0.00147645 0 
15.0666 0.00146894 0 
15.3298 0.00146706 0 
14.7986 0.00147081 0 
14.7986 0.00147081 0 
15.0666 0.00146894 0 
15.3298 0.00146706 0 
15.843 0.00146327 0 
15.8429 0.00146326 0 
15.5884 0.00146515 0 
15.8429 0.00146326 0 
15.843 0.00146327 0 
17.0588 0.0014538 0 
17.2916 0.00145189 0 
16.5831 0.00145758 0 
16.5831 0.00145758 0 
17.0588 0.0014538 0 
17.2916 0.00145189 0 
17.7482 0.00144806 0 
17.0586 0.00145376 0 
17.0586 0.00145376 0 
17.7482 0.00144806 0 
17.5214 0.00144996 0 
17.5214 0.00144996 0 
18.4119 0.00144231 0 
18.4119 0.00144229 0 
18.4119 0.00144231 0 
18.6279 0.00144037 0 
18.6279 0.00144037 0 
19.0526 0.00143657 0 
19.2614 0.00143463 0 
19.6723 0.00143076 0 
19.2613 0.0014346 0 
19.8745 0.00142878 0 
19.8745 0.00142878 0 
19.2613 0.0014346 0 
19.0526 0.00143657 0 
19.2614 0.00143463 0 
19.6723 0.00143076 0 
21.0475 0.00141718 0 
21.2367 0.00141522 0 
20.2731 0.00142494 0 
21.0475 0.00141713 0 
20.2731 0.00142491 0 
20.2731 0.00142491 0 
20.2731 0.00142494 0 
21.0475 0.00141713 0 
21.0475 0.00141718 0 
21.2367 0.00141522 0 
21.6101 0.0014113 0 
22.1585 0.00140539 0 
21.4242 0.00141319 0 
21.2367 0.00141515 0 
21.4242 0.00141319 0 
21.6101 0.0014113 0 
22.1585 0.00140539 0 
21.9772 0.00140732 0 
21.9772 0.00140732 0 
23.0434 0.00139555 0 
23.2163 0.00139356 0 
23.5584 0.00138957 0 
22.8691 0.00139747 0 
22.6935 0.0013994 0 
22.6935 0.0013994 0 
22.8691 0.00139747 0 
23.0434 0.00139555 0 
23.2163 0.00139356 0 
23.5584 0.00138957 0 
23.0434 0.00139545 0 
23.0434 0.00139545 0 
23.7275 0.00138751 0 
24.0623 0.00138348 0 
23.7275 0.00138751 0 
24.228 0.00138148 0 
24.228 0.00138148 0 
24.0624 0.00138357 0 
24.7183 0.00137552 0 
24.7183 0.00137547 0 
24.7183 0.00137547 0 
24.0624 0.00138357 0 
24.7183 0.00137552 0 
25.0399 0.00137158 0 
25.1991 0.00136955 0 
25.5146 0.00136549 0 
25.9807 0.00135937 0 
25.5146 0.0013654 0 
25.5146 0.00136534 0 
25.5146 0.00136534 0 
25.5146 0.0013654 0 
25.0399 0.00137158 0 
25.1991 0.00136955 0 
25.5146 0.00136549 0 
25.9807 0.00135937 0 
25.8263 0.00136129 0 
25.8263 0.00136129 0 
26.4385 0.00135316 0 
26.4385 0.00135316 0 
27.0369 0.00134513 0 
27.1845 0.00134306 0 
27.4772 0.00133892 0 
26.5894 0.00135118 0 
27.3312 0.00134086 0 
27.0369 0.00134491 0 
26.8886 0.00134696 0 
27.0369 0.00134491 0 
26.5894 0.00135118 0 
27.3312 0.00134086 0 
27.0369 0.00134513 0 
27.1845 0.00134306 0 
27.4772 0.00133892 0 
27.4772 0.00133874 0 
27.4772 0.00133874 0 
27.9105 0.00133267 0 
28.478 0.00132431 0 
27.9105 0.00133267 0 
28.478 0.00132431 0 
28.1957 0.00132839 0 
28.1957 0.00132839 0 
29.0344 0.00131607 0 
29.1718 0.00131396 0 
29.4448 0.00130971 0 
29.1718 0.00131377 0 
28.6181 0.00132207 0 
28.3372 0.00132625 0 
28.3372 0.00132625 0 
28.6181 0.00132207 0 
29.1718 0.00131377 0 
29.0344 0.00131607 0 
29.1718 0.00131396 0 
29.4448 0.00130971 0 
29.1718 0.00131369 0 
29.1718 0.00131369 0 
29.8495 0.00130332 0 
30.3808 0.00129476 0 
29.9832 0.00130103 0 
29.8495 0.00130308 0 
29.7152 0.0013052 0 
29.8495 0.00130308 0 
29.9832 0.00130103 0 
29.8495 0.00130332 0 
30.3808 0.00129476 0 
31.0322 0.00128422 0 
31.1608 0.00128205 0 
30.2489 0.0012967 0 
30.2489 0.0012967 0 
31.0322 0.00128422 0 
31.1608 0.00128205 0 
31.4165 0.0012777 0 
31.7961 0.00127114 0 
31.0321 0.00128397 0 
30.903 0.00128601 0 
31.1608 0.00128166 0 
31.1608 0.00128166 0 
30.903 0.00128601 0 
31.0321 0.00128397 0 
31.4165 0.0012777 0 
31.7961 0.00127114 0 
31.7961 0.00127091 0 
31.4164 0.00127733 0 
31.4164 0.00127733 0 
31.7961 0.00127091 0 
31.9217 0.00126865 0 
31.9217 0.00126865 0 
33.0302 0.00124937 0 
33.1511 0.00124714 0 
32.2954 0.00126234 0 
32.9089 0.00125126 0 
32.6649 0.00125552 0 
32.6649 0.00125547 0 
32.5422 0.00125768 0 
32.6649 0.00125547 0 
32.6649 0.00125552 0 
32.2954 0.00126234 0 
32.9089 0.00125126 0 
33.0302 0.00124937 0 
33.1511 0.00124714 0 
33.3915 0.00124266 0 
33.749 0.0012359 0 
33.0302 0.00124884 0 
33.0302 0.00124884 0 
33.3915 0.00124266 0 
33.749 0.0012359 0 
33.6302 0.00123784 0 
33.6302 0.00123772 0 
33.6302 0.00123772 0 
33.6302 0.00123784 0 
33.9852 0.00123099 0 
33.9852 0.00123099 0 
34.2198 0.00122647 0 
34.2198 0.00122647 0 
35.0285 0.00121126 0 
35.1425 0.00120896 0 
34.2198 0.00122684 0 
34.7993 0.00121542 0 
34.4528 0.00122201 0 
34.6842 0.0012174 0 
35.3694 0.00120372 0 
34.6842 0.0012174 0 
34.4528 0.00122201 0 
34.2198 0.00122684 0 
34.7993 0.00121542 0 
35.0285 0.00121126 0 
35.1425 0.00120896 0 
35.3694 0.00120433 0 
35.707 0.00119736 0 
35.4823 0.00120141 0 
35.4823 0.00120141 0 
35.3694 0.00120433 0 
35.707 0.00119736 0 
37.0269 0.00116958 0 
37.1348 0.00116719 0 
36.1523 0.00118799 0 
35.4823 0.00120157 0 
35.3694 0.00120369 0 
35.8189 0.00119444 0 
35.8189 0.00119444 0 
35.3694 0.00120369 0 
35.4823 0.00120157 0 
36.1523 0.00118799 0 
37.0269 0.00116958 0 
37.1348 0.00116719 0 
36.2628 0.00118523 0 
36.3729 0.00118277 0 
36.3729 0.00118277 0 
36.2628 0.00118523 0 
37.3496 0.00116241 0 
37.6695 0.00115518 0 
36.7014 0.00117616 0 
37.3496 0.00116181 0 
37.1348 0.00116629 0 
37.0269 0.0011687 0 
36.8102 0.00117347 0 
36.8102 0.00117347 0 
37.0269 0.0011687 0 
37.1348 0.00116629 0 
36.7014 0.00117616 0 
37.3496 0.00116181 0 
37.3496 0.00116241 0 
37.6695 0.00115518 0 
37.4565 0.00115913 0 
37.4565 0.00115913 0 
39.0255 0.00112391 0 
39.1279 0.00112145 0 
38.0919 0.00114545 0 
38.6133 0.00113315 0 
38.0919 0.00114485 0 
38.0919 0.00114466 0 
38.3013 0.00113999 0 
38.1967 0.00114245 0 
38.3013 0.00113999 0 
38.0919 0.00114466 0 
38.0919 0.00114485 0 
38.0919 0.00114545 0 
38.6133 0.00113315 0 
39.0255 0.00112391 0 
39.1279 0.00112145 0 
39.3318 0.00111648 0 
39.6357 0.00110897 0 
38.6133 0.00113259 0 
38.6133 0.00113259 0 
39.3318 0.00111648 0 
39.6357 0.00110897 0 
39.23 0.0011182 0 
38.9229 0.00112518 0 
39.1279 0.00112019 0 
39.1279 0.00112019 0 
38.9229 0.00112518 0 
39.23 0.0011182 0 
39.6357 0.00110808 0 
39.6357 0.00110808 0 
39.837 0.00110297 0 
39.837 0.00110297 0 
41.0243 0.00107375 0 
41.1216 0.00107119 0 
40.0373 0.00109883 0 
40.5338 0.00108597 0 
39.9373 0.00110049 0 
39.837 0.00110268 0 
40.2367 0.00109272 0 
40.2367 0.00109272 0 
39.837 0.00110268 0 
39.9373 0.00110049 0 
40.0373 0.00109883 0 
40.5338 0.00108597 0 
41.3157 0.00106603 0 
41.6052 0.0010582 0 
40.7307 0.00107992 0 
40.7307 0.00107992 0 
40.8288 0.00107722 0 
40.8288 0.00107722 0 
41.1216 0.00107028 0 
41.797 0.00105166 0 
41.4124 0.00106202 0 
41.1216 0.00107 0 
41.0242 0.00107265 0 
41.1216 0.00107 0 
41.4124 0.00106202 0 
41.1216 0.00107028 0 
41.797 0.00105166 0 
41.988 0.00104758 0 
42.4616 0.00103406 0 
41.6051 0.00105637 0 
41.6051 0.00105637 0 
41.8926 0.00104861 0 
41.8926 0.00104861 0 
43.0231 0.00101837 0 
43.116 0.00101573 0 
42.5557 0.00102997 0 
42.5557 0.00102968 0 
42.4616 0.00103334 0 
42.4616 0.00103334 0 
42.5557 0.00102968 0 
42.5557 0.00102997 0 
43.3011 0.00101037 0 
43.5774 0.0010022 0 
42.6496 0.00102779 0 
42.6496 0.00102779 0 
43.0231 0.00101661 0 
43.0231 0.00101661 0 
43.0231 0.00101749 0 
43.6691 0.000997729 0 
43.943 0.000991054 0 
44.3958 0.000976751 0 
43.3934 0.00100509 0 
43.5774 0.000999659 0 
43.5774 0.000999659 0 
43.3934 0.00100509 0 
45.0221 0.000956818 0 
45.1108 0.000954095 0 
44.3958 0.000974622 0 
44.3056 0.00097684 0 
43.943 0.000989665 0 
43.8519 0.000992572 0 
43.943 0.000989665 0 
44.3056 0.00097684 0 
45.2878 0.000948561 0 
45.552 0.00094005 0 
44.2152 0.000980877 0 
44.2152 0.000980877 0 
44.6653 0.000966048 0 
44.6653 0.000966048 0 
44.9331 0.000959094 0 
45.552 0.000937879 0 
45.1994 0.000948013 0 
45.2878 0.000945028 0 
45.4641 0.000940975 0 
45.2878 0.000947129 0 
45.2878 0.000947129 0 
45.4641 0.000940975 0 
45.2878 0.000945028 0 
45.9019 0.000928326 0 
46.3356 0.000913106 0 
46.0759 0.000917727 0 
45.8147 0.000928473 0 
45.8147 0.000928473 0 
46.2492 0.000912915 0 
46.3356 0.000909369 0 
46.3356 0.000909369 0 
47.0211 0.000887662 0 
47.1061 0.000884899 0 
47.2756 0.000879246 0 
47.5288 0.000870445 0 
46.8507 0.000894093 0 
47.4445 0.000870999 0 
47.0211 0.000884016 0 
47.0211 0.00088355 0 
47.0211 0.0008864 0 
46.7652 0.000896286 0 
46.6796 0.000899525 0 
46.7652 0.000896286 0 
47.0211 0.0008864 0 
47.8642 0.00085813 0 
48.2803 0.000841855 0 
47.4445 0.000869466 0 
47.4445 0.000869466 0 
49.0202 0.000808687 0 
49.1018 0.000805953 0 
49.2644 0.000800308 0 
49.5074 0.000791374 0 
48.1143 0.000843532 0 
47.8642 0.000850955 0 
48.0311 0.000845165 0 
48.2803 0.000839036 0 
48.1143 0.000845961 0 
48.1143 0.000845961 0 
48.2803 0.000839036 0 
48.7748 0.000821125 0 
49.3456 0.000795484 0 
48.7748 0.000813483 0 
48.6105 0.000824673 0 
48.6105 0.000824673 0 
49.8295 0.000778544 0 
50.2293 0.000761092 0 
48.8568 0.000811435 0 
49.1018 0.000802131 0 
51.0194 0.00071633 0 
51.0978 0.000713737 0 
51.2541 0.00070833 0 
49.9898 0.000764516 0 
49.6687 0.000774445 0 
49.7492 0.000771269 0 
49.8295 0.000773982 0 
49.5881 0.000785304 0 
49.5074 0.000788925 0 
49.5881 0.000785304 0 
49.8295 0.000773982 0 
50.7049 0.000738185 0 
50.2293 0.000753771 0 
51.4877 0.000699606 0 
51.7975 0.000686643 0 
50.5468 0.000732087 0 
50.7049 0.000727685 0 
50.7837 0.000723683 0 
51.2541 0.000708871 0 
51.8747 0.000672826 0 
51.4877 0.00068493 0 
51.4877 0.000684254 0 
51.4099 0.000698721 0 
51.0978 0.000715591 0 
50.941 0.000723368 0 
50.941 0.000723368 0 
51.0978 0.000715591 0 
52.1822 0.000667843 0 
52.6401 0.00064212 0 
51.8747 0.00067027 0 
53.0187 0.000602729 0 
53.0941 0.000600443 0 
53.2445 0.000595632 0 
53.4694 0.000587737 0 
52.5641 0.00062885 0 
52.3353 0.00063516 0 
52.4879 0.000629735 0 
52.6401 0.000635057 0 
52.4117 0.000647824 0 
52.3353 0.000651731 0 
52.4117 0.000647824 0 
53.1694 0.000607562 0 
53.7678 0.000559779 0 
53.0187 0.000609241 0 
53.7678 0.000575571 0 
54.1385 0.00055677 0 
53.3196 0.000573181 0 
53.2445 0.000574604 0 
53.5442 0.00056461 0 
55.018 0.000456563 0 
55.0906 0.000454797 0 
55.2357 0.000451062 0 
54.58 0.000524596 0 
55.0907 0.00048371 0 
54.1385 0.000513587 0 
54.2124 0.000510908 0 
53.9164 0.000555236 0 
53.7678 0.000563363 0 
53.7678 0.000563363 0 
55.4525 0.000444838 0 
55.7403 0.000435111 0 
54.4333 0.000506293 0 
55.1632 0.000444364 0 
54.2124 0.000535019 0 
55.018 0.000447056 0 
54.6533 0.000496068 0 
55.2357 0.000440886 0 
56.0979 0.000418741 0 
56.5242 0.000390095 0 
55.6685 0.000431211 0 
56.3114 0.000302731 0 
55.4525 0.000450058 0 
55.2357 0.000463024 0 
55.1632 0.00046661 0 
55.9552 0.000308592 0 
55.812 0.000419008 0 
55.9552 0.000308171 0 
56.3114 0.000300796 0 
57.0174 0.000186963 0 
57.0875 0.000186239 0 
57.2274 0.000184706 0 
57.4367 0.000182125 0 
56.8065 0.000190922 0 
56.9472 0.000188691 0 
56.736 0.000297289 0 
56.5949 0.000303045 0 
57.0174 0.000285088 0 
57.5759 0.000183107 0 
57.0174 0.000189393 0 
57.0174 0.000278244 0 
57.7146 0.000178128 0 
58.0601 0.000170792 0 
57.4367 0.000179981 0 
57.7839 8.60972e-05 0 
57.7146 8.63734e-05 0 
57.9912 8.48994e-05 0 
58.0601 9.40584e-05 0 
58.1978 8.39778e-05 0 
58.2665 9.0918e-05 0 
58.472 0.00016066 0 
58.949 7.77318e-05 0 
58.6087 7.96742e-05 0 
41.0243 0.00107375 0 
41.1216 0.00107119 0 
41.3157 0.00106603 0 
41.6052 0.0010582 0 
41.988 0.00104758 0 
42.4616 0.00103406 0 
43.0231 0.00101837 0 
43.116 0.00101573 0 
43.3011 0.00101037 0 
43.5774 0.0010022 0 
43.0231 0.00101749 0 
43.6691 0.000997729 0 
43.943 0.000991054 0 
44.3958 0.000976751 0 
44.3958 0.000974622 0 
45.0221 0.000956818 0 
45.1108 0.000954095 0 
45.2878 0.000948561 0 
45.552 0.00094005 0 
45.1994 0.000948013 0 
44.9331 0.000959094 0 
45.552 0.000937879 0 
46.0759 0.000917727 0 
45.9019 0.000928326 0 
46.3356 0.000913106 0 
46.2492 0.000912915 0 
47.0211 0.00088355 0 
47.0211 0.000884016 0 
46.8507 0.000894093 0 
47.4445 0.000870999 0 
47.0211 0.000887662 0 
47.1061 0.000884899 0 
47.2756 0.000879246 0 
47.5288 0.000870445 0 
47.8642 0.00085813 0 
48.2803 0.000841855 0 
48.0311 0.000845165 0 
47.8642 0.000850955 0 
48.1143 0.000843532 0 
49.0202 0.000808687 0 
49.1018 0.000805953 0 
49.2644 0.000800308 0 
49.5074 0.000791374 0 
48.7748 0.000813483 0 
48.7748 0.000821125 0 
49.3456 0.000795484 0 
49.1018 0.000802131 0 
48.8568 0.000811435 0 
49.8295 0.000778544 0 
50.2293 0.000761092 0 
49.7492 0.000771269 0 
49.6687 0.000774445 0 
49.9898 0.000764516 0 
51.0194 0.00071633 0 
51.0978 0.000713737 0 
51.2541 0.00070833 0 
50.2293 0.000753771 0 
50.7049 0.000738185 0 
50.5468 0.000732087 0 
51.4877 0.000699606 0 
51.7975 0.000686643 0 
50.7837 0.000723683 0 
50.7049 0.000727685 0 
51.4099 0.000698721 0 
51.4877 0.000684254 0 
51.4877 0.00068493 0 
51.2541 0.000708871 0 
51.8747 0.000672826 0 
51.8747 0.00067027 0 
52.1822 0.000667843 0 
52.6401 0.00064212 0 
52.6401 0.000635057 0 
52.4879 0.000629735 0 
52.3353 0.00063516 0 
52.5641 0.00062885 0 
53.0187 0.000602729 0 
53.0941 0.000600443 0 
53.2445 0.000595632 0 
53.4694 0.000587737 0 
53.0187 0.000609241 0 
53.1694 0.000607562 0 
53.7678 0.000559779 0 
53.2445 0.000574604 0 
53.3196 0.000573181 0 
53.7678 0.000575571 0 
54.1385 0.00055677 0 
53.5442 0.00056461 0 
53.9164 0.000555236 0 
54.2124 0.000510908 0 
54.1385 0.000513587 0 
54.58 0.000524596 0 
55.0907 0.00048371 0 
55.018 0.000456563 0 
55.0906 0.000454797 0 
55.2357 0.000451062 0 
54.2124 0.000535019 0 
54.4333 0.000506293 0 
55.1632 0.000444364 0 
55.4525 0.000444838 0 
55.7403 0.000435111 0 
54.6533 0.000496068 0 
55.018 0.000447056 0 
55.2357 0.000440886 0 
55.2357 0.000463024 0 
55.4525 0.000450058 0 
55.6685 0.000431211 0 
56.3114 0.000302731 0 
56.0979 0.000418741 0 
56.5242 0.000390095 0 
55.812 0.000419008 0 
55.9552 0.000308592 0 
55.9552 0.000308171 0 
56.3114 0.000300796 0 
56.5949 0.000303045 0 
56.736 0.000297289 0 
56.9472 0.000188691 0 
56.8065 0.000190922 0 
57.0174 0.000186963 0 
57.0875 0.000186239 0 
57.2274 0.000184706 0 
57.4367 0.000182125 0 
57.0174 0.000278244 0 
57.0174 0.000189393 0 
57.0174 0.000285088 0 
57.5759 0.000183107 0 
57.4367 0.000179981 0 
57.7146 0.000178128 0 
58.0601 0.000170792 0 
57.9912 9.48445e-05 0 
58.0601 9.40584e-05 0 
57.9912 8.48994e-05 0 
57.7146 8.63734e-05 0 
57.7839 8.60972e-05 0 
58.2665 9.0918e-05 0 
58.1978 8.39778e-05 0 
58.6087 7.96742e-05 0 
58.472 0.00016066 0 
58.949 7.77318e-05 0 
