<?xml version="1.0"?>
<VTKFile type="UnstructuredGrid" version="0.1" byte_order="LittleEndian" header_type="UInt32" compressor="vtkZLibDataCompressor">
  <UnstructuredGrid>
    <Piece NumberOfPoints="192" NumberOfCells="279">
      <PointData>
      </PointData>
      <CellData Scalars="attribute">
        <DataArray type="Int32" Name="attribute" format="ascii" RangeMin="1" RangeMax="3">
          1 1 1 1 1 1
          1 1 1 1 1 1
          1 1 1 1 1 1
          1 1 1 1 1 1
          1 1 1 1 1 1
          1 1 1 1 1 1
          1 1 1 1 1 1
          1 1 1 1 1 1
          1 1 1 1 1 1
          1 1 1 1 1 1
          1 1 1 1 1 1
          1 1 1 1 1 1
          1 1 1 1 1 1
          1 1 1 1 1 1
          1 1 1 1 1 1
          1 1 1 1 1 1
          2 2 2 2 2 2
          2 2 2 2 2 2
          2 2 2 2 2 2
          2 2 2 2 2 2
          2 2 2 2 2 2
          2 2 2 2 2 2
          2 2 2 2 2 2
          2 2 2 2 2 2
          2 2 2 2 2 2
          2 2 2 2 2 2
          2 2 2 2 2 2
          2 2 2 2 2 2
          2 2 2 2 2 2
          2 2 2 2 2 2
          2 2 2 2 2 2
          2 2 2 2 2 2
          2 2 2 2 2 3
          3 3 3 3 3 3
          3 3 3 3 3 3
          3 3 3 3 3 3
          3 3 3 3 3 3
          3 3 3 3 3 3
          3 3 3 3 3 3
          3 3 3 3 3 3
          3 3 3 3 3 3
          3 3 3 3 3 3
          3 3 3 3 3 3
          3 3 3 3 3 3
          3 3 3 3 3 3
          3 3 3 3 3 3
          3 3 3
        </DataArray>
        <DataArray type="Int64" IdType="1" Name="vtkOriginalCellIds" format="ascii" RangeMin="520" RangeMax="135335">
          520 975 1836 1932 2098 3376
          3644 4178 5039 5192 5411 6072
          6696 7676 8618 8935 9690 11258
          12212 12338 12766 12842 13299 13918
          14854 15324 15950 15991 16257 16289
          16572 16930 17104 18026 18291 18771
          19030 19412 20099 20306 21006 21295
          22093 22562 22601 22629 22725 23431
          23562 23710 24402 26402 26751 26785
          26802 27381 27440 27573 27600 27861
          28174 28354 29093 29261 29886 30264
          30716 30898 31017 31473 31625 31676
          31715 32195 32254 32320 32428 32588
          32843 33290 33820 34400 35070 35357
          35479 36099 36291 37005 37140 37160
          37197 37869 38623 38677 39076 40861
          42392 43732 44198 44321 44687 44732
          45067 45283 46337 46935 47772 48574
          48706 48916 49106 49174 50187 50378
          50541 50724 51424 51847 52177 52846
          54868 55469 55564 55825 56090 56091
          56865 57191 57469 57661 57726 57991
          58250 60085 61415 61551 62037 62324
          63092 64707 64819 65497 65499 66206
          67103 67260 67467 67560 67936 68207
          69563 70156 70174 70457 70976 71131
          71311 71647 72638 73005 73009 73570
          73900 74090 74171 74385 74526 75396
          76045 76166 77438 77672 77988 78084
          78161 78263 78406 78448 78540 78686
          79661 80009 80765 81987 82145 82812
          82882 83831 85522 86220 86759 87284
          87925 89260 90466 90467 93090 93909
          94722 95217 95290 95854 96760 96843
          97566 98053 98846 99298 99545 99931
          100093 100618 101653 102032 103387 103400
          103790 104165 105077 105870 106107 108215
          108218 108537 109348 109715 110012 110348
          110599 110739 111625 111654 111682 111689
          111808 112143 112451 113305 113868 114381
          114605 114784 114794 115094 115816 116958
          117422 117497 117588 117853 118299 119386
          121216 121449 122738 122982 123281 123881
          124521 124548 124604 125261 126093 126705
          126821 127594 127715 128439 128468 128572
          128599 129581 131265 131604 132496 132677
          133770 133771 135335
        </DataArray>
      </CellData>
      <Points>
        <DataArray type="Float64" Name="Points" NumberOfComponents="3" format="ascii" RangeMin="5023.738702344915" RangeMax="18207.275396419926">
          4965.035032908142 2264.617872445472 -500 4239.623819534134 3176.757827165824 -500
          16106.88076660959 7183.896108400462 -500 5044.746611305187 3128.0676533446 -500
          15268.22134232392 7400.008845890813 -500 4621.861658340067 2088.00322509168 -2000
          14928.25639073351 7372.64062876512 -2000 15927.66025517862 7191.62096586634 -2000
          4424.939030918991 3337.98909972347 -2000 4910.799373610424 2801.438541614166 -2000
          4854.935623733791 2360.778028641292 -796.753607987 5027.030973577464 2490.707181355228 -800.695073783
          4824.372786902584 2654.83291518825 -796.168541165 15425.12484090007 7309.49984638848 -1557.25766899
          15433.53351780857 7550.393954079803 -1557.32988096 4538.908320929658 2735.994878495637 -792.453857678
          4585.770140659286 2442.022734212771 -792.840201573 15654.61183291513 7428.327763482946 -1558.16154905
          15688.90367429904 7219.800498002436 -1558.10101004 15541.85486219347 7039.013576270028 -1557.99751826
          4352.849201125719 2577.930554330891 -791.832178832 15827.97292406456 7578.191430109337 -1557.3110404
          16018.31309188429 7506.424857686015 -1554.75842912 5180.696022101536 2982.383337143748 -805.33603948
          15872.34349239403 6985.663840996416 -1556.87089382 16155.27732517789 7073.743355157525 -1551.81837832
          16231.8056830548 7376.564401063879 -1549.75744275 4930.847681726383 2947.193353553401 -798.35686337
          4755.434803995762 3141.428332389566 -794.978717806 4693.229255967135 2917.204831717634 -794.062341692
          5103.749889229026 2719.124790403613 -802.870636219 4443.519939434904 3048.430669923569 -791.950226558
          15922.53773134394 7313.225873204623 -1556.26057398 5027.030971339942 2490.707181337909 -950.695073724
          4824.372784553089 2654.832915040218 -946.168541122 15425.1248377579 7309.499845142172 -1707.25766897
          15433.53351446838 7550.393952604836 -1707.32988093 4538.908318000885 2735.994878539103 -942.453857657
          4585.770137630408 2442.02273425241 -942.840201545 15654.61182936576 7428.327761902474 -1708.16154905
          15688.90367092147 7219.80049652948 -1708.10101005 15541.85485910991 7039.013575056141 -1707.99751825
          15827.97292024998 7578.191428349804 -1707.31104043 15633.98146066355 7650.96960359091 -1708.17291011
          16018.31308777003 7506.424855697938 -1704.7584292 5180.696020758819 2982.383335988904 -955.336039434
          15872.34348895454 6985.66383940205 -1706.87089386 16155.27732113549 7073.743353097027 -1701.81837843
          4930.847679898498 2947.1933528748 -948.356863329 4755.434801783967 3141.428331779618 -944.978717771
          4693.229253610685 2917.204831456121 -944.062341661 5103.74988764245 2719.124789976916 -952.870636171
          4443.519936573133 3048.430670019949 -941.950226549 15922.53772754576 7313.225871418299 -1706.26057403
          15631.7521007776 7539.302538322157 -1198.25596637 15588.35129136617 6679.158504323897 -1357.64658739
          15643.63246283868 7770.830822385116 -1391.68963049 15461.62201165479 7001.667271148624 -864.896569104
          4428.166920219104 2704.268309130888 -640.791184835 16159.80318500536 6996.914529080244 -1435.92019943
          16228.21040849824 6991.495037977197 -1268.79449181 4917.943991933625 2031.751442316643 -674.967832164
          15567.06969935776 7253.434391288517 -1460.0730734 15971.78521805879 7641.868965532365 -1472.46452965
          15380.93286508278 7421.057931377661 -1028.68522669 5208.658525969562 2879.504681475467 -688.374547851
          16128.19486994485 7728.690277970626 -1301.23409517 16495.07276194134 7668.692740324926 -780.130497947
          16208.98098672995 7381.992356408715 -1095.99593586 4505.064439706515 3196.091156712393 -705.650182757
          15688.0062973088 6650.509640038711 -1190.50503072 15661.8857759854 7292.545500402554 -1324.2522263
          15714.04163206046 8081.51161518462 -1099.43174016 15822.97310683744 6826.312815714578 -689.795592256
          16067.62006794119 7457.920527276538 -1399.39500644 4797.658194608125 2496.648630791328 -719.654216036
          15254.79904381521 7369.514562716516 -1395.60362123 15552.46433066739 7585.777078286873 -1497.68147388
          15150.51319270264 7083.206093482272 -1141.38821205 15509.0312886289 6894.254235761543 -1496.35823024
          14941.1054517046 6549.430169952467 -1048.0009123 15710.81882013538 6838.963962032019 -1432.12004984
          4224.124366521088 2674.120262010353 -726.006039536 15932.37229415238 7138.95984656683 -1494.58962605
          15207.78413831427 7044.66428168552 -1334.71402278 15954.36992499789 6572.620671423286 -948.841834276
          15286.67888392361 6976.901421598507 -1428.45591986 15913.58235195537 7041.503906388943 -1376.22532424
          15092.63384389589 7504.08129636816 -1235.42220432 16034.86254689591 7715.727590828663 -907.924185739
          16180.45901368084 7480.715669306353 -1223.49432616 16397.69851362052 6909.665773308187 -852.65886241
          15619.59167894527 6905.716645096024 -1264.24351644 15303.30030318709 7256.449051501891 -1505.82923813
          15676.78607514222 7837.556830215353 -1451.01874439 15882.39247652947 7943.670198123707 -678.778784493
          15861.60797771494 7450.709907998588 -1510.73791507 15668.9110525658 7336.720245216547 -1400.74597627
          15423.96605542521 7569.822675340642 -1436.88438418 15247.75688072624 7649.314628467463 -789.476409662
          15735.63664181413 6982.5989554007 -1110.98954118 15942.68793236336 7073.363581380735 -1017.16449274
          15919.85778659095 7319.615563004485 -1446.02692966 16075.59095682218 7341.782373474422 -1337.86553015
          15940.48859618625 7732.449457341471 -1026.37991058 15836.59086224634 6820.897632889554 -1510.35098416
          4866.240980360214 2822.202778660051 -746.013094152 15629.08549224558 7218.108221210961 -1509.57674085
          15782.237990741 7524.326609718499 -1267.17083606 4454.168411227873 2468.905674602678 -746.463351659
          5214.327154006901 2420.596253121998 -761.343798459 16047.74609068493 7016.730328775448 -1196.55247288
          15522.081641043 7685.15804370933 -1633.17291005 16143.14836261805 7684.611120512637 -1625.42623808
          5113.119218155823 2650.776221203797 -878.01300148 4438.502098004604 2827.054569494013 -866.876904924
          15669.0919484872 7206.668016394629 -1633.10101004 4932.68393626033 3091.933201311761 -867.310283501
          16068.11177085479 6983.40062545337 -1635.81286343 4842.861556866336 2420.7882716663 -854.299500285
          15969.73666844154 7398.189049176358 -1651.19017377 4774.989413562239 2790.891114275366 -892.076153195
          16106.6442347609 7366.151948930444 -1602.07496845 15777.08261067931 6849.039018720965 -1607.73717514
          4626.315198216476 3116.441152568739 -894.967245743 15363.38775905862 7071.156494753336 -1653.12327022
          15737.8287806317 7489.791276979209 -1606.76737479 15404.35700540844 7430.187248715652 -1604.68064833
          15363.63305672098 7451.408446755489 -1660.38135891 15751.20511985038 6786.58795617967 -1659.96683382
          4895.692949037504 2788.187451423158 -843.782989232 4783.888260069965 2471.042768079352 -901.889718059
          5137.013252143095 3099.127467516122 -907.966421585 4655.474897541904 3020.152471776383 -841.433431038
          15653.6550295367 7540.609603105589 -1666.8269957 4607.109415101526 2622.068933021229 -837.64935387
          15462.0840697585 7029.215372842845 -1607.80299279 15878.83588765235 7144.556324795994 -1598.31555276
          4497.423854589558 2494.704663571886 -900.312088875 5090.193000199215 2517.755364875075 -841.318200864
          4680.142194418026 2247.799765940356 -1104.03815646 5180.62002465031 2840.372048415013 -1426.38393825
          4711.565458381153 3012.112225486221 -1058.73660069 5210.713403346416 3071.074390369278 -1225.76020641
          5103.910093366013 3315.942235574666 -1623.55757529 15890.16254027279 7160.562769208526 -1827.35651757
          4325.456363519454 2813.044200010701 -1239.70846503 4912.962995930453 2352.69126479524 -1772.92335146
          4331.983469469798 2765.452757463227 -1127.14468242 4975.552645516593 2809.061832523604 -1143.12621502
          4747.959624655766 3233.903210469751 -1325.46932153 15415.23591294995 7689.268269266133 -1797.6598104
          4285.754067726776 2922.58189451297 -1016.52850313 4651.712507124432 2557.29906919196 -1017.80914255
          4303.078058492369 3126.302364182408 -1437.45367321 4199.853775008943 3387.278009362184 -1810.86927332
          5220.643360624215 2443.350086703095 -1211.71553476 4204.603099199282 2796.366310848328 -1669.61260111
          4619.843173551247 2441.254518502499 -1187.11682689 5083.277609415716 2670.142739337042 -1304.19165914
          15446.42948966427 6774.292626715782 -1783.76426724 4282.706004601011 2751.798665379018 -1340.74135634
          5072.725087103064 2577.950964907845 -1009.66352762 4724.269344933862 2240.577313565794 -1366.45485389
          4308.751283514604 2459.953969418568 -995.285011106 4759.396877877594 2245.130263936703 -995.704891418
          4318.802333840854 3308.788765154862 -1565.26339506 15869.83475373037 7733.671023234994 -1768.27292918
          15561.77002257561 7305.163572556931 -1771.16490029 4863.779019897612 2609.252823507924 -1076.14901471
          15746.81498876912 6592.70557226214 -1903.03071132 4625.517328255863 2531.499860370648 -1487.01775615
          4907.328358698085 3403.617876850702 -1482.8225864 4768.523540012982 2922.213103096319 -1001.95196947
          4719.472838927672 3034.171181326662 -1201.65544467 5080.581172948033 3004.965604640774 -1089.13768028
          4439.836328388086 2718.112629755352 -1062.87981432 4072.909365349799 2432.266693825141 -1855.97606747
          5394.324870014113 2946.503029414001 -1532.18029669 4472.011585418446 3192.374940973824 -989.446448706
          4649.604395435363 3055.594646981211 -1122.43312308 5328.251249968101 2991.314982693548 -1864.61390066
          15804.13639802059 6826.230931620317 -1760.03319914 4483.819662547135 2360.183722401803 -1056.07107237
          4269.158182149175 2344.506364523959 -1231.0681833 4841.880390204386 2656.809356025562 -1242.06865008
          4735.662909395504 2744.623240825328 -1588.61237499 4995.773918247291 2850.454100091352 -1039.92636722
          16020.71003904426 7134.495278261501 -1754.14124927 4787.955751426627 2782.543484338947 -1370.59832268
          5283.356206276125 2240.903612790237 -1335.14721689 4515.784977979964 2489.68483577903 -1290.12356728
          <InformationKey name="L2_NORM_RANGE" location="vtkDataArray" length="2">
            <Value index="0">
              5023.7387023
            </Value>
            <Value index="1">
              18207.275396
            </Value>
          </InformationKey>
        </DataArray>
      </Points>
      <Cells>
        <DataArray type="Int64" IdType="1" Name="connectivity" format="ascii" RangeMin="0" RangeMax="191">
          60 87 71 103 28 31
          29 106 68 72 54 100
          55 71 87 97 29 31
          15 106 55 84 71 97
          88 92 71 108 31 82
          15 106 54 70 78 92
          64 72 68 100 56 71
          76 97 80 100 64 101
          56 97 74 103 57 64
          89 101 57 73 67 99
          56 71 97 103 62 94
          98 102 77 96 63 102
          54 70 92 111 17 14
          13 77 62 96 77 102
          62 81 79 83 56 74
          97 102 54 92 88 108
          58 65 61 75 71 60
          103 108 54 100 70 111
          89 101 64 104 10 11
          12 75 57 89 85 101
          13 17 77 107 60 71
          92 108 54 78 70 100
          54 68 100 111 62 81
          83 102 65 75 69 106
          62 86 81 97 59 83
          81 102 60 108 92 111
          31 69 82 106 26 32
          83 96 57 85 89 91
          2 73 4 95 62 83
          79 107 15 106 82 109
          59 81 87 102 54 92
          108 111 81 97 87 102
          62 97 81 102 15 16
          12 109 11 12 75 110
          62 98 97 102 19 105
          24 107 62 77 96 107
          75 82 69 106 24 83
          18 107 3 0 58 65
          77 17 96 107 32 18
          24 83 32 18 83 107
          62 96 83 107 64 100
          68 101 62 83 96 102
          25 83 24 105 68 64
          101 104 66 71 103 108
          24 105 83 107 15 12
          106 109 19 24 18 107
          74 97 87 103 87 97
          71 103 62 93 77 107
          54 108 90 111 82 106
          75 109 32 24 25 83
          62 79 93 107 83 105
          79 107 58 69 65 75
          87 97 74 102 32 83
          96 107 16 75 12 109
          18 96 17 107 12 106
          75 110 32 96 18 107
          32 17 18 96 13 18
          17 107 27 28 29 106
          13 19 18 107 12 30
          27 106 75 106 12 109
          12 29 15 106 32 21
          17 96 22 21 32 96
          3 0 1 58 27 29
          12 106 77 102 94 62
          116 118 46 120 40 128
          116 134 35 116 40 128
          35 128 40 134 33 114
          34 131 35 40 116 125
          46 116 40 129 41 40
          116 129 34 114 51 121
          116 120 40 134 41 116
          125 129 48 124 121 132
          114 121 117 132 18 126
          116 127 114 121 34 131
          115 121 37 124 18 127
          116 136 47 53 46 120
          52 115 37 124 112 116
          128 134 41 46 40 129
          116 112 126 134 41 116
          40 125 116 126 112 127
          48 34 51 121 39 35
          40 134 48 50 121 124
          131 135 121 138 37 121
          50 124 37 121 115 138
          116 126 18 137 53 40
          120 134 15 115 133 135
          119 135 131 138 35 41
          40 125 121 131 119 135
          17 126 18 127 116 18
          136 137 113 120 122 126
          115 121 135 138 117 121
          114 130 52 37 50 124
          119 121 114 131 23 27
          117 130 118 120 116 137
          114 121 119 130 11 119
          12 139 13 17 18 127
          119 130 121 135 130 133
          121 135 115 121 133 135
          53 39 40 134 116 126
          120 134 117 130 27 133
          119 130 12 139 37 131
          121 138 118 116 123 137
          120 126 116 137 22 122
          32 126 120 122 126 137
          21 22 32 126 10 12
          119 135 19 123 136 137
          19 13 18 136 121 124
          115 133 29 133 130 135
          12 130 119 135 19 136
          18 137 53 120 42 134
          31 29 15 133 34 121
          37 131 29 15 133 135
          121 130 117 133 42 53
          44 120 114 130 119 139
          29 130 12 135 24 123
          19 137 32 126 122 137
          17 32 18 126 37 38
          131 138 39 36 35 134
          32 18 126 137 53 42
          39 134 116 136 123 137
          10 16 12 135 50 34
          48 121 34 37 38 131
          21 32 17 126 24 19
          18 137 50 37 34 121
          29 27 130 133 29 12
          15 135 29 27 12 130
          16 20 15 135 32 25
          24 137 27 30 12 130
          15 12 16 135 18 32
          24 137 40 120 46 53
          46 120 40 116 30 139
          12 130 140 149 148 169
          37 153 152 173 148 149
          140 158 150 143 174 185
          146 150 174 185 144 157
          147 186 37 173 152 179
          153 162 34 165 42 53
          39 168 149 174 148 180
          140 169 148 176 148 169
          149 180 146 150 185 191
          150 159 143 185 149 158
          148 174 48 45 51 173
          37 153 38 164 43 39
          36 168 51 162 34 173
          34 162 153 173 148 176
          169 180 34 153 37 173
          37 34 38 153 150 159
          185 191 143 149 174 185
          152 173 153 176 9 8
          177 181 142 169 176 180
          156 158 149 185 163 141
          189 190 141 171 163 189
          152 142 173 176 6 7
          145 170 40 39 53 168
          42 167 53 168 150 161
          154 189 147 177 155 181
          5 9 177 181 44 53
          167 188 48 51 34 173
          34 37 50 173 141 154
          171 189 158 174 149 185
          141 171 154 172 159 150
          189 191 153 173 142 176
          142 175 169 180 166 172
          171 186 172 178 171 186
          142 153 169 187 169 175
          149 180 142 173 153 187
          161 189 150 191 142 169
          153 176 162 169 153 187
          41 40 46 182 162 153
          173 187 41 168 40 182
          36 39 35 168 53 168
          167 188 158 146 174 185
          158 184 146 185 53 40
          168 188 48 34 50 173
          153 176 169 183 159 189
          163 191 40 41 35 168
          46 182 40 188 142 169
          175 187 145 167 151 168
          50 49 48 173 40 182
          168 188 40 35 39 168
          163 189 161 191 167 168
          145 188 53 46 40 188
          145 168 160 182 168 182
          145 188 53 47 46 188
          179 50 37 173 179 37
          50 52 168 42 43 39
        </DataArray>
        <DataArray type="Int64" Name="offsets" format="ascii" RangeMin="4" RangeMax="1116">
          4 8 12 16 20 24
          28 32 36 40 44 48
          52 56 60 64 68 72
          76 80 84 88 92 96
          100 104 108 112 116 120
          124 128 132 136 140 144
          148 152 156 160 164 168
          172 176 180 184 188 192
          196 200 204 208 212 216
          220 224 228 232 236 240
          244 248 252 256 260 264
          268 272 276 280 284 288
          292 296 300 304 308 312
          316 320 324 328 332 336
          340 344 348 352 356 360
          364 368 372 376 380 384
          388 392 396 400 404 408
          412 416 420 424 428 432
          436 440 444 448 452 456
          460 464 468 472 476 480
          484 488 492 496 500 504
          508 512 516 520 524 528
          532 536 540 544 548 552
          556 560 564 568 572 576
          580 584 588 592 596 600
          604 608 612 616 620 624
          628 632 636 640 644 648
          652 656 660 664 668 672
          676 680 684 688 692 696
          700 704 708 712 716 720
          724 728 732 736 740 744
          748 752 756 760 764 768
          772 776 780 784 788 792
          796 800 804 808 812 816
          820 824 828 832 836 840
          844 848 852 856 860 864
          868 872 876 880 884 888
          892 896 900 904 908 912
          916 920 924 928 932 936
          940 944 948 952 956 960
          964 968 972 976 980 984
          988 992 996 1000 1004 1008
          1012 1016 1020 1024 1028 1032
          1036 1040 1044 1048 1052 1056
          1060 1064 1068 1072 1076 1080
          1084 1088 1092 1096 1100 1104
          1108 1112 1116
        </DataArray>
        <DataArray type="UInt8" Name="types" format="ascii" RangeMin="10" RangeMax="10">
          10 10 10 10 10 10
          10 10 10 10 10 10
          10 10 10 10 10 10
          10 10 10 10 10 10
          10 10 10 10 10 10
          10 10 10 10 10 10
          10 10 10 10 10 10
          10 10 10 10 10 10
          10 10 10 10 10 10
          10 10 10 10 10 10
          10 10 10 10 10 10
          10 10 10 10 10 10
          10 10 10 10 10 10
          10 10 10 10 10 10
          10 10 10 10 10 10
          10 10 10 10 10 10
          10 10 10 10 10 10
          10 10 10 10 10 10
          10 10 10 10 10 10
          10 10 10 10 10 10
          10 10 10 10 10 10
          10 10 10 10 10 10
          10 10 10 10 10 10
          10 10 10 10 10 10
          10 10 10 10 10 10
          10 10 10 10 10 10
          10 10 10 10 10 10
          10 10 10 10 10 10
          10 10 10 10 10 10
          10 10 10 10 10 10
          10 10 10 10 10 10
          10 10 10 10 10 10
          10 10 10 10 10 10
          10 10 10 10 10 10
          10 10 10 10 10 10
          10 10 10 10 10 10
          10 10 10 10 10 10
          10 10 10 10 10 10
          10 10 10 10 10 10
          10 10 10 10 10 10
          10 10 10 10 10 10
          10 10 10 10 10 10
          10 10 10 10 10 10
          10 10 10 10 10 10
          10 10 10 10 10 10
          10 10 10 10 10 10
          10 10 10
        </DataArray>
      </Cells>
    </Piece>
  </UnstructuredGrid>
</VTKFile>
