<?xml version="1.0"?>
<VTKFile type="UnstructuredGrid" version="0.1" byte_order="LittleEndian" header_type="UInt32" compressor="vtkZLibDataCompressor">
  <UnstructuredGrid>
    <Piece NumberOfPoints="199" NumberOfCells="304">
      <PointData>
      </PointData>
      <CellData Scalars="attribute">
        <DataArray type="Int32" Name="attribute" format="ascii" RangeMin="1" RangeMax="3">
          1 1 1 1 1 1
          1 1 1 1 1 1
          1 1 1 1 1 1
          1 1 1 1 1 1
          1 1 1 1 1 1
          1 1 1 1 1 1
          1 1 1 1 1 1
          1 1 1 1 1 1
          1 1 1 1 1 1
          1 1 1 1 1 1
          1 1 1 1 1 1
          1 1 1 1 1 1
          1 1 1 1 1 1
          1 1 1 1 1 1
          1 1 1 1 1 1
          1 1 1 1 1 1
          1 1 1 1 1 1
          1 1 2 2 2 2
          2 2 2 2 2 2
          2 2 2 2 2 2
          2 2 2 2 2 2
          2 2 2 2 2 2
          2 2 2 2 2 2
          2 2 2 2 2 2
          2 2 2 2 2 2
          2 2 2 2 2 2
          2 2 2 2 2 2
          2 2 2 2 2 2
          2 2 2 2 2 2
          2 2 2 2 2 2
          2 2 2 2 2 2
          2 2 2 2 2 2
          2 2 2 2 2 2
          2 2 2 2 2 2
          2 2 2 2 2 2
          3 3 3 3 3 3
          3 3 3 3 3 3
          3 3 3 3 3 3
          3 3 3 3 3 3
          3 3 3 3 3 3
          3 3 3 3 3 3
          3 3 3 3 3 3
          3 3 3 3 3 3
          3 3 3 3 3 3
          3 3 3 3 3 3
          3 3 3 3 3 3
          3 3 3 3 3 3
          3 3 3 3 3 3
          3 3 3 3 3 3
          3 3 3 3 3 3
          3 3 3 3
        </DataArray>
        <DataArray type="Int64" IdType="1" Name="vtkOriginalCellIds" format="ascii" RangeMin="520" RangeMax="135335">
          520 791 1836 1932 3376 3644
          4803 5039 5192 5246 5411 5430
          5457 6072 6296 6696 7346 7676
          7798 8227 8618 8935 9690 11258
          11522 12212 12338 12766 12842 13299
          13918 14737 15324 15950 15991 16289
          16572 16818 16930 17104 18006 18026
          18291 19030 19412 20093 20099 21006
          21295 22046 22093 22562 22629 22681
          22725 23205 23431 23562 25652 26402
          26672 26751 26785 27262 27381 27573
          27600 27861 28174 28354 29093 29164
          29261 29886 30264 30364 30716 31017
          31473 31625 31676 31715 31809 32225
          32254 32320 32428 32843 33290 34400
          34610 35074 35357 35479 36099 36410
          37005 37038 37869 38563 38623 40861
          41504 41505 42392 42631 43001 43732
          44198 44321 44688 44732 45067 45283
          45505 46935 47772 48916 50187 50373
          50378 50724 51326 51424 51847 52177
          52846 53359 54878 54961 55469 56865
          57191 57535 57726 58250 58645 60025
          60085 60477 61275 61415 61639 61951
          63405 63476 64415 64819 64884 64994
          65688 66195 66206 67560 67936 68220
          68741 69025 69188 69372 70174 70185
          70206 70457 70976 71131 71311 71357
          72638 73005 73677 73800 74087 74090
          74171 74931 75181 75248 76166 76559
          76990 77988 78045 78084 78161 78303
          78406 78448 78540 78686 79432 80122
          80465 81843 81987 82145 83476 83881
          84294 84551 86307 86759 87869 87962
          88153 89260 89309 90426 90466 90467
          93414 93704 94204 94262 94423 94680
          94984 95010 95082 95456 95511 95742
          95789 96217 96316 96809 97554 97862
          97877 98047 98053 99228 100741 101124
          101556 102039 102753 102868 103387 104732
          105396 105731 105884 106104 107035 107201
          107607 108063 109278 109478 110309 110370
          110739 111625 111654 111896 112143 112153
          112517 113218 113359 113574 113912 114181
          114872 114960 115373 115757 116347 119531
          119979 120367 121216 121700 122251 122371
          122738 122982 123281 124548 125654 126070
          126705 126821 126851 127294 127715 128193
          128468 128572 128901 129276 129303 129581
          130369 130598 131265 131604 132496 132677
          133714 133715 134087 135335
        </DataArray>
      </CellData>
      <Points>
        <DataArray type="Float64" Name="Points" NumberOfComponents="3" format="ascii" RangeMin="6372.196709552231" RangeMax="18207.275396419926">
          6414.460252962066 1444.205182200484 -500 16106.88076660959 7183.896108400462 -500
          6964.846365351352 2124.342194884604 -500 15268.22134232392 7400.008845890813 -500
          6047.922558528833 1526.479404759503 -2000 6947.451697584778 1073.778241400413 -2000
          14928.25639073351 7372.64062876512 -2000 15927.66025517862 7191.62096586634 -2000
          7017.285954144765 2045.79697312343 -2000 6296.9909852321 2221.043479928546 -2000
          6419.019235960423 1476.725674451538 -871.811885248 6351.88491047623 1895.647306200925 -867.272606624
          15425.12484090007 7309.49984638848 -1557.25766899 15433.53351780857 7550.393954079803 -1557.32988096
          15654.61183291513 7428.327763482946 -1558.16154905 15688.90367429904 7219.800498002436 -1558.10101004
          15541.85486219347 7039.013576270028 -1557.99751826 7085.435691758681 1919.536678805666 -920.605071616
          6942.808439844563 1718.616662903383 -909.657731759 15827.97292406456 7578.191430109337 -1557.3110404
          16018.31309188429 7506.424857686015 -1554.75842912 15872.34349239403 6985.663840996416 -1556.87089382
          16155.27732517789 7073.743355157525 -1551.81837832 16231.8056830548 7376.564401063879 -1549.75744275
          7107.83392674774 1512.226906748931 -922.345885261 6838.631663958862 1987.228371859431 -901.820567586
          6727.610494343977 1727.499175183294 -893.62720865 6840.865123573634 1447.020328325743 -901.987111805
          6519.295165043368 1725.882008942589 -878.735593292 6598.778845238688 2018.697681279134 -884.339631809
          6608.247722237624 1470.500082793522 -885.013808666 15922.53773134394 7313.225873204623 -1556.26057398
          6324.278651276398 1687.02599639361 -1015.42933171 6419.019235103957 1476.725675339948 -1021.81188519
          6351.884909993321 1895.647307309604 -1017.27260659 15425.1248377579 7309.499845142172 -1707.25766897
          15433.53351446838 7550.393952604836 -1707.32988093 15654.61182936576 7428.327761902474 -1708.16154905
          15688.90367092147 7219.80049652948 -1708.10101005 15541.85485910991 7039.013575056141 -1707.99751825
          7106.284701177496 1715.727156350586 -1072.2252949 7085.435691033348 1919.536678901119 -1070.60507156
          6942.808439097741 1718.616663217326 -1059.6577317 15827.97292024998 7578.191428349804 -1707.31104043
          15633.98146066355 7650.96960359091 -1708.17291011 16018.31308777003 7506.424855697938 -1704.7584292
          15872.34348895454 6985.66383940205 -1706.87089386 16155.27732113549 7073.743353097027 -1701.81837843
          7107.833926003175 1512.226906640891 -1072.3458852 6838.631663273449 1987.228372583925 -1051.82056754
          6727.61049359255 1727.499175804629 -1043.6272086 6840.865122969956 1447.020328704928 -1051.98711176
          6519.295164379726 1725.882009822505 -1028.73559325 6598.778844944249 2018.697682348946 -1034.33963179
          6608.247721265633 1470.500083545408 -1035.0138086 15922.53772754576 7313.225871418299 -1706.26057403
          15631.7521007776 7539.302538322157 -1198.25596637 15588.35129136617 6679.158504323897 -1357.64658739
          15643.63246283868 7770.830822385116 -1391.68963049 6835.555088906219 1550.055426963183 -690.093616723
          15461.62201165479 7001.667271148624 -864.896569104 7330.604417249119 1881.808576096243 -796.452357741
          16159.80318500536 6996.914529080244 -1435.92019943 16228.21040849824 6991.495037977197 -1268.79449181
          6557.238623479765 2286.764955752337 -744.191950809 15567.06969935776 7253.434391288517 -1460.0730734
          6144.237572425752 1517.472341711509 -741.965801746 15971.78521805879 7641.868965532365 -1472.46452965
          6841.92243156029 1339.022698665665 -794.17099006 15380.93286508278 7421.057931377661 -1028.68522669
          16128.19486994485 7728.690277970626 -1301.23409517 16495.07276194134 7668.692740324926 -780.130497947
          6729.475085619836 1892.312536545452 -803.607191001 16208.98098672995 7381.992356408715 -1095.99593586
          15688.0062973088 6650.509640038711 -1190.50503072 15661.8857759854 7292.545500402554 -1324.2522263
          15714.04163206046 8081.51161518462 -1099.43174016 15822.97310683744 6826.312815714578 -689.795592256
          16067.62006794119 7457.920527276538 -1399.39500644 15254.79904381521 7369.514562716516 -1395.60362123
          15552.46433066739 7585.777078286873 -1497.68147388 15150.51319270264 7083.206093482272 -1141.38821205
          7150.867595544617 2223.409156595008 -849.363849666 6377.113885982238 1630.112836719984 -800.511677503
          15509.0312886289 6894.254235761543 -1496.35823024 14941.1054517046 6549.430169952467 -1048.0009123
          15710.81882013538 6838.963962032019 -1432.12004984 15932.37229415238 7138.95984656683 -1494.58962605
          7024.141135999898 1611.777623856522 -843.189075135 15207.78413831427 7044.66428168552 -1334.71402278
          15954.36992499789 6572.620671423286 -948.841834276 15286.67888392361 6976.901421598507 -1428.45591986
          15913.58235195537 7041.503906388943 -1376.22532424 15092.63384389589 7504.08129636816 -1235.42220432
          7018.805623653705 2358.171719639931 -645.579568269 16034.86254689591 7715.727590828663 -907.924185739
          16180.45901368084 7480.715669306353 -1223.49432616 16397.69851362052 6909.665773308187 -852.65886241
          15619.59167894527 6905.716645096024 -1264.24351644 15303.30030318709 7256.449051501891 -1505.82923813
          6271.646307275691 1954.356463044872 -667.061338258 15676.78607514222 7837.556830215353 -1451.01874439
          15882.39247652947 7943.670198123707 -678.778784493 6654.972747517825 1577.577030804026 -833.933798399
          15861.60797771494 7450.709907998588 -1510.73791507 15668.9110525658 7336.720245216547 -1400.74597627
          7162.079473256647 1808.416741296722 -876.161046991 15423.96605542521 7569.822675340642 -1436.88438418
          15247.75688072624 7649.314628467463 -789.476409662 15735.63664181413 6982.5989554007 -1110.98954118
          15942.68793236336 7073.363581380735 -1017.16449274 15919.85778659095 7319.615563004485 -1446.02692966
          16075.59095682218 7341.782373474422 -1337.86553015 15940.48859618625 7732.449457341471 -1026.37991058
          15836.59086224634 6820.897632889554 -1510.35098416 6670.383489030558 923.5914071080151 -614.449010889
          15629.08549224558 7218.108221210961 -1509.57674085 6947.743618676772 2263.693278239357 -791.404729254
          15782.237990741 7524.326609718499 -1267.17083606 16047.74609068493 7016.730328775448 -1196.55247288
          15522.081641043 7685.15804370933 -1633.17291005 16143.14836261805 7684.611120512637 -1625.42623808
          15669.0919484872 7206.668016394629 -1633.10101004 6565.192092788222 1585.329346831217 -956.540811847
          7227.899110159976 1733.786103278724 -1006.51118622 6952.54312852688 2082.922739102815 -985.569589126
          6942.905968981767 1424.259148672689 -983.420866922 16068.11177085479 6983.40062545337 -1635.81286343
          15969.73666844154 7398.189049176358 -1651.19017377 6879.998298306585 1757.519605207086 -964.233421532
          16106.6442347609 7366.151948930444 -1602.07496845 15777.08261067931 6849.039018720965 -1607.73717514
          15363.38775905862 7071.156494753336 -1653.12327022 6572.750756365067 1914.528398107353 -975.923615811
          15737.8287806317 7489.791276979209 -1606.76737479 15404.35700540844 7430.187248715652 -1604.68064833
          15363.63305672098 7451.408446755489 -1660.38135891 15751.20511985038 6786.58795617967 -1659.96683382
          7134.283815921423 1437.692890622212 -1024.01833236 15653.6550295367 7540.609603105589 -1666.8269957
          7127.751025516122 2014.74781645143 -1024.84737532 15462.0840697585 7029.215372842845 -1607.80299279
          6404.251001458512 1698.442238673687 -921.210844444 6855.17357336745 2292.846207078567 -954.286395752
          6926.26140494414 1801.87180581976 -1009.72382129 6571.723837631665 1953.762127178193 -929.712959777
          6711.321889452413 1602.813537737329 -996.705076484 6472.884946181465 1413.180517726189 -923.151477367
          15878.83588765235 7144.556324795994 -1598.31555276 6318.653686513984 1665.10771364739 -973.255436582
          7209.028698966282 1522.94105339638 -977.549134224 6815.085330086868 2640.746191513711 -1500.00825858
          6405.978124025025 1809.25863360165 -1247.45762526 6068.544611816093 1434.24286217427 -1452.06513568
          6140.716111334389 1799.446215848901 -1716.31608807 6719.281951138892 1613.196706236866 -1154.74706156
          6896.686222101682 2182.396554935935 -1366.45940414 15890.16254027279 7160.562769208526 -1827.35651757
          7216.836689707766 1381.0648062701 -1169.05745533 6946.447891241956 1510.990701369663 -1293.82305236
          6678.459690029217 1206.820825478298 -1593.41433653 15415.23591294995 7689.268269266133 -1797.6598104
          7252.406911739445 2226.004781416869 -1692.92422277 6130.294398272864 1919.989453119072 -1358.09135085
          6881.425239177091 1475.328836214328 -1406.75750532 6944.452908297177 2051.195507667388 -1140.12984529
          7325.852342027493 2105.321119781407 -1463.34405688 6512.08434843468 1896.350933679797 -1102.54951022
          7031.572727504059 1774.693679319474 -1213.52003938 6900.09968913371 1166.638350572197 -1131.07251892
          7181.702458615456 967.3715626867134 -1725.43287628 15446.42948966427 6774.292626715782 -1783.76426724
          6833.165538098204 2146.90887196728 -1269.79940945 6961.133823287662 1984.991270176379 -1574.90784392
          6278.009316875565 2160.268501707647 -1463.91000643 6375.481012012487 1444.193265154005 -1318.26096394
          6416.155902527928 1938.412327275521 -1168.88275385 6915.097771970057 1755.535062391683 -1832.77813737
          15869.83475373037 7733.671023234994 -1768.27292918 15561.77002257561 7305.163572556931 -1771.16490029
          15746.81498876912 6592.70557226214 -1903.03071132 7038.123594209419 1614.849124078946 -1125.3249288
          6821.855069844492 2242.925960274513 -1201.28226463 6897.958632811826 1367.633460976954 -1211.95736679
          7012.453443632098 1450.78301709367 -1508.91300888 6679.579727551853 1287.729350424415 -1091.79629531
          7337.705517591025 1885.842954230408 -1369.05710949 6391.411031127648 1578.65837112766 -1068.94433694
          7370.613126134303 1639.495288861858 -1295.00453171 6734.914875700279 1628.506195531478 -1099.47810844
          6252.52632653283 1708.733619249893 -1548.53817627 6650.453252625375 1856.883410116217 -1323.8429703
          15804.13639802059 6826.230931620317 -1760.03319914 6785.394652048754 2107.240875565308 -1097.40244726
          7332.999234005124 1567.320253544101 -1646.08221763 16020.71003904426 7134.495278261501 -1754.14124927
          6491.811938440174 1576.943974336548 -1202.10716548 6399.577154464807 1627.881314403 -1132.46160907
          6352.375655789807 1381.079828154743 -1252.38927247
          <InformationKey name="L2_NORM_RANGE" location="vtkDataArray" length="2">
            <Value index="0">
              6372.1967096
            </Value>
            <Value index="1">
              18207.275396
            </Value>
          </InformationKey>
        </DataArray>
      </Points>
      <Cells>
        <DataArray type="Int64" IdType="1" Name="connectivity" format="ascii" RangeMin="0" RangeMax="198">
          63 92 75 112 25 29
          26 72 73 76 56 109
          57 75 92 105 57 89
          75 105 93 98 75 118
          59 61 72 117 56 74
          81 98 69 76 73 109
          25 82 72 106 58 75
          79 105 26 29 28 103
          25 72 26 88 85 109
          69 110 59 64 72 83
          58 105 78 112 25 72
          88 106 60 69 95 110
          25 88 26 106 59 72
          64 117 60 77 71 108
          58 75 105 112 65 101
          107 111 80 104 67 111
          59 61 68 72 56 74
          98 119 14 13 12 80
          65 104 80 111 65 86
          84 87 58 78 105 111
          56 98 93 118 59 72
          68 83 75 63 112 118
          56 109 74 119 95 110
          69 113 60 95 90 110
          12 14 80 116 26 72
          29 103 63 75 98 118
          56 81 74 109 2 94
          59 100 56 73 109 119
          65 86 87 111 65 91
          86 105 62 87 86 111
          59 68 66 83 63 118
          98 119 23 31 87 104
          60 90 95 97 27 24
          18 88 1 77 3 102
          65 87 84 116 62 86
          92 111 26 88 72 103
          56 98 118 119 68 72
          61 88 86 105 92 111
          65 105 86 111 0 2
          59 100 65 107 105 111
          27 26 30 88 16 114
          21 116 65 80 104 116
          0 59 2 115 21 87
          15 116 80 14 104 116
          31 15 21 87 31 15
          87 116 65 104 87 116
          69 109 73 110 65 87
          104 111 18 25 26 106
          22 87 21 114 73 69
          110 113 70 75 112 118
          11 72 83 103 21 114
          87 116 16 21 15 116
          78 105 92 112 92 105
          75 112 65 99 80 116
          56 118 96 119 30 88
          26 103 27 18 26 88
          31 21 22 87 65 84
          99 116 87 114 84 116
          92 105 78 111 31 87
          104 116 15 104 14 116
          68 83 72 103 18 26
          88 106 31 104 15 116
          31 14 15 104 12 15
          14 116 68 72 88 103
          12 16 15 116 28 30
          26 103 31 19 14 104
          30 28 10 103 20 19
          31 104 80 111 101 65
          103 29 11 72 103 11
          29 28 122 127 46 128
          25 143 129 145 27 126
          123 129 38 136 122 139
          35 122 38 136 35 136
          38 139 27 24 126 129
          35 38 122 132 46 122
          38 137 39 38 122 137
          125 133 129 145 122 128
          38 139 39 122 132 137
          15 134 122 135 15 135
          122 141 27 123 18 129
          47 55 46 128 120 122
          136 139 124 129 125 144
          39 46 38 137 122 120
          134 139 39 122 38 132
          122 134 120 135 27 18
          24 129 26 18 123 129
          26 129 123 145 37 35
          38 139 122 134 15 148
          55 38 128 139 26 18
          129 145 35 39 38 132
          14 134 15 135 53 125
          133 144 25 129 18 145
          122 15 141 148 126 144
          138 146 52 133 32 146
          121 128 130 134 138 144
          51 146 27 26 18 123
          17 18 25 129 52 144
          133 146 49 125 53 144
          127 128 122 148 53 133
          52 144 126 144 129 150
          27 26 123 147 26 142
          123 147 12 14 15 135
          55 37 38 139 122 134
          128 139 123 142 26 145
          42 51 138 144 123 129
          126 146 123 146 33 149
          129 133 125 144 127 122
          131 148 49 140 125 144
          129 133 123 145 128 134
          122 148 20 130 31 134
          128 130 134 148 19 20
          31 134 27 30 26 147
          16 131 141 148 16 12
          15 141 30 142 26 147
          51 144 50 146 123 133
          142 145 16 141 15 148
          55 128 43 139 133 144
          129 146 26 25 18 145
          53 52 50 144 43 55
          45 128 133 146 123 149
          42 50 51 144 21 131
          16 148 50 144 52 146
          31 134 130 148 14 31
          15 134 129 144 126 146
          37 36 35 139 31 15
          134 148 55 43 37 139
          122 141 131 148 42 140
          49 144 49 42 41 140
          123 133 129 146 52 53
          34 133 19 31 14 134
          21 16 15 148 51 50
          54 146 49 53 50 144
          30 28 26 142 28 26
          142 145 28 29 26 145
          31 22 21 148 42 49
          50 144 54 52 33 146
          25 26 29 145 15 31
          21 148 54 50 52 146
          143 17 25 129 38 128
          46 55 46 128 38 122
          156 166 164 174 163 164
          156 191 176 182 168 196
          166 164 174 184 156 164
          163 174 152 183 168 196
          165 168 155 182 165 155
          176 182 152 159 168 183
          152 168 182 196 152 182
          176 196 152 183 196 198
          168 176 155 182 40 41
          181 189 40 42 41 189
          153 174 164 184 155 176
          168 196 163 175 164 191
          152 168 159 172 152 159
          183 198 43 55 37 179
          181 189 41 193 152 168
          172 182 160 154 173 194
          165 181 41 193 155 168
          165 181 162 173 154 194
          160 173 154 190 44 37
          36 179 159 186 164 191
          154 177 162 194 155 167
          165 176 41 189 42 193
          165 189 181 193 159 164
          175 191 155 168 158 183
          165 167 155 189 154 170
          177 194 152 172 159 191
          167 189 165 193 42 189
          49 193 41 42 49 193
          6 7 157 180 38 37
          55 179 43 178 55 179
          159 152 175 198 45 55
          178 195 52 53 50 167
          155 185 189 197 50 52
          167 187 169 181 155 189
          50 167 49 189 49 189
          167 193 164 186 156 191
          165 155 181 189 53 49
          50 167 50 49 42 189
          152 159 175 191 168 183
          155 196 50 187 167 189
          40 48 42 189 54 187
          50 189 39 38 46 192
          40 181 48 189 167 176
          155 197 54 50 51 189
          39 179 38 192 36 37
          35 179 55 179 178 195
          55 38 179 195 4 8
          9 177 167 189 187 197
          38 39 35 179 46 192
          38 195 155 189 167 197
          173 184 160 194 157 178
          161 179 42 48 51 189
          38 192 179 195 38 35
          37 179 176 196 155 197
          173 160 184 190 4 5
          8 177 178 179 157 195
          50 54 52 187 51 50
          42 189 55 46 38 195
          157 179 171 192 179 192
          157 195 55 47 46 195
          190 151 184 173 190 184
          151 174 172 191 188 159
          179 43 44 37
        </DataArray>
        <DataArray type="Int64" Name="offsets" format="ascii" RangeMin="4" RangeMax="1216">
          4 8 12 16 20 24
          28 32 36 40 44 48
          52 56 60 64 68 72
          76 80 84 88 92 96
          100 104 108 112 116 120
          124 128 132 136 140 144
          148 152 156 160 164 168
          172 176 180 184 188 192
          196 200 204 208 212 216
          220 224 228 232 236 240
          244 248 252 256 260 264
          268 272 276 280 284 288
          292 296 300 304 308 312
          316 320 324 328 332 336
          340 344 348 352 356 360
          364 368 372 376 380 384
          388 392 396 400 404 408
          412 416 420 424 428 432
          436 440 444 448 452 456
          460 464 468 472 476 480
          484 488 492 496 500 504
          508 512 516 520 524 528
          532 536 540 544 548 552
          556 560 564 568 572 576
          580 584 588 592 596 600
          604 608 612 616 620 624
          628 632 636 640 644 648
          652 656 660 664 668 672
          676 680 684 688 692 696
          700 704 708 712 716 720
          724 728 732 736 740 744
          748 752 756 760 764 768
          772 776 780 784 788 792
          796 800 804 808 812 816
          820 824 828 832 836 840
          844 848 852 856 860 864
          868 872 876 880 884 888
          892 896 900 904 908 912
          916 920 924 928 932 936
          940 944 948 952 956 960
          964 968 972 976 980 984
          988 992 996 1000 1004 1008
          1012 1016 1020 1024 1028 1032
          1036 1040 1044 1048 1052 1056
          1060 1064 1068 1072 1076 1080
          1084 1088 1092 1096 1100 1104
          1108 1112 1116 1120 1124 1128
          1132 1136 1140 1144 1148 1152
          1156 1160 1164 1168 1172 1176
          1180 1184 1188 1192 1196 1200
          1204 1208 1212 1216
        </DataArray>
        <DataArray type="UInt8" Name="types" format="ascii" RangeMin="10" RangeMax="10">
          10 10 10 10 10 10
          10 10 10 10 10 10
          10 10 10 10 10 10
          10 10 10 10 10 10
          10 10 10 10 10 10
          10 10 10 10 10 10
          10 10 10 10 10 10
          10 10 10 10 10 10
          10 10 10 10 10 10
          10 10 10 10 10 10
          10 10 10 10 10 10
          10 10 10 10 10 10
          10 10 10 10 10 10
          10 10 10 10 10 10
          10 10 10 10 10 10
          10 10 10 10 10 10
          10 10 10 10 10 10
          10 10 10 10 10 10
          10 10 10 10 10 10
          10 10 10 10 10 10
          10 10 10 10 10 10
          10 10 10 10 10 10
          10 10 10 10 10 10
          10 10 10 10 10 10
          10 10 10 10 10 10
          10 10 10 10 10 10
          10 10 10 10 10 10
          10 10 10 10 10 10
          10 10 10 10 10 10
          10 10 10 10 10 10
          10 10 10 10 10 10
          10 10 10 10 10 10
          10 10 10 10 10 10
          10 10 10 10 10 10
          10 10 10 10 10 10
          10 10 10 10 10 10
          10 10 10 10 10 10
          10 10 10 10 10 10
          10 10 10 10 10 10
          10 10 10 10 10 10
          10 10 10 10 10 10
          10 10 10 10 10 10
          10 10 10 10 10 10
          10 10 10 10 10 10
          10 10 10 10 10 10
          10 10 10 10 10 10
          10 10 10 10 10 10
          10 10 10 10 10 10
          10 10 10 10 10 10
          10 10 10 10 10 10
          10 10 10 10
        </DataArray>
      </Cells>
    </Piece>
  </UnstructuredGrid>
</VTKFile>
