<?xml version="1.0"?>
<VTKFile type="UnstructuredGrid" version="0.1" byte_order="LittleEndian" header_type="UInt32" compressor="vtkZLibDataCompressor">
  <UnstructuredGrid>
    <FieldData>
      <DataArray type="Float64" Name="TIME" NumberOfTuples="1" format="ascii" RangeMin="0.047000000000000035" RangeMax="0.047000000000000035">
        0.047000000000000035
      </DataArray>
    </FieldData>
    <Piece NumberOfPoints="24" NumberOfCells="11">
      <PointData>
      </PointData>
      <CellData>
        <DataArray type="Float64" Name="fracturePorosity_referencePorosity" format="ascii" RangeMin="1" RangeMax="1">
          1 1 1 1 1 1
          1 1 1 1 1
        </DataArray>
        <DataArray type="Float64" Name="fracturePorosity_initialPorosity" format="ascii" RangeMin="1" RangeMax="1">
          1 1 1 1 1 1
          1 1 1 1 1
        </DataArray>
        <DataArray type="Float64" Name="fracturePorosity_porosity" format="ascii" RangeMin="1" RangeMax="1">
          1 1 1 1 1 1
          1 1 1 1 1
        </DataArray>
        <DataArray type="Float64" Name="water_dEnthalpy" format="ascii" RangeMin="0" RangeMax="0">
          0 0 0 0 0 0
          0 0 0 0 0
        </DataArray>
        <DataArray type="Float64" Name="water_enthalpy" format="ascii" RangeMin="0" RangeMax="0">
          0 0 0 0 0 0
          0 0 0 0 0
        </DataArray>
        <DataArray type="Float64" Name="water_dInternalEnergy" format="ascii" RangeMin="0" RangeMax="0">
          0 0 0 0 0 0
          0 0 0 0 0
        </DataArray>
        <DataArray type="Float64" Name="water_internalEnergy" format="ascii" RangeMin="0" RangeMax="0">
          0 0 0 0 0 0
          0 0 0 0 0
        </DataArray>
        <DataArray type="Float64" Name="water_viscosity" format="ascii" RangeMin="0.001" RangeMax="0.001">
          0.001 0.001 0.001 0.001 0.001 0.001
          0.001 0.001 0.001 0.001 0.001
        </DataArray>
        <DataArray type="Float64" Name="fracturePerm_permeability" NumberOfComponents="3" format="ascii" RangeMin="0.000016771625068438692" RangeMax="0.00002321802764179437">
          0.000009683102248010555 0.000009683102248010555 0.000009683102248010555 0.000010028083627459288 0.000010028083627459288 0.000010028083627459288
          0.000010379105213975245 0.000010379105213975245 0.000010379105213975245 0.000010736168674598504 0.000010736168674598504 0.000010736168674598504
          0.000011099275719633999 0.000011099275719633999 0.000011099275719633999 0.000011468428104152896 0.000011468428104152896 0.000011468428104152896
          0.000011843627626596102 0.000011843627626596102 0.000011843627626596102 0.000012224876127381727 0.000012224876127381727 0.000012224876127381727
          0.000012612175487580206 0.000012612175487580206 0.000012612175487580206 0.000013005527627708074 0.000013005527627708074 0.000013005527627708074
          0.000013404934509042152 0.000013404934509042152 0.000013404934509042152
          <InformationKey name="L2_NORM_RANGE" location="vtkDataArray" length="2">
            <Value index="0">
              1.6771625068e-05
            </Value>
            <Value index="1">
              2.3218027642e-05
            </Value>
          </InformationKey>
        </DataArray>
        <DataArray type="Float64" Name="water_dDensity" format="ascii" RangeMin="5e-9" RangeMax="5e-9">
          5e-9 5e-9 5e-9 5e-9 5e-9 5e-9
          5e-9 5e-9 5e-9 5e-9 5e-9
        </DataArray>
        <DataArray type="Float64" Name="water_dViscosity" format="ascii" RangeMin="0" RangeMax="0">
          0 0 0 0 0 0
          0 0 0 0 0
        </DataArray>
        <DataArray type="Float64" Name="water_density" format="ascii" RangeMin="1000.0500000000001" RangeMax="1000.1453103">
          1000.0500000000001 1000.0610187208301 1000.0716616425998 1000.0819477122125 1000.0918946222979 1000.1015189134786
          1000.1108360667064 1000.1198605868509 1000.128606078493 1000.1370853147627 1000.1453103
        </DataArray>
        <DataArray type="Int64" Name="SinglePhaseFlow_singlePhaseVariables_dofIndex" format="ascii" RangeMin="0" RangeMax="10">
          0 1 2 3 4 5
          6 7 8 9 10
        </DataArray>
        <DataArray type="Float64" Name="mass" format="ascii" RangeMin="0.10000500000000001" RangeMax="0.10001453103">
          0.10000500000000001 0.10000610187208302 0.10000716616425999 0.10000819477122125 0.1000091894622298 0.10001015189134786
          0.10001108360667064 0.1000119860586851 0.10001286060784931 0.10001370853147627 0.10001453103
        </DataArray>
        <DataArray type="Int64" Name="localToGlobalMap" format="ascii" RangeMin="11" RangeMax="21">
          11 12 13 14 15 16
          17 18 19 20 21
        </DataArray>
        <DataArray type="Int32" Name="ghostRank" format="ascii" RangeMin="-2" RangeMax="-2">
          -2 -2 -2 -2 -2 -2
          -2 -2 -2 -2 -2
        </DataArray>
        <DataArray type="Float64" Name="elementCenter" NumberOfComponents="3" format="ascii" RangeMin="0.7071067811865476" RangeMax="10.51189802081432">
          0 0.5 0.5 0 1.5 0.5
          0 2.5 0.5 0 3.5 0.5
          0 4.5 0.5 0 5.5 0.5
          0 6.5 0.5 0 7.5 0.5
          0 8.5 0.5 0 9.5 0.5
          0 10.5 0.5
          <InformationKey name="L2_NORM_RANGE" location="vtkDataArray" length="2">
            <Value index="0">
              0.70710678119
            </Value>
            <Value index="1">
              10.511898021
            </Value>
          </InformationKey>
        </DataArray>
        <DataArray type="Float64" Name="deltaPressure" format="ascii" RangeMin="10000000" RangeMax="29062060">
          10000000 12203744.166023979 14332328.519958375 16389542.442502 18378924.459564473 20303782.69569148
          22167213.341270916 23972117.370171905 25721215.698613092 27417062.952538054 29062060
        </DataArray>
        <DataArray type="Float64" Name="elementVolume" format="ascii" RangeMin="0.0001" RangeMax="0.0001">
          0.0001 0.0001 0.0001 0.0001 0.0001 0.0001
          0.0001 0.0001 0.0001 0.0001 0.0001
        </DataArray>
        <DataArray type="Float64" Name="elementArea" format="ascii" RangeMin="1" RangeMax="1">
          1 1 1 1 1 1
          1 1 1 1 1
        </DataArray>
        <DataArray type="Float64" Name="pressure" format="ascii" RangeMin="10000000" RangeMax="29062060">
          10000000 12203744.166023979 14332328.519958375 16389542.442502 18378924.459564473 20303782.69569148
          22167213.341270916 23972117.370171905 25721215.698613092 27417062.952538054 29062060
        </DataArray>
        <DataArray type="Float64" Name="normalVector" NumberOfComponents="3" format="ascii" RangeMin="1" RangeMax="1">
          0 0 1 0 0 1
          0 0 1 0 0 1
          0 0 1 0 0 1
          0 0 1 0 0 1
          0 0 1 0 0 1
          0 0 1
          <InformationKey name="L2_NORM_RANGE" location="vtkDataArray" length="2">
            <Value index="0">
              1
            </Value>
            <Value index="1">
              1
            </Value>
          </InformationKey>
        </DataArray>
        <DataArray type="Float64" Name="temperature" format="ascii" RangeMin="0" RangeMax="0">
          0 0 0 0 0 0
          0 0 0 0 0
        </DataArray>
        <DataArray type="Float64" Name="tangentVector1" NumberOfComponents="3" format="ascii" RangeMin="1" RangeMax="1">
          1 0 0 1 0 0
          1 0 0 1 0 0
          1 0 0 1 0 0
          1 0 0 1 0 0
          1 0 0 1 0 0
          1 0 0
          <InformationKey name="L2_NORM_RANGE" location="vtkDataArray" length="2">
            <Value index="0">
              1
            </Value>
            <Value index="1">
              1
            </Value>
          </InformationKey>
        </DataArray>
        <DataArray type="Float64" Name="massCreated" format="ascii" RangeMin="0" RangeMax="0">
          0 0 0 0 0 0
          0 0 0 0 0
        </DataArray>
        <DataArray type="Float64" Name="elementAperture" format="ascii" RangeMin="0.0001" RangeMax="0.0001">
          0.0001 0.0001 0.0001 0.0001 0.0001 0.0001
          0.0001 0.0001 0.0001 0.0001 0.0001
        </DataArray>
        <DataArray type="Float64" Name="tangentVector2" NumberOfComponents="3" format="ascii" RangeMin="1" RangeMax="1">
          0 1 0 0 1 0
          0 1 0 0 1 0
          0 1 0 0 1 0
          0 1 0 0 1 0
          0 1 0 0 1 0
          0 1 0
          <InformationKey name="L2_NORM_RANGE" location="vtkDataArray" length="2">
            <Value index="0">
              1
            </Value>
            <Value index="1">
              1
            </Value>
          </InformationKey>
        </DataArray>
        <DataArray type="Float64" Name="hydraulicAperture" format="ascii" RangeMin="0.010779481758235256" RangeMax="0.01268302858581127">
          0.010779481758235256 0.010969822401912962 0.011160164092328702 0.011350507658038122 0.011540853895427668 0.011731203572090749
          0.011921557428421558 0.01211191617906022 0.012302280514236475 0.012492651101047242 0.01268302858581127
        </DataArray>
      </CellData>
      <Points>
        <DataArray type="Float32" Name="Points" NumberOfComponents="3" format="ascii" RangeMin="0.7071067811865476" RangeMax="11.022703842524301">
          0.5 1 0.5 0.5 0 0.5
          -0.5 0 0.5 -0.5 1 0.5
          -0.5 2 0.5 0.5 2 0.5
          -0.5 3 0.5 0.5 3 0.5
          -0.5 4 0.5 0.5 4 0.5
          -0.5 5 0.5 0.5 5 0.5
          -0.5 6 0.5 0.5 6 0.5
          -0.5 7 0.5 0.5 7 0.5
          -0.5 8 0.5 0.5 8 0.5
          -0.5 9 0.5 0.5 9 0.5
          -0.5 10 0.5 0.5 10 0.5
          -0.5 11 0.5 0.5 11 0.5
          <InformationKey name="L2_NORM_RANGE" location="vtkDataArray" length="2">
            <Value index="0">
              0.70710678119
            </Value>
            <Value index="1">
              11.022703843
            </Value>
          </InformationKey>
        </DataArray>
      </Points>
      <Cells>
        <DataArray type="Int64" Name="connectivity" format="ascii" RangeMin="0" RangeMax="23">
          0 1 2 3 0 3
          4 5 5 4 6 7
          7 6 8 9 9 8
          10 11 11 10 12 13
          13 12 14 15 15 14
          16 17 17 16 18 19
          19 18 20 21 21 20
          22 23
        </DataArray>
        <DataArray type="Int64" Name="offsets" format="ascii" RangeMin="4" RangeMax="44">
          4 8 12 16 20 24
          28 32 36 40 44
        </DataArray>
        <DataArray type="UInt8" Name="types" format="ascii" RangeMin="7" RangeMax="7">
          7 7 7 7 7 7
          7 7 7 7 7
        </DataArray>
      </Cells>
    </Piece>
  </UnstructuredGrid>
</VTKFile>
