<?xml version="1.0"?>
<VTKFile type="UnstructuredGrid" version="0.1" byte_order="LittleEndian" header_type="UInt32" compressor="vtkZLibDataCompressor">
  <UnstructuredGrid>
    <FieldData>
      <DataArray type="Float64" Name="TIME" NumberOfTuples="1" format="ascii" RangeMin="0.17600000000000013" RangeMax="0.17600000000000013">
        0.17600000000000013
      </DataArray>
    </FieldData>
    <Piece NumberOfPoints="24" NumberOfCells="11">
      <PointData>
      </PointData>
      <CellData>
        <DataArray type="Float64" Name="fracturePorosity_referencePorosity" format="ascii" RangeMin="1" RangeMax="1">
          1 1 1 1 1 1
          1 1 1 1 1
        </DataArray>
        <DataArray type="Float64" Name="fracturePorosity_initialPorosity" format="ascii" RangeMin="1" RangeMax="1">
          1 1 1 1 1 1
          1 1 1 1 1
        </DataArray>
        <DataArray type="Float64" Name="fracturePorosity_porosity" format="ascii" RangeMin="1" RangeMax="1">
          1 1 1 1 1 1
          1 1 1 1 1
        </DataArray>
        <DataArray type="Float64" Name="water_dEnthalpy" format="ascii" RangeMin="0" RangeMax="0">
          0 0 0 0 0 0
          0 0 0 0 0
        </DataArray>
        <DataArray type="Float64" Name="water_enthalpy" format="ascii" RangeMin="0" RangeMax="0">
          0 0 0 0 0 0
          0 0 0 0 0
        </DataArray>
        <DataArray type="Float64" Name="water_dInternalEnergy" format="ascii" RangeMin="0" RangeMax="0">
          0 0 0 0 0 0
          0 0 0 0 0
        </DataArray>
        <DataArray type="Float64" Name="water_internalEnergy" format="ascii" RangeMin="0" RangeMax="0">
          0 0 0 0 0 0
          0 0 0 0 0
        </DataArray>
        <DataArray type="Float64" Name="water_viscosity" format="ascii" RangeMin="0.001" RangeMax="0.001">
          0.001 0.001 0.001 0.001 0.001 0.001
          0.001 0.001 0.001 0.001 0.001
        </DataArray>
        <DataArray type="Float64" Name="fracturePerm_permeability" NumberOfComponents="3" format="ascii" RangeMin="0.000016771625068438692" RangeMax="0.00002321802764179437">
          0.000009683102248010555 0.000009683102248010555 0.000009683102248010555 0.000010028129765877397 0.000010028129765877397 0.000010028129765877397
          0.000010379191831690722 0.000010379191831690722 0.000010379191831690722 0.000010736288471670352 0.000010736288471670352 0.000010736288471670352
          0.000011099419698558815 0.000011099419698558815 0.000011099419698558815 0.000011468585527805772 0.000011468585527805772 0.000011468585527805772
          0.000011843785978387363 0.000011843785978387363 0.000011843785978387363 0.000012225021072713026 0.000012225021072713026 0.000012225021072713026
          0.000012612290836529734 0.000012612290836529734 0.000012612290836529734 0.000013005595299575283 0.000013005595299575283 0.000013005595299575283
          0.000013404934509042152 0.000013404934509042152 0.000013404934509042152
          <InformationKey name="L2_NORM_RANGE" location="vtkDataArray" length="2">
            <Value index="0">
              1.6771625068e-05
            </Value>
            <Value index="1">
              2.3218027642e-05
            </Value>
          </InformationKey>
        </DataArray>
        <DataArray type="Float64" Name="water_dDensity" format="ascii" RangeMin="5e-9" RangeMax="5e-9">
          5e-9 5e-9 5e-9 5e-9 5e-9 5e-9
          5e-9 5e-9 5e-9 5e-9 5e-9
        </DataArray>
        <DataArray type="Float64" Name="water_dViscosity" format="ascii" RangeMin="0" RangeMax="0">
          0 0 0 0 0 0
          0 0 0 0 0
        </DataArray>
        <DataArray type="Float64" Name="water_density" format="ascii" RangeMin="1000.0500000000001" RangeMax="1000.1453103">
          1000.0500000000001 1000.0610201563551 1000.0716642020144 1000.0819510769028 1000.0918984693603 1000.1015229183276
          1000.1108399052636 1000.1198639373551 1000.1286086229915 1000.1370867403407 1000.1453103
        </DataArray>
        <DataArray type="Int64" Name="SinglePhaseFlow_singlePhaseVariables_dofIndex" format="ascii" RangeMin="0" RangeMax="10">
          0 1 2 3 4 5
          6 7 8 9 10
        </DataArray>
        <DataArray type="Float64" Name="mass" format="ascii" RangeMin="0.10000500000000001" RangeMax="0.10001453103">
          0.10000500000000001 0.10000610201563552 0.10000716642020145 0.10000819510769028 0.10000918984693603 0.10001015229183277
          0.10001108399052636 0.10001198639373551 0.10001286086229916 0.10001370867403407 0.10001453103
        </DataArray>
        <DataArray type="Int64" Name="localToGlobalMap" format="ascii" RangeMin="11" RangeMax="21">
          11 12 13 14 15 16
          17 18 19 20 21
        </DataArray>
        <DataArray type="Int32" Name="ghostRank" format="ascii" RangeMin="-2" RangeMax="-2">
          -2 -2 -2 -2 -2 -2
          -2 -2 -2 -2 -2
        </DataArray>
        <DataArray type="Float64" Name="elementCenter" NumberOfComponents="3" format="ascii" RangeMin="0.7071067811865476" RangeMax="10.51189802081432">
          0 0.5 0.5 0 1.5 0.5
          0 2.5 0.5 0 3.5 0.5
          0 4.5 0.5 0 5.5 0.5
          0 6.5 0.5 0 7.5 0.5
          0 8.5 0.5 0 9.5 0.5
          0 10.5 0.5
          <InformationKey name="L2_NORM_RANGE" location="vtkDataArray" length="2">
            <Value index="0">
              0.70710678119
            </Value>
            <Value index="1">
              10.511898021
            </Value>
          </InformationKey>
        </DataArray>
        <DataArray type="Float64" Name="deltaPressure" format="ascii" RangeMin="10000000" RangeMax="29062060">
          10000000 12204031.27104181 14332840.402876288 16390215.380545441 18379693.872073427 20304583.665547118
          22167981.052708127 23972787.47102417 25721724.598271213 27417348.06815279 29062060
        </DataArray>
        <DataArray type="Float64" Name="elementVolume" format="ascii" RangeMin="0.0001" RangeMax="0.0001">
          0.0001 0.0001 0.0001 0.0001 0.0001 0.0001
          0.0001 0.0001 0.0001 0.0001 0.0001
        </DataArray>
        <DataArray type="Float64" Name="elementArea" format="ascii" RangeMin="1" RangeMax="1">
          1 1 1 1 1 1
          1 1 1 1 1
        </DataArray>
        <DataArray type="Float64" Name="pressure" format="ascii" RangeMin="10000000" RangeMax="29062060">
          10000000 12204031.27104181 14332840.402876288 16390215.380545441 18379693.872073427 20304583.665547118
          22167981.052708127 23972787.47102417 25721724.598271213 27417348.06815279 29062060
        </DataArray>
        <DataArray type="Float64" Name="normalVector" NumberOfComponents="3" format="ascii" RangeMin="1" RangeMax="1">
          0 0 1 0 0 1
          0 0 1 0 0 1
          0 0 1 0 0 1
          0 0 1 0 0 1
          0 0 1 0 0 1
          0 0 1
          <InformationKey name="L2_NORM_RANGE" location="vtkDataArray" length="2">
            <Value index="0">
              1
            </Value>
            <Value index="1">
              1
            </Value>
          </InformationKey>
        </DataArray>
        <DataArray type="Float64" Name="temperature" format="ascii" RangeMin="0" RangeMax="0">
          0 0 0 0 0 0
          0 0 0 0 0
        </DataArray>
        <DataArray type="Float64" Name="tangentVector1" NumberOfComponents="3" format="ascii" RangeMin="1" RangeMax="1">
          1 0 0 1 0 0
          1 0 0 1 0 0
          1 0 0 1 0 0
          1 0 0 1 0 0
          1 0 0 1 0 0
          1 0 0
          <InformationKey name="L2_NORM_RANGE" location="vtkDataArray" length="2">
            <Value index="0">
              1
            </Value>
            <Value index="1">
              1
            </Value>
          </InformationKey>
        </DataArray>
        <DataArray type="Float64" Name="massCreated" format="ascii" RangeMin="0" RangeMax="0">
          0 0 0 0 0 0
          0 0 0 0 0
        </DataArray>
        <DataArray type="Float64" Name="elementAperture" format="ascii" RangeMin="0.0001" RangeMax="0.0001">
          0.0001 0.0001 0.0001 0.0001 0.0001 0.0001
          0.0001 0.0001 0.0001 0.0001 0.0001
        </DataArray>
        <DataArray type="Float64" Name="tangentVector2" NumberOfComponents="3" format="ascii" RangeMin="1" RangeMax="1">
          0 1 0 0 1 0
          0 1 0 0 1 0
          0 1 0 0 1 0
          0 1 0 0 1 0
          0 1 0 0 1 0
          0 1 0
          <InformationKey name="L2_NORM_RANGE" location="vtkDataArray" length="2">
            <Value index="0">
              1
            </Value>
            <Value index="1">
              1
            </Value>
          </InformationKey>
        </DataArray>
        <DataArray type="Float64" Name="hydraulicAperture" format="ascii" RangeMin="0.010779481758235256" RangeMax="0.01268302858581127">
          0.010779481758235256 0.010969847637525726 0.011160210660211063 0.011350570983877605 0.011540928748705876 0.011731284087160674
          0.011921637125019716 0.012111987981853199 0.01230233677145756 0.012492683602609305 0.01268302858581127
        </DataArray>
      </CellData>
      <Points>
        <DataArray type="Float32" Name="Points" NumberOfComponents="3" format="ascii" RangeMin="0.7071067811865476" RangeMax="11.022703842524301">
          0.5 1 0.5 0.5 0 0.5
          -0.5 0 0.5 -0.5 1 0.5
          -0.5 2 0.5 0.5 2 0.5
          -0.5 3 0.5 0.5 3 0.5
          -0.5 4 0.5 0.5 4 0.5
          -0.5 5 0.5 0.5 5 0.5
          -0.5 6 0.5 0.5 6 0.5
          -0.5 7 0.5 0.5 7 0.5
          -0.5 8 0.5 0.5 8 0.5
          -0.5 9 0.5 0.5 9 0.5
          -0.5 10 0.5 0.5 10 0.5
          -0.5 11 0.5 0.5 11 0.5
          <InformationKey name="L2_NORM_RANGE" location="vtkDataArray" length="2">
            <Value index="0">
              0.70710678119
            </Value>
            <Value index="1">
              11.022703843
            </Value>
          </InformationKey>
        </DataArray>
      </Points>
      <Cells>
        <DataArray type="Int64" Name="connectivity" format="ascii" RangeMin="0" RangeMax="23">
          0 1 2 3 0 3
          4 5 5 4 6 7
          7 6 8 9 9 8
          10 11 11 10 12 13
          13 12 14 15 15 14
          16 17 17 16 18 19
          19 18 20 21 21 20
          22 23
        </DataArray>
        <DataArray type="Int64" Name="offsets" format="ascii" RangeMin="4" RangeMax="44">
          4 8 12 16 20 24
          28 32 36 40 44
        </DataArray>
        <DataArray type="UInt8" Name="types" format="ascii" RangeMin="7" RangeMax="7">
          7 7 7 7 7 7
          7 7 7 7 7
        </DataArray>
      </Cells>
    </Piece>
  </UnstructuredGrid>
</VTKFile>
