<?xml version="1.0"?>
<VTKFile type="UnstructuredGrid" version="0.1" byte_order="LittleEndian" header_type="UInt32" compressor="vtkZLibDataCompressor">
  <UnstructuredGrid>
    <FieldData>
      <DataArray type="Float64" Name="TIME" NumberOfTuples="1" format="ascii" RangeMin="0.16900000000000012" RangeMax="0.16900000000000012">
        0.16900000000000012
      </DataArray>
    </FieldData>
    <Piece NumberOfPoints="48" NumberOfCells="11">
      <PointData>
        <DataArray type="Int64" Name="localToGlobalMap" format="ascii" RangeMin="0" RangeMax="47">
          0 1 2 3 4 5
          6 7 8 9 10 11
          12 13 14 15 16 17
          18 19 20 21 22 23
          24 25 26 27 28 29
          30 31 32 33 34 35
          36 37 38 39 40 41
          42 43 44 45 46 47
        </DataArray>
        <DataArray type="Int32" Name="ghostRank" format="ascii" RangeMin="-2" RangeMax="-2">
          -2 -2 -2 -2 -2 -2
          -2 -2 -2 -2 -2 -2
          -2 -2 -2 -2 -2 -2
          -2 -2 -2 -2 -2 -2
          -2 -2 -2 -2 -2 -2
          -2 -2 -2 -2 -2 -2
          -2 -2 -2 -2 -2 -2
          -2 -2 -2 -2 -2 -2
        </DataArray>
      </PointData>
      <CellData>
        <DataArray type="Float64" Name="rockPerm_permeability" NumberOfComponents="3" format="ascii" RangeMin="1.7320508075688773e-15" RangeMax="1.7320508075688773e-15">
          1e-15 1e-15 1e-15 1e-15 1e-15 1e-15
          1e-15 1e-15 1e-15 1e-15 1e-15 1e-15
          1e-15 1e-15 1e-15 1e-15 1e-15 1e-15
          1e-15 1e-15 1e-15 1e-15 1e-15 1e-15
          1e-15 1e-15 1e-15 1e-15 1e-15 1e-15
          1e-15 1e-15 1e-15
          <InformationKey name="L2_NORM_RANGE" location="vtkDataArray" length="2">
            <Value index="0">
              1.7320508076e-15
            </Value>
            <Value index="1">
              1.7320508076e-15
            </Value>
          </InformationKey>
        </DataArray>
        <DataArray type="Float64" Name="rockPorosity_referencePorosity" format="ascii" RangeMin="0.1" RangeMax="0.1">
          0.1 0.1 0.1 0.1 0.1 0.1
          0.1 0.1 0.1 0.1 0.1
        </DataArray>
        <DataArray type="Float64" Name="rockPorosity_initialPorosity" format="ascii" RangeMin="0.09999999999999999" RangeMax="0.09999999999999999">
          0.09999999999999999 0.09999999999999999 0.09999999999999999 0.09999999999999999 0.09999999999999999 0.09999999999999999
          0.09999999999999999 0.09999999999999999 0.09999999999999999 0.09999999999999999 0.09999999999999999
        </DataArray>
        <DataArray type="Float64" Name="rockPorosity_porosity" format="ascii" RangeMin="0.09999999999999999" RangeMax="0.09999999999999999">
          0.09999999999999999 0.09999999999999999 0.09999999999999999 0.09999999999999999 0.09999999999999999 0.09999999999999999
          0.09999999999999999 0.09999999999999999 0.09999999999999999 0.09999999999999999 0.09999999999999999
        </DataArray>
        <DataArray type="Float64" Name="water_dEnthalpy" format="ascii" RangeMin="0" RangeMax="0">
          0 0 0 0 0 0
          0 0 0 0 0
        </DataArray>
        <DataArray type="Float64" Name="water_enthalpy" format="ascii" RangeMin="0" RangeMax="0">
          0 0 0 0 0 0
          0 0 0 0 0
        </DataArray>
        <DataArray type="Float64" Name="water_dInternalEnergy" format="ascii" RangeMin="0" RangeMax="0">
          0 0 0 0 0 0
          0 0 0 0 0
        </DataArray>
        <DataArray type="Float64" Name="water_internalEnergy" format="ascii" RangeMin="0" RangeMax="0">
          0 0 0 0 0 0
          0 0 0 0 0
        </DataArray>
        <DataArray type="Float64" Name="water_viscosity" format="ascii" RangeMin="0.001" RangeMax="0.001">
          0.001 0.001 0.001 0.001 0.001 0.001
          0.001 0.001 0.001 0.001 0.001
        </DataArray>
        <DataArray type="Float64" Name="water_dDensity" format="ascii" RangeMin="4.999999999999999e-9" RangeMax="4.999999999999999e-9">
          4.999999999999999e-9 4.999999999999999e-9 4.999999999999999e-9 4.999999999999999e-9 4.999999999999999e-9 4.999999999999999e-9
          4.999999999999999e-9 4.999999999999999e-9 4.999999999999999e-9 4.999999999999999e-9 4.999999999999999e-9
        </DataArray>
        <DataArray type="Float64" Name="water_dViscosity" format="ascii" RangeMin="0" RangeMax="0">
          0 0 0 0 0 0
          0 0 0 0 0
        </DataArray>
        <DataArray type="Float64" Name="water_density" format="ascii" RangeMin="1000.0500097407157" RangeMax="1000.1425489479773">
          1000.0500097407157 1000.060121370255 1000.0705601157589 1000.0806905598856 1000.0904891093223 1000.099969698296
          1000.1091474527905 1000.1180365736874 1000.1266488163557 1000.1349680864168 1000.1425489479773
        </DataArray>
        <DataArray type="Int64" Name="SinglePhaseFlow_singlePhaseVariables_dofIndex" format="ascii" RangeMin="11" RangeMax="21">
          11 12 13 14 15 16
          17 18 19 20 21
        </DataArray>
        <DataArray type="Float64" Name="mass" format="ascii" RangeMin="100.00500097407158" RangeMax="100.01425489479769">
          100.00500097407158 100.00601213702552 100.00705601157593 100.00806905598853 100.00904891093221 100.00999696982964
          100.010914745279 100.01180365736876 100.01266488163559 100.01349680864162 100.01425489479769
        </DataArray>
        <DataArray type="Float64" Name="temperature" format="ascii" RangeMin="0" RangeMax="0">
          0 0 0 0 0 0
          0 0 0 0 0
        </DataArray>
        <DataArray type="Float64" Name="elementVolume" format="ascii" RangeMin="0.9999999999999993" RangeMax="1.0000000000000004">
          1 1 1.0000000000000002 0.9999999999999996 0.9999999999999998 1.0000000000000004
          0.9999999999999993 1 1 0.9999999999999993 0.9999999999999994
        </DataArray>
        <DataArray type="Float64" Name="deltaPressure" format="ascii" RangeMin="10001948.143156258" RangeMax="28509789.595465317">
          10001948.143156258 12024274.05101881 14112023.151775092 16138111.977126436 18097821.864444543 19993939.65917463
          21829490.558120117 23607314.737483703 25329763.27117794 26993617.2833866 28509789.595465317
        </DataArray>
        <DataArray type="Float64" Name="elementCenter" NumberOfComponents="3" format="ascii" RangeMin="0.7071067811865476" RangeMax="10.51189802081432">
          0 0.5 0.5 0 1.5 0.5
          0 2.5 0.5 0 3.5 0.5
          0 4.5 0.5 0 5.5 0.5
          0 6.5 0.5 0 7.5 0.5
          0 8.5 0.5 0 9.5 0.5
          0 10.5 0.5
          <InformationKey name="L2_NORM_RANGE" location="vtkDataArray" length="2">
            <Value index="0">
              0.70710678119
            </Value>
            <Value index="1">
              10.511898021
            </Value>
          </InformationKey>
        </DataArray>
        <DataArray type="Int32" Name="ghostRank" format="ascii" RangeMin="-2" RangeMax="-2">
          -2 -2 -2 -2 -2 -2
          -2 -2 -2 -2 -2
        </DataArray>
        <DataArray type="Float64" Name="pressure" format="ascii" RangeMin="10001948.143156258" RangeMax="28509789.595465317">
          10001948.143156258 12024274.05101881 14112023.151775092 16138111.977126436 18097821.864444543 19993939.65917463
          21829490.558120117 23607314.737483703 25329763.27117794 26993617.2833866 28509789.595465317
        </DataArray>
        <DataArray type="Int64" Name="localToGlobalMap" format="ascii" RangeMin="0" RangeMax="10">
          0 1 2 3 4 5
          6 7 8 9 10
        </DataArray>
      </CellData>
      <Points>
        <DataArray type="Float32" Name="Points" NumberOfComponents="3" format="ascii" RangeMin="0.5" RangeMax="11.05667219374799">
          -0.5 0 0 0.5 0 0
          -0.5 1 0 0.5 1 0
          -0.5 2 0 0.5 2 0
          -0.5 3 0 0.5 3 0
          -0.5 4 0 0.5 4 0
          -0.5 5 0 0.5 5 0
          -0.5 6 0 0.5 6 0
          -0.5 7 0 0.5 7 0
          -0.5 8 0 0.5 8 0
          -0.5 9 0 0.5 9 0
          -0.5 10 0 0.5 10 0
          -0.5 11 0 0.5 11 0
          -0.5 0 1 0.5 0 1
          -0.5 1 1 0.5 1 1
          -0.5 2 1 0.5 2 1
          -0.5 3 1 0.5 3 1
          -0.5 4 1 0.5 4 1
          -0.5 5 1 0.5 5 1
          -0.5 6 1 0.5 6 1
          -0.5 7 1 0.5 7 1
          -0.5 8 1 0.5 8 1
          -0.5 9 1 0.5 9 1
          -0.5 10 1 0.5 10 1
          -0.5 11 1 0.5 11 1
          <InformationKey name="L2_NORM_RANGE" location="vtkDataArray" length="2">
            <Value index="0">
              0.5
            </Value>
            <Value index="1">
              11.056672194
            </Value>
          </InformationKey>
        </DataArray>
      </Points>
      <Cells>
        <DataArray type="Int64" Name="connectivity" format="ascii" RangeMin="0" RangeMax="47">
          0 1 3 2 24 25
          27 26 2 3 5 4
          26 27 29 28 4 5
          7 6 28 29 31 30
          6 7 9 8 30 31
          33 32 8 9 11 10
          32 33 35 34 10 11
          13 12 34 35 37 36
          12 13 15 14 36 37
          39 38 14 15 17 16
          38 39 41 40 16 17
          19 18 40 41 43 42
          18 19 21 20 42 43
          45 44 20 21 23 22
          44 45 47 46
        </DataArray>
        <DataArray type="Int64" Name="offsets" format="ascii" RangeMin="8" RangeMax="88">
          8 16 24 32 40 48
          56 64 72 80 88
        </DataArray>
        <DataArray type="UInt8" Name="types" format="ascii" RangeMin="12" RangeMax="12">
          12 12 12 12 12 12
          12 12 12 12 12
        </DataArray>
      </Cells>
    </Piece>
  </UnstructuredGrid>
</VTKFile>
