# vtk DataFile Version 3.0
Extruded Polyhedra
ASCII
DATASET UNSTRUCTURED_GRID
POINTS 98 float
0.2333333333333333 0.36666666666666664 0.0
0.2333333333333333 0.2333333333333333 0.0
0.2333333333333333 0.4999999999999999 0.0
0.2333333333333333 0.6333333333333334 0.0
0.2333333333333333 0.7666666666666667 0.0
0.3666666666666666 0.3666666666666666 0.0
0.5 0.36666666666666664 0.0
0.36666666666666664 0.2333333333333333 0.0
0.3666666666666666 0.6333333333333333 0.0
0.36666666666666664 0.5 0.0
0.3666666666666666 0.7666666666666666 0.0
0.6333333333333333 0.3666666666666666 0.0
0.4999999999999999 0.2333333333333333 0.0
0.5 0.6333333333333333 0.0
0.5000000000000001 0.5000000000000001 0.0
0.5 0.7666666666666668 0.0
0.6333333333333334 0.2333333333333333 0.0
0.6333333333333333 0.6333333333333333 0.0
0.6333333333333333 0.5 0.0
0.6333333333333333 0.7666666666666666 0.0
0.7666666666666666 0.3666666666666666 0.0
0.7666666666666667 0.2333333333333333 0.0
0.7666666666666666 0.6333333333333333 0.0
0.7666666666666668 0.5 0.0
0.7666666666666666 0.7666666666666666 0.0
0.0 0.2333333333333333 0.0
0.0 0.36666666666666664 0.0
0.0 0.4999999999999999 0.0
0.0 0.6333333333333334 0.0
0.0 0.7666666666666667 0.0
1.0 0.7666666666666666 0.0
1.0 0.2333333333333365 0.0
1.0 0.36666666666666586 0.0
1.0 0.500000000000011 0.0
1.0 0.6333333333333249 0.0
0.6333333333333333 1.0 0.0
0.2333333333333333 0.0 0.0
0.2333333333333333 1.0 0.0
0.36666666666666664 0.0 0.0
0.5 1.0 0.0
0.3666666666666666 1.0 0.0
0.4999999999999999 0.0 0.0
0.6333333333333334 0.0 0.0
0.7666666666666667 0.0 0.0
0.7666666666666666 1.0 0.0
0.0 0.0 0.0
0.0 1.0 0.0
1.0 0.0 0.0
1.0 1.0 0.0
0.2333333333333333 0.36666666666666664 1.0
0.2333333333333333 0.2333333333333333 1.0
0.2333333333333333 0.4999999999999999 1.0
0.2333333333333333 0.6333333333333334 1.0
0.2333333333333333 0.7666666666666667 1.0
0.3666666666666666 0.3666666666666666 1.0
0.5 0.36666666666666664 1.0
0.36666666666666664 0.2333333333333333 1.0
0.3666666666666666 0.6333333333333333 1.0
0.36666666666666664 0.5 1.0
0.3666666666666666 0.7666666666666666 1.0
0.6333333333333333 0.3666666666666666 1.0
0.4999999999999999 0.2333333333333333 1.0
0.5 0.6333333333333333 1.0
0.5000000000000001 0.5000000000000001 1.0
0.5 0.7666666666666668 1.0
0.6333333333333334 0.2333333333333333 1.0
0.6333333333333333 0.6333333333333333 1.0
0.6333333333333333 0.5 1.0
0.6333333333333333 0.7666666666666666 1.0
0.7666666666666666 0.3666666666666666 1.0
0.7666666666666667 0.2333333333333333 1.0
0.7666666666666666 0.6333333333333333 1.0
0.7666666666666668 0.5 1.0
0.7666666666666666 0.7666666666666666 1.0
0.0 0.2333333333333333 1.0
0.0 0.36666666666666664 1.0
0.0 0.4999999999999999 1.0
0.0 0.6333333333333334 1.0
0.0 0.7666666666666667 1.0
1.0 0.7666666666666666 1.0
1.0 0.2333333333333365 1.0
1.0 0.36666666666666586 1.0
1.0 0.500000000000011 1.0
1.0 0.6333333333333249 1.0
0.6333333333333333 1.0 1.0
0.2333333333333333 0.0 1.0
0.2333333333333333 1.0 1.0
0.36666666666666664 0.0 1.0
0.5 1.0 1.0
0.3666666666666666 1.0 1.0
0.4999999999999999 0.0 1.0
0.6333333333333334 0.0 1.0
0.7666666666666667 0.0 1.0
0.7666666666666666 1.0 1.0
0.0 0.0 1.0
0.0 1.0 1.0
1.0 0.0 1.0
1.0 1.0 1.0

CELLS 36 1152
31 6 4 36 1 25 45 4 85 50 74 94 4 36 1 50 85 4 1 25 74 50 4 25 45 94 74 4 45 36 85 94
31 6 4 44 24 30 48 4 93 73 79 97 4 44 24 73 93 4 24 30 79 73 4 30 48 97 79 4 48 44 93 97
31 6 4 25 1 0 26 4 74 50 49 75 4 25 1 50 74 4 1 0 49 50 4 0 26 75 49 4 26 25 74 75
31 6 4 26 0 2 27 4 75 49 51 76 4 26 0 49 75 4 0 2 51 49 4 2 27 76 51 4 27 26 75 76
31 6 4 27 2 3 28 4 76 51 52 77 4 27 2 51 76 4 2 3 52 51 4 3 28 77 52 4 28 27 76 77
31 6 4 28 3 4 29 4 77 52 53 78 4 28 3 52 77 4 3 4 53 52 4 4 29 78 53 4 29 28 77 78
31 6 4 46 29 4 37 4 95 78 53 86 4 46 29 78 95 4 29 4 53 78 4 4 37 86 53 4 37 46 95 86
31 6 4 38 7 1 36 4 87 56 50 85 4 38 7 56 87 4 7 1 50 56 4 1 36 85 50 4 36 38 87 85
31 6 4 37 4 10 40 4 86 53 59 89 4 37 4 53 86 4 4 10 59 53 4 10 40 89 59 4 40 37 86 89
31 6 4 41 12 7 38 4 90 61 56 87 4 41 12 61 90 4 12 7 56 61 4 7 38 87 56 4 38 41 90 87
31 6 4 40 10 15 39 4 89 59 64 88 4 40 10 59 89 4 10 15 64 59 4 15 39 88 64 4 39 40 89 88
31 6 4 42 16 12 41 4 91 65 61 90 4 42 16 65 91 4 16 12 61 65 4 12 41 90 61 4 41 42 91 90
31 6 4 39 15 19 35 4 88 64 68 84 4 39 15 64 88 4 15 19 68 64 4 19 35 84 68 4 35 39 88 84
31 6 4 43 21 16 42 4 92 70 65 91 4 43 21 70 92 4 21 16 65 70 4 16 42 91 65 4 42 43 92 91
31 6 4 35 19 24 44 4 84 68 73 93 4 35 19 68 84 4 19 24 73 68 4 24 44 93 73 4 44 35 84 93
31 6 4 47 31 21 43 4 96 80 70 92 4 47 31 80 96 4 31 21 70 80 4 21 43 92 70 4 43 47 96 92
31 6 4 32 20 21 31 4 81 69 70 80 4 32 20 69 81 4 20 21 70 69 4 21 31 80 70 4 31 32 81 80
31 6 4 33 23 20 32 4 82 72 69 81 4 33 23 72 82 4 23 20 69 72 4 20 32 81 69 4 32 33 82 81
31 6 4 34 22 23 33 4 83 71 72 82 4 34 22 71 83 4 22 23 72 71 4 23 33 82 72 4 33 34 83 82
31 6 4 30 24 22 34 4 79 73 71 83 4 30 24 73 79 4 24 22 71 73 4 22 34 83 71 4 34 30 79 83
31 6 4 7 5 0 1 4 56 54 49 50 4 7 5 54 56 4 5 0 49 54 4 0 1 50 49 4 1 7 56 50
31 6 4 5 9 2 0 4 54 58 51 49 4 5 9 58 54 4 9 2 51 58 4 2 0 49 51 4 0 5 54 49
31 6 4 9 8 3 2 4 58 57 52 51 4 9 8 57 58 4 8 3 52 57 4 3 2 51 52 4 2 9 58 51
31 6 4 8 10 4 3 4 57 59 53 52 4 8 10 59 57 4 10 4 53 59 4 4 3 52 53 4 3 8 57 52
31 6 4 12 6 5 7 4 61 55 54 56 4 12 6 55 61 4 6 5 54 55 4 5 7 56 54 4 7 12 61 56
31 6 4 6 14 9 5 4 55 63 58 54 4 6 14 63 55 4 14 9 58 63 4 9 5 54 58 4 5 6 55 54
31 6 4 14 13 8 9 4 63 62 57 58 4 14 13 62 63 4 13 8 57 62 4 8 9 58 57 4 9 14 63 58
31 6 4 13 15 10 8 4 62 64 59 57 4 13 15 64 62 4 15 10 59 64 4 10 8 57 59 4 8 13 62 57
31 6 4 16 11 6 12 4 65 60 55 61 4 16 11 60 65 4 11 6 55 60 4 6 12 61 55 4 12 16 65 61
31 6 4 11 18 14 6 4 60 67 63 55 4 11 18 67 60 4 18 14 63 67 4 14 6 55 63 4 6 11 60 55
31 6 4 18 17 13 14 4 67 66 62 63 4 18 17 66 67 4 17 13 62 66 4 13 14 63 62 4 14 18 67 63
31 6 4 17 19 15 13 4 66 68 64 62 4 17 19 68 66 4 19 15 64 68 4 15 13 62 64 4 13 17 66 62
31 6 4 21 20 11 16 4 70 69 60 65 4 21 20 69 70 4 20 11 60 69 4 11 16 65 60 4 16 21 70 65
31 6 4 20 23 18 11 4 69 72 67 60 4 20 23 72 69 4 23 18 67 72 4 18 11 60 67 4 11 20 69 60
31 6 4 23 22 17 18 4 72 71 66 67 4 23 22 71 72 4 22 17 66 71 4 17 18 67 66 4 18 23 72 67
31 6 4 22 24 19 17 4 71 73 68 66 4 22 24 73 71 4 24 19 68 73 4 19 17 66 68 4 17 22 71 66

CELL_TYPES 36
42
42
42
42
42
42
42
42
42
42
42
42
42
42
42
42
42
42
42
42
42
42
42
42
42
42
42
42
42
42
42
42
42
42
42
42

CELL_DATA 36
SCALARS CellEntityIds int 1
LOOKUP_TABLE default
4
4
4
4
4
4
4
4
4
4
4
4
4
4
4
4
4
4
4
4
4
4
4
4
4
4
4
4
4
4
4
4
4
4
4
4
