<?xml version="1.0"?>
<VTKFile type="UnstructuredGrid" version="0.1" byte_order="LittleEndian">
  <UnstructuredGrid>
    <Piece NumberOfPoints="1359" NumberOfCells="800">
      <PointData>
        <DataArray type="UInt32" Name="abaqus_node_id" format="ascii">
          454 455 456 457 458 459 460 461 462 463 464 465
          466 467 468 469 470 471 472 473 474 475 476 477
          478 479 480 481 482 483 484 485 486 487 488 489
          490 491 492 493 494 495 496 497 498 499 500 501
          502 503 504 505 506 507 508 509 510 511 512 513
          514 515 516 517 518 519 520 521 522 523 524 525
          526 527 528 529 530 531 532 533 534 535 536 537
          538 539 540 541 542 543 544 545 546 547 548 549
          550 551 552 553 554 555 556 557 558 559 560 561
          562 563 564 565 566 567 568 569 570 571 572 573
          574 575 576 577 578 579 580 581 582 583 584 585
          586 587 588 589 590 591 592 593 594 595 596 597
          598 599 600 601 602 603 604 605 606 607 608 609
          610 611 612 613 614 615 616 617 618 619 620 621
          622 623 624 625 626 627 628 629 630 631 632 633
          634 635 636 637 638 639 640 641 642 643 644 645
          646 647 648 649 650 651 652 653 654 655 656 657
          658 659 660 661 662 663 664 665 666 667 668 669
          670 671 672 673 674 675 676 677 678 679 680 681
          682 683 684 685 686 687 688 689 690 691 692 693
          694 695 696 697 698 699 700 701 702 703 704 705
          706 707 708 709 710 711 712 713 714 715 716 717
          718 719 720 721 722 723 724 725 726 727 728 729
          730 731 732 733 734 735 736 737 738 739 740 741
          742 743 744 745 746 747 748 749 750 751 752 753
          754 755 756 757 758 759 760 761 762 763 764 765
          766 767 768 769 770 771 772 773 774 775 776 777
          778 779 780 781 782 783 784 785 786 787 788 789
          790 791 792 793 794 795 796 797 798 799 800 801
          802 803 804 805 806 807 808 809 810 811 812 813
          814 815 816 817 818 819 820 821 822 823 824 825
          826 827 828 829 830 831 832 833 834 835 836 837
          838 839 840 841 842 843 844 845 846 847 848 849
          850 851 852 853 854 855 856 857 858 859 860 861
          862 863 864 865 866 867 868 869 870 871 872 873
          874 875 876 877 878 879 880 881 882 883 884 885
          886 887 888 889 890 891 892 893 894 895 896 897
          898 899 900 901 902 903 904 905 906 907 908 909
          910 911 912 913 914 915 916 917 918 919 920 921
          922 923 924 925 926 927 928 929 930 931 932 933
          934 935 936 937 938 939 940 941 942 943 944 945
          946 947 948 949 950 951 952 953 954 955 956 957
          958 959 960 961 962 963 964 965 966 967 968 969
          970 971 972 973 974 975 976 977 978 979 980 981
          982 983 984 985 986 987 988 989 990 991 992 993
          994 995 996 997 998 999 1000 1001 1002 1003 1004 1005
          1006 1007 1008 1009 1010 1011 1012 1013 1014 1015 1016 1017
          1018 1019 1020 1021 1022 1023 1024 1025 1026 1027 1028 1029
          1030 1031 1032 1033 1034 1035 1036 1037 1038 1039 1040 1041
          1042 1043 1044 1045 1046 1047 1048 1049 1050 1051 1052 1053
          1054 1055 1056 1057 1058 1059 1060 1061 1062 1063 1064 1065
          1066 1067 1068 1069 1070 1071 1072 1073 1074 1075 1076 1077
          1078 1079 1080 1081 1082 1083 1084 1085 1086 1087 1088 1089
          1090 1091 1092 1093 1094 1095 1096 1097 1098 1099 1100 1101
          1102 1103 1104 1105 1106 1107 1108 1109 1110 1111 1112 1113
          1114 1115 1116 1117 1118 1119 1120 1121 1122 1123 1124 1125
          1126 1127 1128 1129 1130 1131 1132 1133 1134 1135 1136 1137
          1138 1139 1140 1141 1142 1143 1144 1145 1146 1147 1148 1149
          1150 1151 1152 1153 1154 1155 1156 1157 1158 1159 1160 1161
          1162 1163 1164 1165 1166 1167 1168 1169 1170 1171 1172 1173
          1174 1175 1176 1177 1178 1179 1180 1181 1182 1183 1184 1185
          1186 1187 1188 1189 1190 1191 1192 1193 1194 1195 1196 1197
          1198 1199 1200 1201 1202 1203 1204 1205 1206 1207 1208 1209
          1210 1211 1212 1213 1214 1215 1216 1217 1218 1219 1220 1221
          1222 1223 1224 1225 1226 1227 1228 1229 1230 1231 1232 1233
          1234 1235 1236 1237 1238 1239 1240 1241 1242 1243 1244 1245
          1246 1247 1248 1249 1250 1251 1252 1253 1254 1255 1256 1257
          1258 1259 1260 1261 1262 1263 1264 1265 1266 1267 1268 1269
          1270 1271 1272 1273 1274 1275 1276 1277 1278 1279 1280 1281
          1282 1283 1284 1285 1286 1287 1288 1289 1290 1291 1292 1293
          1294 1295 1296 1297 1298 1299 1300 1301 1302 1303 1304 1305
          1306 1307 1308 1309 1310 1311 1312 1313 1314 1315 1316 1317
          1318 1319 1320 1321 1322 1323 1324 1325 1326 1327 1328 1329
          1330 1331 1332 1333 1334 1335 1336 1337 1338 1339 1340 1341
          1342 1343 1344 1345 1346 1347 1348 1349 1350 1351 1352 1353
          1354 1355 1356 1357 1358 1359 1360 1361 1362 1363 1364 1365
          1366 1367 1368 1369 1370 1371 1372 1373 1374 1375 1376 1377
          1378 1379 1380 1381 1382 1383 1384 1385 1386 1387 1388 1389
          1390 1391 1392 1393 1394 1395 1396 1397 1398 1399 1400 1401
          1402 1403 1404 1405 1406 1407 1408 1409 1410 1411 1412 1413
          1414 1415 1416 1417 1418 1419 1420 1421 1422 1423 1424 1425
          1426 1427 1428 1429 1430 1431 1432 1433 1434 1435 1436 1437
          1438 1439 1440 1441 1442 1443 1444 1445 1446 1447 1448 1449
          1450 1451 1452 1453 1454 1455 1456 1457 1458 1459 1460 1461
          1462 1463 1464 1465 1466 1467 1468 1469 1470 1471 1472 1473
          1474 1475 1476 1477 1478 1479 1480 1481 1482 1483 1484 1485
          1486 1487 1488 1489 1490 1491 1492 1493 1494 1495 1496 1497
          1498 1499 1500 1501 1502 1503 1504 1505 1506 1507 1508 1509
          1510 1511 1512 1513 1514 1515 1516 1517 1518 1519 1520 1521
          1522 1523 1524 1525 1526 1527 1528 1529 1530 1531 1532 1533
          1534 1535 1536 1537 1538 1539 1540 1541 1542 1543 1544 1545
          1546 1547 1548 1549 1550 1551 1552 1553 1554 1555 1556 1557
          1558 1559 1560 1561 1562 1563 1564 1565 1566 1567 1568 1569
          1570 1571 1572 1573 1574 1575 1576 1577 1578 1579 1580 1581
          1582 1583 1584 1585 1586 1587 1588 1589 1590 1591 1592 1593
          1594 1595 1596 1597 1598 1599 1600 1601 1602 1603 1604 1605
          1606 1607 1608 1609 1610 1611 1612 1613 1614 1615 1616 1617
          1618 1619 1620 1621 1622 1623 1624 1625 1626 1627 1628 1629
          1630 1631 1632 1633 1634 1635 1636 1637 1638 1639 1640 1641
          1642 1643 1644 1645 1646 1647 1648 1649 1650 1651 1652 1653
          1654 1655 1656 1657 1658 1659 1660 1661 1662 1663 1664 1665
          1666 1667 1668 1669 1670 1671 1672 1673 1674 1675 1676 1677
          1678 1679 1680 1681 1682 1683 1684 1685 1686 1687 1688 1689
          1690 1691 1692 1693 1694 1695 1696 1697 1698 1699 1700 1701
          1702 1703 1704 1705 1706 1707 1708 1709 1710 1711 1712 1713
          1714 1715 1716 1717 1718 1719 1720 1721 1722 1723 1724 1725
          1726 1727 1728 1729 1730 1731 1732 1733 1734 1735 1736 1737
          1738 1739 1740 1741 1742 1743 1744 1745 1746 1747 1748 1749
          1750 1751 1752 1753 1754 1755 1756 1757 1758 1759 1760 1761
          1762 1763 1764 1765 1766 1767 1768 1769 1770 1771 1772 1773
          1774 1775 1776 1777 1778 1779 1780 1781 1782 1783 1784 1785
          1786 1787 1788 1789 1790 1791 1792 1793 1794 1795 1796 1797
          1798 1799 1800 1801 1802 1803 1804 1805 1806 1807 1808 1809
          1810 1811 1812
        </DataArray>
        <DataArray type="UInt32" Name="support_left_line" format="ascii">
          1 1 0 0 0 0 0 0 0 0 0 0 0 0 0 0 0 0 0 0 0 0 0 0 0 0 0 0 0 0
          0 0 0 0 0 0 0 0 0 0 0 0 0 0 0 0 0 0 0 0 0 0 0 0 0 0 0 0 0 0
          0 0 0 0 0 0 0 0 0 0 0 0 0 0 0 0 0 0 0 0 0 0 0 0 0 0 0 0 0 0
          0 0 0 0 0 0 0 0 0 0 0 0 0 0 0 0 0 0 0 0 0 0 0 0 0 0 0 0 0 0
          0 0 0 0 0 0 0 0 0 0 0 0 0 0 0 0 0 0 0 0 0 0 0 0 0 0 0 0 0 0
          0 0 0 0 0 0 0 0 0 0 0 0 0 0 0 0 0 0 0 0 0 0 0 0 0 0 0 0 0 0
          0 0 0 0 0 0 0 0 0 0 0 0 0 0 0 0 0 0 0 0 0 0 0 0 0 0 0 0 0 0
          0 0 0 0 0 0 0 0 0 0 0 0 0 0 0 0 0 0 0 0 0 0 0 0 0 0 0 0 0 0
          0 0 0 0 0 0 0 0 0 0 0 0 0 0 0 0 0 0 0 0 0 0 0 0 0 0 0 0 0 0
          0 0 0 0 0 0 0 0 0 0 0 0 0 0 0 0 0 0 0 0 0 0 0 0 0 0 0 0 0 0
          0 0 0 0 0 0 0 0 0 0 0 0 0 0 0 0 0 0 0 0 0 0 0 0 0 0 0 0 0 0
          0 0 0 0 0 0 0 0 0 0 0 0 0 0 0 0 0 0 0 0 0 0 0 0 0 0 0 0 0 0
          0 0 0 0 0 0 0 0 0 0 0 0 0 0 0 0 0 0 0 0 0 0 0 0 0 0 0 0 0 0
          0 0 0 0 0 0 0 0 0 0 0 0 0 0 0 0 0 0 0 0 0 0 0 0 0 0 0 0 0 0
          0 0 0 0 0 0 0 0 0 0 0 0 0 0 0 0 0 0 0 0 0 0 0 0 0 0 0 0 0 0
          0 0 0 0 0 0 0 0 0 0 0 0 0 0 0 0 0 0 0 0 0 0 0 0 0 0 0 0 0 0
          0 0 0 0 0 0 0 0 0 0 0 0 0 0 0 0 0 0 0 0 0 0 0 0 0 0 0 0 0 0
          0 0 0 0 0 0 0 0 0 0 0 0 0 0 0 0 0 0 0 0 0 0 0 0 0 0 0 0 0 0
          0 0 0 0 0 0 0 0 0 0 0 0 0 0 0 0 0 0 0 0 0 0 0 0 0 0 0 0 0 0
          0 0 0 0 0 0 0 0 0 0 0 0 0 0 0 0 0 0 0 0 0 0 0 0 0 0 0 0 0 0
          0 0 0 0 0 0 0 0 0 0 0 0 0 0 0 0 0 0 0 0 0 0 0 0 0 0 0 0 0 0
          0 0 0 0 0 0 0 0 0 0 0 0 0 0 0 0 0 0 0 0 0 0 0 0 0 0 0 0 0 0
          0 0 0 0 0 0 0 0 0 0 0 0 0 0 0 0 0 0 0 0 0 0 0 0 0 0 0 0 0 0
          0 0 0 0 0 0 0 0 0 0 0 0 0 0 0 0 0 0 0 0 0 0 0 0 0 0 0 0 0 0
          0 0 0 0 0 0 0 0 0 0 0 0 0 0 0 0 0 0 0 0 0 0 0 0 0 0 0 0 0 0
          0 0 0 0 0 0 0 0 0 0 0 0 0 0 0 0 0 0 0 0 0 0 0 0 0 0 0 0 0 0
          0 0 0 0 0 0 0 0 0 0 0 0 0 0 0 0 0 0 0 0 0 0 0 0 0 0 0 0 0 0
          0 0 0 0 0 0 0 0 0 0 0 0 0 0 0 0 0 0 0 0 0 0 0 0 0 0 0 0 0 0
          0 0 0 0 0 0 0 0 0 0 0 0 0 0 0 0 0 0 0 0 0 0 0 0 0 0 0 0 0 0
          0 0 0 0 0 0 0 0 0 0 0 0 0 0 0 0 0 0 0 0 0 0 0 0 0 0 0 0 0 0
          0 0 0 0 0 0 1 0 0 0 0 0 0 0 0 0 0 0 0 0 0 0 0 0 0 0 0 0 0 0
          0 0 0 0 0 0 0 0 0 0 0 0 0 0 0 0 0 0 0 0 0 0 0 0 0 0 0 0 0 0
          0 0 0 0 0 0 0 0 0 0 0 0 0 0 0 0 0 0 0 0 0 0 0 0 0 0 0 0 0 0
          0 0 0 0 0 0 0 0 0 0 0 0 0 0 0 0 0 0 0 0 0 0 0 0 0 0 0 0 0 0
          0 0 0 0 0 0 0 0 0 0 0 0 0 0 0 0 0 0 0 0 0 0 0 0 0 0 0 0 0 0
          0 0 0 0 0 0 0 0 0 0 0 0 0 0 0 0 0 0 0 0 0 0 0 0 0 0 0 0 0 0
          0 0 0 0 0 0 0 0 0 0 0 0 0 0 0 0 0 0 0 0 0 0 0 0 0 0 0 0 0 0
          0 0 0 0 0 0 0 0 0 0 0 0 0 0 0 0 0 0 0 0 0 0 0 0 0 0 0 0 0 0
          0 0 0 0 0 0 0 0 0 0 0 0 0 0 0 0 0 0 0 0 0 0 0 0 0 0 0 0 0 0
          0 0 0 0 0 0 0 0 0 0 0 0 0 0 0 0 0 0 0 0 0 0 0 0 0 0 0 0 0 0
          0 0 0 0 0 0 0 0 0 0 0 0 0 0 0 0 0 0 0 0 0 0 0 0 0 0 0 0 0 0
          0 0 0 0 0 0 0 0 0 0 0 0 0 0 0 0 0 0 0 0 0 0 0 0 0 0 0 0 0 0
          0 0 0 0 0 0 0 0 0 0 0 0 0 0 0 0 0 0 0 0 0 0 0 0 0 0 0 0 0 0
          0 0 0 0 0 0 0 0 0 0 0 0 0 0 0 0 0 0 0 0 0 0 0 0 0 0 0 0 0 0
          0 0 0 0 0 0 0 0 0 0 0 0 0 0 0 0 0 0 0 0 0 0 0 0 0 0 0 0 0 0
          0 0 0 0 0 0 0 0 0
        </DataArray>
        <DataArray type="UInt32" Name="support_right_line" format="ascii">
          0 0 0 0 0 0 0 0 0 0 0 0 0 0 0 0 0 0 0 0 0 0 0 0 0 0 0 0 0 0
          0 0 0 0 0 0 0 0 0 0 0 0 0 0 0 0 0 0 0 0 0 0 0 0 0 0 0 0 0 0
          0 0 0 0 0 0 0 0 0 0 0 0 0 0 0 0 0 0 0 0 0 0 0 0 0 0 0 0 0 0
          0 0 0 0 0 0 0 0 0 0 0 0 0 0 0 0 0 0 0 0 0 0 0 0 0 0 0 0 0 0
          0 0 0 0 0 0 0 0 0 0 0 0 0 0 0 0 0 0 0 0 0 0 0 0 0 0 0 0 0 0
          0 0 0 0 0 0 0 0 0 0 0 0 0 0 0 0 0 0 0 0 0 0 0 0 0 0 0 0 0 0
          0 0 0 0 0 0 0 0 0 0 0 0 0 0 0 0 0 0 0 0 0 0 0 0 0 0 0 0 0 0
          0 0 0 0 0 0 0 0 0 0 0 0 0 0 0 0 0 0 0 0 0 0 0 0 0 0 0 0 0 0
          0 0 0 0 0 0 0 0 0 0 0 0 0 0 0 0 0 0 0 0 0 0 0 0 0 0 0 0 0 0
          0 0 0 0 0 0 0 0 0 0 0 0 0 0 0 0 0 0 0 0 0 0 0 0 0 0 0 0 0 0
          0 0 0 0 0 0 0 0 0 0 0 0 0 0 0 0 0 0 0 0 0 0 0 0 0 0 0 0 0 0
          0 0 0 0 0 0 0 0 0 0 0 0 0 0 0 0 0 0 0 0 0 0 0 0 0 0 0 0 0 0
          0 0 0 0 0 0 0 0 0 0 0 0 0 0 0 0 0 0 0 0 0 0 0 0 0 0 0 0 0 0
          0 0 0 0 0 0 0 0 0 0 0 0 0 0 0 0 0 0 0 0 0 0 0 0 0 0 0 0 0 0
          0 0 0 0 0 0 0 0 0 0 0 0 0 0 0 0 0 0 0 0 0 0 0 0 0 0 0 0 0 0
          0 0 0 0 0 0 0 0 0 0 0 0 0 0 0 0 0 0 0 0 0 0 0 0 0 0 0 0 0 0
          0 0 0 0 0 0 0 0 0 0 0 0 0 0 0 0 0 0 0 0 0 0 0 0 0 0 0 0 0 0
          0 0 0 0 0 0 0 0 0 0 0 0 0 0 0 0 0 0 0 0 0 0 0 0 0 0 0 0 0 0
          0 0 0 0 0 0 0 0 0 0 0 0 0 0 0 0 0 0 0 0 0 0 0 0 0 0 0 0 0 0
          0 0 0 0 0 0 0 0 0 0 0 0 0 0 1 1 0 0 0 0 0 0 0 0 0 0 0 0 0 0
          0 0 0 0 0 0 0 0 0 0 0 0 0 0 0 0 0 0 0 0 0 0 0 0 0 0 0 0 0 0
          0 0 0 0 0 0 0 0 0 0 0 0 0 0 0 0 0 0 0 0 0 0 0 0 0 0 0 0 0 0
          0 0 0 0 0 0 0 0 0 0 0 0 0 0 0 0 0 0 0 0 0 0 0 0 0 0 0 0 0 0
          0 0 0 0 0 0 0 0 0 0 0 0 0 0 0 0 0 0 0 0 0 0 0 0 0 0 0 0 0 0
          0 0 0 0 0 0 0 0 0 0 0 0 0 0 0 0 0 0 0 0 0 0 0 0 0 0 0 0 0 0
          0 0 0 0 0 0 0 0 0 0 0 0 0 0 0 0 0 0 0 0 0 0 0 0 0 0 0 0 0 0
          0 0 0 0 0 0 0 0 0 0 0 0 0 0 0 0 0 0 0 0 0 0 0 0 0 0 0 0 0 0
          0 0 0 0 0 0 0 0 0 0 0 0 0 0 0 0 0 0 0 0 0 0 0 0 0 0 0 0 0 0
          0 0 0 0 0 0 0 0 0 0 0 0 0 0 0 0 0 0 0 0 0 0 0 0 0 0 0 0 0 0
          0 0 0 0 0 0 0 0 0 0 0 0 0 0 0 0 0 0 0 0 0 0 0 0 0 0 0 0 0 0
          0 0 0 0 0 0 0 0 0 0 0 0 0 0 0 0 0 0 0 0 0 0 0 0 0 0 0 0 0 0
          0 0 0 0 0 0 0 0 0 0 0 0 0 0 0 0 0 0 0 0 0 0 0 0 0 0 0 0 0 0
          0 0 0 0 0 0 0 0 0 0 0 0 0 0 0 0 0 0 0 0 0 0 0 0 0 0 0 0 0 0
          0 0 0 0 0 0 0 0 0 0 0 0 0 0 0 0 0 0 0 0 0 0 0 0 0 0 0 0 0 0
          0 0 0 0 0 0 0 0 0 0 0 0 0 0 0 0 0 0 0 0 0 0 0 0 0 0 0 0 0 0
          0 0 0 0 0 0 0 0 0 0 0 0 0 0 0 0 0 0 0 0 0 0 0 0 0 0 0 0 0 0
          0 0 0 0 0 0 0 0 0 0 0 0 0 0 0 0 0 0 0 0 0 0 0 0 0 0 0 0 0 0
          0 0 0 0 0 0 0 0 0 0 0 0 0 0 0 0 0 0 0 0 0 0 0 0 0 0 0 0 0 0
          0 0 0 0 0 0 0 0 0 0 0 0 0 0 0 0 0 0 0 0 0 0 0 0 0 0 0 0 0 0
          0 0 0 0 0 0 0 0 0 0 0 0 0 0 0 0 0 0 0 0 0 0 0 0 0 0 0 0 1 0
          0 0 0 0 0 0 0 0 0 0 0 0 0 0 0 0 0 0 0 0 0 0 0 0 0 0 0 0 0 0
          0 0 0 0 0 0 0 0 0 0 0 0 0 0 0 0 0 0 0 0 0 0 0 0 0 0 0 0 0 0
          0 0 0 0 0 0 0 0 0 0 0 0 0 0 0 0 0 0 0 0 0 0 0 0 0 0 0 0 0 0
          0 0 0 0 0 0 0 0 0 0 0 0 0 0 0 0 0 0 0 0 0 0 0 0 0 0 0 0 0 0
          0 0 0 0 0 0 0 0 0 0 0 0 0 0 0 0 0 0 0 0 0 0 0 0 0 0 0 0 0 0
          0 0 0 0 0 0 0 0 0
        </DataArray>
        <DataArray type="UInt32" Name="load_line_full_thickness" format="ascii">
          0 0 0 0 0 0 0 0 0 0 0 0 0 0 0 0 0 0 0 0 0 0 0 0 0 0 0 0 0 0
          0 0 0 0 0 0 0 0 0 0 0 0 0 0 0 0 0 0 0 0 0 0 0 0 0 0 0 0 0 0
          0 0 0 0 0 0 0 0 0 0 0 0 0 0 0 0 0 0 0 0 0 0 0 0 0 0 0 0 0 0
          0 0 0 0 0 0 0 0 0 0 0 0 0 0 0 0 0 0 0 0 0 0 0 0 0 0 0 0 0 0
          0 0 0 0 0 0 0 0 0 0 0 0 0 0 0 0 0 0 0 0 0 0 0 0 0 0 0 0 0 0
          0 0 0 0 0 0 0 0 0 0 0 0 0 0 0 0 0 0 0 0 0 0 0 0 0 0 0 0 0 0
          0 0 0 0 0 0 0 0 0 0 0 0 0 0 0 0 0 0 0 0 0 0 0 0 0 0 0 0 0 0
          0 0 0 0 0 0 0 0 0 0 0 0 0 0 0 0 0 0 0 0 0 0 0 0 0 0 0 0 0 0
          0 0 0 0 0 0 0 0 0 0 0 0 0 0 0 0 0 0 0 0 0 0 0 0 0 0 0 0 0 0
          0 0 0 0 0 0 0 0 0 0 0 0 0 0 0 0 0 0 0 0 0 0 0 0 0 0 0 0 0 0
          0 0 0 0 0 0 0 0 0 0 0 0 0 0 0 0 0 0 0 0 0 0 0 0 0 0 0 0 0 0
          0 0 0 0 0 0 0 0 0 0 0 0 0 0 0 0 0 0 0 0 0 0 0 0 0 0 0 0 0 0
          0 0 0 0 0 0 0 0 0 0 0 0 0 0 0 0 0 0 0 0 0 0 0 0 0 0 0 0 0 0
          0 0 0 0 0 0 0 0 0 0 0 0 0 0 0 0 0 0 0 0 0 0 0 0 0 0 0 0 0 0
          0 0 0 0 0 0 0 0 0 0 0 0 0 0 0 0 0 0 0 0 0 0 0 0 0 0 0 0 0 0
          0 0 0 0 0 0 0 0 0 0 1 1 0 0 0 0 0 0 0 0 0 0 0 0 0 0 0 0 0 0
          0 0 0 0 0 0 0 0 0 0 0 0 0 0 0 0 0 0 0 0 0 0 0 0 0 0 0 0 0 0
          0 0 0 0 0 0 0 0 0 0 0 0 0 0 0 0 0 0 0 0 0 0 0 0 0 0 0 0 0 0
          0 0 0 0 0 0 0 0 0 0 0 0 0 0 0 0 0 0 0 0 0 0 0 0 0 0 0 0 0 0
          0 0 0 0 0 0 0 0 0 0 0 0 0 0 0 0 0 0 0 0 0 0 0 0 0 0 0 0 0 0
          0 0 0 0 0 0 0 0 0 0 0 0 0 0 0 0 0 0 0 0 0 0 0 0 0 0 0 0 0 0
          0 0 0 0 0 0 0 0 0 0 0 0 0 0 0 0 0 0 0 0 0 0 0 0 0 0 0 0 0 0
          0 0 0 0 0 0 0 0 0 0 0 0 0 0 0 0 0 0 0 0 0 0 0 0 0 0 0 0 0 0
          0 0 0 0 0 0 0 0 0 0 0 0 0 0 0 0 0 0 0 0 0 0 0 0 0 0 0 0 0 0
          0 0 0 0 0 0 0 0 0 0 0 0 0 0 0 0 0 0 0 0 0 0 0 0 0 0 0 0 0 0
          0 0 0 0 0 0 0 0 0 0 0 0 0 0 0 0 0 0 0 0 0 0 0 0 0 0 0 0 0 0
          0 0 0 0 0 0 0 0 0 0 0 0 0 0 0 0 0 0 0 0 0 0 0 0 0 0 0 0 0 0
          0 0 0 0 0 0 0 0 0 0 0 0 0 0 0 0 0 0 0 0 0 0 0 0 0 0 0 0 0 0
          0 0 0 0 0 0 0 0 0 0 0 0 0 0 0 0 0 0 0 0 0 0 0 0 0 0 0 0 0 0
          0 0 0 0 0 0 0 0 0 0 0 0 0 0 0 0 0 0 0 0 0 0 0 0 0 0 0 0 0 0
          0 0 0 0 0 0 0 0 0 0 0 0 0 0 0 0 0 0 0 0 0 0 0 0 0 0 0 0 0 0
          0 0 0 0 0 0 0 0 0 0 0 0 0 0 0 0 0 0 0 0 0 0 0 0 0 0 0 0 0 0
          0 0 0 0 0 0 0 0 0 0 0 0 0 0 0 0 0 0 0 0 0 0 0 0 0 0 0 0 0 0
          0 0 0 0 0 0 0 0 0 0 0 0 0 0 0 0 0 0 0 0 0 0 0 0 0 0 0 0 0 0
          0 0 0 0 0 0 0 0 0 0 0 0 0 0 0 0 0 0 0 0 0 0 0 0 0 0 0 0 0 0
          0 0 0 0 0 0 0 0 0 0 0 0 0 0 0 0 0 0 0 0 0 0 0 0 0 0 0 0 0 0
          0 0 0 0 0 0 0 0 0 0 0 0 0 0 0 0 0 0 0 0 0 0 0 0 0 0 0 0 0 0
          0 0 0 0 0 0 0 0 0 0 0 0 0 0 0 0 0 0 0 0 0 0 0 0 0 0 1 0 0 0
          0 0 0 0 0 0 0 0 0 0 0 0 0 0 0 0 0 0 0 0 0 0 0 0 0 0 0 0 0 0
          0 0 0 0 0 0 0 0 0 0 0 0 0 0 0 0 0 0 0 0 0 0 0 0 0 0 0 0 0 0
          0 0 0 0 0 0 0 0 0 0 0 0 0 0 0 0 0 0 0 0 0 0 0 0 0 0 0 0 0 0
          0 0 0 0 0 0 0 0 0 0 0 0 0 0 0 0 0 0 0 0 0 0 0 0 0 0 0 0 0 0
          0 0 0 0 0 0 0 0 0 0 0 0 0 0 0 0 0 0 0 0 0 0 0 0 0 0 0 0 0 0
          0 0 0 0 0 0 0 0 0 0 0 0 0 0 0 0 0 0 0 0 0 0 0 0 0 0 0 0 0 0
          0 0 0 0 0 0 0 0 0 0 0 0 0 0 0 0 0 0 0 0 0 0 0 0 0 0 0 0 0 0
          0 0 0 0 0 0 0 0 0
        </DataArray>
        <DataArray type="UInt32" Name="symmetry_crack_plane" format="ascii">
          0 0 0 0 0 0 0 0 0 0 0 0 0 0 0 0 0 0 0 0 0 0 0 0 0 0 0 0 0 0
          0 0 0 0 0 0 0 0 0 0 0 0 0 0 0 0 0 0 0 0 0 0 0 0 0 0 0 0 0 0
          0 0 0 0 0 0 0 0 0 0 0 0 0 0 0 0 0 0 0 0 0 0 0 0 0 0 0 0 0 0
          0 0 0 0 0 0 0 0 0 0 0 0 0 0 0 0 0 0 0 0 0 0 0 0 0 0 0 0 0 0
          0 0 0 0 1 1 0 0 0 0 0 0 0 0 0 0 0 0 0 0 0 0 0 0 0 0 0 0 0 0
          0 0 0 0 0 0 0 0 0 0 0 0 0 0 0 0 1 1 0 0 0 0 0 0 0 0 0 0 0 0
          0 0 0 0 0 0 0 0 0 0 0 0 0 0 0 0 0 0 0 0 0 0 0 0 0 0 0 0 1 1
          0 0 0 0 0 0 0 0 0 0 0 0 0 0 0 0 0 0 0 0 0 0 0 0 0 0 0 0 0 0
          0 0 0 0 0 0 0 0 0 0 1 1 0 0 0 0 0 0 0 0 0 0 0 0 0 0 0 0 0 0
          0 0 0 0 0 0 0 0 0 0 0 0 0 0 0 0 0 0 0 0 0 0 1 1 0 0 0 0 0 0
          0 0 0 0 0 0 0 0 0 0 0 0 0 0 0 0 0 0 0 0 0 0 0 0 0 0 0 0 0 0
          0 0 0 0 1 1 0 0 0 0 0 0 0 0 0 0 0 0 0 0 0 0 0 0 0 0 0 0 0 0
          0 0 0 0 0 0 0 0 0 0 0 0 0 0 0 0 1 1 0 0 0 0 0 0 0 0 0 0 0 0
          0 0 0 0 0 0 0 0 0 0 0 0 0 0 0 0 0 0 0 0 0 0 0 0 0 0 0 0 1 1
          0 0 0 0 0 0 0 0 0 0 0 0 0 0 0 0 0 0 0 0 0 0 0 0 0 0 0 0 0 0
          0 0 0 0 0 0 0 0 0 0 1 1 0 0 0 0 0 0 0 0 0 0 0 0 0 0 0 0 0 0
          0 0 0 0 0 0 0 0 0 0 0 0 0 0 0 0 0 0 0 0 0 0 0 0 0 0 0 0 0 0
          0 0 0 0 0 0 0 0 0 0 0 0 0 0 0 0 0 0 0 0 0 0 0 0 0 0 0 0 0 0
          0 0 0 0 0 0 0 0 0 0 0 0 0 0 0 0 0 0 0 0 0 0 0 0 0 0 0 0 0 0
          0 0 0 0 0 0 0 0 0 0 0 0 0 0 0 0 0 0 0 0 0 0 0 0 0 0 0 0 0 0
          0 0 0 0 0 0 0 0 0 0 0 0 0 0 0 0 0 0 0 0 0 0 0 0 0 0 0 0 0 0
          0 0 0 0 0 0 0 0 0 0 0 0 0 0 0 0 0 0 0 0 0 0 0 0 0 0 0 0 0 0
          0 0 0 0 0 0 0 0 0 0 0 0 0 0 0 0 0 0 0 0 0 0 0 0 0 0 0 0 0 0
          0 0 0 0 0 0 0 0 0 0 0 0 0 0 0 0 0 0 0 0 0 0 0 0 0 0 0 0 0 0
          0 0 0 0 0 0 0 0 0 0 0 0 0 0 0 0 0 0 0 0 0 0 0 0 0 0 0 0 0 0
          0 0 0 0 0 0 0 0 0 0 0 0 0 0 0 0 0 0 0 0 0 0 0 0 0 0 0 0 0 0
          0 0 0 0 0 0 0 0 0 0 0 0 0 0 0 0 0 0 0 0 0 0 0 0 0 0 0 0 0 0
          0 0 0 0 0 0 0 0 0 0 0 0 0 0 0 0 0 0 0 0 0 0 0 0 0 0 0 0 0 0
          0 0 0 0 0 0 0 0 0 0 0 0 0 0 0 0 0 0 0 0 0 0 0 0 0 0 0 0 0 0
          0 0 0 0 0 0 0 0 0 0 0 0 0 0 0 0 0 0 0 0 0 0 0 0 0 0 0 0 0 0
          0 0 0 0 0 0 0 0 0 0 0 0 0 0 0 0 0 0 0 0 0 0 0 0 0 0 0 0 0 0
          0 0 0 0 0 0 0 0 0 0 0 0 0 0 0 0 0 0 0 0 0 0 0 0 0 0 0 0 0 0
          0 0 0 0 0 0 0 0 1 0 0 0 0 0 0 0 0 0 0 0 0 0 0 0 0 0 0 0 0 1
          0 0 0 0 0 0 0 0 0 0 0 0 0 0 0 0 0 0 0 0 1 0 0 0 0 0 0 0 0 0
          0 0 0 0 0 0 0 0 0 0 0 1 0 0 0 0 0 0 0 0 0 0 0 0 0 0 0 0 0 0
          0 0 1 0 0 0 0 0 0 0 0 0 0 0 0 0 0 0 0 0 0 0 0 1 0 0 0 0 0 0
          0 0 0 0 0 0 0 0 0 0 0 0 0 0 1 0 0 0 0 0 0 0 0 0 0 0 0 0 0 0
          0 0 0 0 0 1 0 0 0 0 0 0 0 0 0 0 0 0 0 0 0 0 0 0 0 0 1 0 0 0
          0 0 0 0 0 0 0 0 0 0 0 0 0 0 0 0 0 0 0 0 0 0 0 0 0 0 0 0 0 0
          0 0 0 0 0 0 0 0 0 0 0 0 0 0 0 0 0 0 0 0 0 0 0 0 0 0 0 0 0 0
          0 0 0 0 0 0 0 0 0 0 0 0 0 0 0 0 0 0 0 0 0 0 0 0 0 0 0 0 0 0
          0 0 0 0 0 0 0 0 0 0 0 0 0 0 0 0 0 0 0 0 0 0 0 0 0 0 0 0 0 0
          0 0 0 0 0 0 0 0 0 0 0 0 0 0 0 0 0 0 0 0 0 0 0 0 0 0 0 0 0 0
          0 0 0 0 0 0 0 0 0 0 0 0 0 0 0 0 0 0 0 0 0 0 0 0 0 0 0 0 0 0
          0 0 0 0 0 0 0 0 0 0 0 0 0 0 0 0 0 0 0 0 0 0 0 0 0 0 0 0 0 0
          0 0 0 0 0 0 0 0 0
        </DataArray>
        <DataArray type="UInt32" Name="starter_notch_flank_nodes" format="ascii">
          0 0 0 0 0 0 0 0 0 0 0 0 0 0 0 0 0 0 0 0 0 0 0 0 0 0 0 0 0 0
          0 0 0 0 0 0 0 0 0 0 0 0 0 0 0 0 0 0 0 0 0 0 0 0 0 0 0 0 0 0
          0 0 0 0 0 0 0 0 0 0 0 0 0 0 0 0 0 0 0 0 1 1 1 1 0 0 0 0 0 0
          0 0 0 0 0 0 0 0 0 0 0 0 0 0 0 0 0 0 0 0 0 0 0 0 0 0 0 0 0 0
          0 0 0 0 1 1 0 0 0 0 0 0 0 0 0 0 0 0 0 0 0 0 0 0 0 0 0 0 0 0
          0 0 0 0 0 0 0 0 0 0 0 0 0 0 0 0 0 0 0 0 0 0 0 0 0 0 0 0 0 0
          0 0 0 0 0 0 0 0 0 0 0 0 0 0 0 0 0 0 0 0 0 0 0 0 0 0 0 0 0 0
          0 0 0 0 0 0 0 0 0 0 0 0 0 0 0 0 0 0 0 0 0 0 0 0 0 0 0 0 0 0
          0 0 0 0 0 0 0 0 0 0 0 0 0 0 0 0 0 0 0 0 0 0 0 0 0 0 0 0 0 0
          0 0 0 0 0 0 0 0 0 0 0 0 0 0 0 0 0 0 0 0 0 0 0 0 0 0 0 0 0 0
          0 0 0 0 0 0 0 0 0 0 0 0 0 0 0 0 0 0 0 0 0 0 0 0 0 0 0 0 0 0
          0 0 0 0 0 0 0 0 0 0 0 0 0 0 0 0 0 0 0 0 0 0 0 0 0 0 0 0 0 0
          0 0 0 0 0 0 0 0 0 0 0 0 0 0 0 0 0 0 0 0 0 0 0 0 0 0 0 0 0 0
          0 0 0 0 0 0 0 0 0 0 0 0 0 0 0 0 0 0 0 0 0 0 0 0 0 0 0 0 0 0
          0 0 0 0 0 0 0 0 0 0 0 0 0 0 0 0 0 0 0 0 0 0 0 0 0 0 0 0 0 0
          0 0 0 0 0 0 0 0 0 0 0 0 1 1 0 0 0 0 1 1 0 0 0 0 0 0 0 0 0 0
          0 0 0 0 0 0 0 0 0 0 0 0 0 0 0 0 0 0 0 0 0 0 0 0 0 0 0 0 0 0
          0 0 0 0 0 0 0 0 0 0 0 0 0 0 0 0 0 0 0 0 0 0 0 0 0 0 0 0 0 0
          0 0 0 0 0 0 0 0 0 0 0 0 0 0 0 0 0 0 0 0 0 0 0 0 0 0 0 0 0 0
          0 0 0 0 0 0 0 0 0 0 0 0 0 0 0 0 0 0 0 0 0 0 0 0 0 0 0 0 0 0
          0 0 0 0 0 0 0 0 0 0 0 0 0 0 0 0 0 0 0 0 0 0 0 0 0 0 0 0 0 0
          0 0 0 0 0 0 0 0 0 0 0 0 0 0 0 0 0 0 0 0 0 0 0 0 0 0 0 0 0 0
          0 0 0 0 0 0 0 0 0 0 0 0 0 0 0 0 0 0 0 0 0 0 0 0 0 0 0 0 0 0
          0 0 0 0 0 0 0 0 0 0 0 0 0 0 0 0 0 0 0 0 0 0 0 0 0 0 0 0 0 0
          0 0 0 0 0 0 0 0 0 0 0 0 0 0 0 0 0 0 0 0 0 0 0 0 0 0 0 0 0 0
          0 0 0 0 0 0 0 0 0 0 0 0 0 0 0 0 0 0 0 0 0 0 0 0 0 0 0 0 0 0
          0 0 0 0 0 0 0 0 0 0 0 0 0 0 0 0 0 0 0 0 0 0 0 0 0 0 0 0 0 0
          0 0 0 0 0 0 0 0 0 0 0 0 0 0 0 0 0 0 0 0 0 0 0 0 0 0 0 0 0 0
          0 0 0 0 0 0 0 0 0 0 0 0 0 0 0 0 0 0 0 0 0 0 0 0 0 0 0 0 0 0
          0 0 0 0 0 0 0 0 0 0 0 0 0 0 0 0 0 0 0 0 0 0 0 0 0 0 0 0 0 0
          0 0 0 0 0 0 0 0 0 0 0 0 0 0 0 0 0 0 0 0 0 0 0 0 0 0 0 0 0 0
          0 0 0 0 0 0 0 0 0 0 0 0 0 0 0 0 1 1 0 0 0 0 0 0 0 0 0 0 0 0
          0 0 0 0 0 0 0 0 1 0 0 0 0 0 0 0 0 0 0 0 0 0 0 0 0 0 0 0 0 0
          0 0 0 0 0 0 0 0 0 0 0 0 0 0 0 0 0 0 0 0 0 0 0 0 0 0 0 0 0 0
          0 0 0 0 0 0 0 0 0 0 0 0 0 0 0 0 0 0 0 0 0 0 0 0 0 0 0 0 0 0
          0 0 0 0 0 0 0 0 0 0 0 0 0 0 0 0 0 0 0 0 0 0 0 0 0 0 0 0 0 0
          0 0 0 0 0 0 0 0 0 0 0 0 0 0 0 0 0 0 0 0 0 0 0 0 0 0 0 0 0 0
          0 0 0 0 0 0 0 0 0 0 0 0 0 0 0 0 0 0 0 0 0 0 0 0 0 0 0 1 0 0
          1 0 0 0 0 0 0 0 0 0 0 0 0 0 0 0 0 0 0 0 0 0 0 0 0 0 0 0 0 0
          0 0 0 0 0 0 0 0 0 0 0 0 0 0 0 0 0 0 0 0 0 0 0 0 0 0 0 0 0 0
          0 0 0 0 0 0 0 0 0 0 0 0 0 0 0 0 0 0 0 0 0 0 0 0 0 0 0 0 0 0
          0 0 0 0 0 0 0 0 0 0 0 0 0 0 0 0 0 0 0 0 0 0 0 0 0 0 0 0 0 0
          0 0 0 0 0 0 0 0 0 0 0 0 0 0 0 0 0 0 0 0 0 0 0 0 0 0 0 0 0 0
          0 0 0 0 0 0 0 0 0 0 0 0 0 0 0 0 0 0 0 0 0 0 0 0 0 0 0 0 0 0
          0 0 0 0 0 0 0 0 0 0 0 0 0 0 0 0 0 0 0 0 0 0 0 0 0 0 0 0 0 0
          0 0 0 0 0 0 0 0 0
        </DataArray>
        <DataArray type="UInt32" Name="potential_crack_path_nodes" format="ascii">
          0 0 0 0 0 0 0 0 0 0 0 0 0 0 0 0 0 0 0 0 0 0 0 0 0 0 0 0 0 0
          0 0 0 0 0 0 0 0 0 0 0 0 0 0 0 0 0 0 0 0 0 0 0 0 0 0 0 0 0 0
          0 0 0 0 0 0 0 0 0 0 0 0 0 0 0 0 0 0 0 0 0 0 0 0 0 0 0 0 0 0
          0 0 0 0 0 0 0 0 0 0 0 0 0 0 0 0 0 0 0 0 0 0 0 0 0 0 0 0 0 0
          0 0 0 0 1 1 0 0 0 0 0 0 0 0 0 0 0 0 0 0 0 0 0 0 0 0 0 0 0 0
          0 0 0 0 0 0 0 0 0 0 0 0 0 0 0 0 1 1 0 0 0 0 0 0 0 0 0 0 0 0
          0 0 0 0 0 0 0 0 0 0 0 0 0 0 0 0 0 0 0 0 0 0 0 0 0 0 0 0 1 1
          0 0 0 0 0 0 0 0 0 0 0 0 0 0 0 0 0 0 0 0 0 0 0 0 0 0 0 0 0 0
          0 0 0 0 0 0 0 0 0 0 1 1 0 0 0 0 0 0 0 0 0 0 0 0 0 0 0 0 0 0
          0 0 0 0 0 0 0 0 0 0 0 0 0 0 0 0 0 0 0 0 0 0 1 1 0 0 0 0 0 0
          0 0 0 0 0 0 0 0 0 0 0 0 0 0 0 0 0 0 0 0 0 0 0 0 0 0 0 0 0 0
          0 0 0 0 1 1 0 0 0 0 0 0 0 0 0 0 0 0 0 0 0 0 0 0 0 0 0 0 0 0
          0 0 0 0 0 0 0 0 0 0 0 0 0 0 0 0 1 1 0 0 0 0 0 0 0 0 0 0 0 0
          0 0 0 0 0 0 0 0 0 0 0 0 0 0 0 0 0 0 0 0 0 0 0 0 0 0 0 0 1 1
          0 0 0 0 0 0 0 0 0 0 0 0 0 0 0 0 0 0 0 0 0 0 0 0 0 0 0 0 0 0
          0 0 0 0 0 0 0 0 0 0 1 1 0 0 0 0 0 0 0 0 0 0 0 0 0 0 0 0 0 0
          0 0 0 0 0 0 0 0 0 0 0 0 0 0 0 0 0 0 0 0 0 0 0 0 0 0 0 0 0 0
          0 0 0 0 0 0 0 0 0 0 0 0 0 0 0 0 0 0 0 0 0 0 0 0 0 0 0 0 0 0
          0 0 0 0 0 0 0 0 0 0 0 0 0 0 0 0 0 0 0 0 0 0 0 0 0 0 0 0 0 0
          0 0 0 0 0 0 0 0 0 0 0 0 0 0 0 0 0 0 0 0 0 0 0 0 0 0 0 0 0 0
          0 0 0 0 0 0 0 0 0 0 0 0 0 0 0 0 0 0 0 0 0 0 0 0 0 0 0 0 0 0
          0 0 0 0 0 0 0 0 0 0 0 0 0 0 0 0 0 0 0 0 0 0 0 0 0 0 0 0 0 0
          0 0 0 0 0 0 0 0 0 0 0 0 0 0 0 0 0 0 0 0 0 0 0 0 0 0 0 0 0 0
          0 0 0 0 0 0 0 0 0 0 0 0 0 0 0 0 0 0 0 0 0 0 0 0 0 0 0 0 0 0
          0 0 0 0 0 0 0 0 0 0 0 0 0 0 0 0 0 0 0 0 0 0 0 0 0 0 0 0 0 0
          0 0 0 0 0 0 0 0 0 0 0 0 0 0 0 0 0 0 0 0 0 0 0 0 0 0 0 0 0 0
          0 0 0 0 0 0 0 0 0 0 0 0 0 0 0 0 0 0 0 0 0 0 0 0 0 0 0 0 0 0
          0 0 0 0 0 0 0 0 0 0 0 0 0 0 0 0 0 0 0 0 0 0 0 0 0 0 0 0 0 0
          0 0 0 0 0 0 0 0 0 0 0 0 0 0 0 0 0 0 0 0 0 0 0 0 0 0 0 0 0 0
          0 0 0 0 0 0 0 0 0 0 0 0 0 0 0 0 0 0 0 0 0 0 0 0 0 0 0 0 0 0
          0 0 0 0 0 0 0 0 0 0 0 0 0 0 0 0 0 0 0 0 0 0 0 0 0 0 0 0 0 0
          0 0 0 0 0 0 0 0 0 0 0 0 0 0 0 0 0 0 0 0 0 0 0 0 0 0 0 0 0 0
          0 0 0 0 0 0 0 0 1 0 0 0 0 0 0 0 0 0 0 0 0 0 0 0 0 0 0 0 0 1
          0 0 0 0 0 0 0 0 0 0 0 0 0 0 0 0 0 0 0 0 1 0 0 0 0 0 0 0 0 0
          0 0 0 0 0 0 0 0 0 0 0 1 0 0 0 0 0 0 0 0 0 0 0 0 0 0 0 0 0 0
          0 0 1 0 0 0 0 0 0 0 0 0 0 0 0 0 0 0 0 0 0 0 0 1 0 0 0 0 0 0
          0 0 0 0 0 0 0 0 0 0 0 0 0 0 1 0 0 0 0 0 0 0 0 0 0 0 0 0 0 0
          0 0 0 0 0 1 0 0 0 0 0 0 0 0 0 0 0 0 0 0 0 0 0 0 0 0 1 0 0 0
          0 0 0 0 0 0 0 0 0 0 0 0 0 0 0 0 0 0 0 0 0 0 0 0 0 0 0 0 0 0
          0 0 0 0 0 0 0 0 0 0 0 0 0 0 0 0 0 0 0 0 0 0 0 0 0 0 0 0 0 0
          0 0 0 0 0 0 0 0 0 0 0 0 0 0 0 0 0 0 0 0 0 0 0 0 0 0 0 0 0 0
          0 0 0 0 0 0 0 0 0 0 0 0 0 0 0 0 0 0 0 0 0 0 0 0 0 0 0 0 0 0
          0 0 0 0 0 0 0 0 0 0 0 0 0 0 0 0 0 0 0 0 0 0 0 0 0 0 0 0 0 0
          0 0 0 0 0 0 0 0 0 0 0 0 0 0 0 0 0 0 0 0 0 0 0 0 0 0 0 0 0 0
          0 0 0 0 0 0 0 0 0 0 0 0 0 0 0 0 0 0 0 0 0 0 0 0 0 0 0 0 0 0
          0 0 0 0 0 0 0 0 0
        </DataArray>
      </PointData>
      <CellData>
        <DataArray type="UInt32" Name="abaqus_element_id" format="ascii">
          1 2 3 4 5 6 7 8 9 10 11 12
          13 14 15 16 17 18 19 20 21 22 23 24
          25 26 27 28 29 30 31 32 33 34 35 36
          37 38 39 40 41 42 43 44 45 46 47 48
          49 50 51 52 53 54 55 56 57 58 59 60
          61 62 63 64 65 66 67 68 69 70 71 72
          73 74 75 76 77 78 79 80 81 82 83 84
          85 86 87 88 89 90 91 92 93 94 95 96
          97 98 99 100 101 102 103 104 105 106 107 108
          109 110 111 112 113 114 115 116 117 118 119 120
          121 122 123 124 125 126 127 128 129 130 131 132
          133 134 135 136 137 138 139 140 141 142 143 144
          145 146 147 148 149 150 151 152 153 154 155 156
          157 158 159 160 161 162 163 164 165 166 167 168
          169 170 171 172 173 174 175 176 177 178 179 180
          181 182 183 184 185 186 187 188 189 190 191 192
          193 194 195 196 197 198 199 200 201 202 203 204
          205 206 207 208 209 210 211 212 213 214 215 216
          217 218 219 220 221 222 223 224 225 226 227 228
          229 230 231 232 233 234 235 236 237 238 239 240
          241 242 243 244 245 246 247 248 249 250 251 252
          253 254 255 256 257 258 259 260 261 262 263 264
          265 266 267 268 269 270 271 272 273 274 275 276
          277 278 279 280 281 282 283 284 285 286 287 288
          289 290 291 292 293 294 295 296 297 298 299 300
          301 302 303 304 305 306 307 308 309 310 311 312
          313 314 315 316 317 318 319 320 321 322 323 324
          325 326 327 328 329 330 331 332 333 334 335 336
          337 338 339 340 341 342 343 344 345 346 347 348
          349 350 351 352 353 354 355 356 357 358 359 360
          361 362 363 364 365 366 367 368 369 370 371 372
          373 374 375 376 377 378 379 380 381 382 383 384
          385 386 387 388 389 390 391 392 393 394 395 396
          397 398 399 400 401 402 403 404 405 406 407 408
          409 410 411 412 413 414 415 416 417 418 419 420
          421 422 423 424 425 426 427 428 429 430 431 432
          433 434 435 436 437 438 439 440 441 442 443 444
          445 446 447 448 449 450 451 452 453 454 455 456
          457 458 459 460 461 462 463 464 465 466 467 468
          469 470 471 472 473 474 475 476 477 478 479 480
          481 482 483 484 485 486 487 488 489 490 491 492
          493 494 495 496 497 498 499 500 501 502 503 504
          505 506 507 508 509 510 511 512 513 514 515 516
          517 518 519 520 521 522 523 524 525 526 527 528
          529 530 531 532 533 534 535 536 537 538 539 540
          541 542 543 544 545 546 547 548 549 550 551 552
          553 554 555 556 557 558 559 560 561 562 563 564
          565 566 567 568 569 570 571 572 573 574 575 576
          577 578 579 580 581 582 583 584 585 586 587 588
          589 590 591 592 593 594 595 596 597 598 599 600
          601 602 603 604 605 606 607 608 609 610 611 612
          613 614 615 616 617 618 619 620 621 622 623 624
          625 626 627 628 629 630 631 632 633 634 635 636
          637 638 639 640 641 642 643 644 645 646 647 648
          649 650 651 652 653 654 655 656 657 658 659 660
          661 662 663 664 665 666 667 668 669 670 671 672
          673 674 675 676 677 678 679 680 681 682 683 684
          685 686 687 688 689 690 691 692 693 694 695 696
          697 698 699 700 701 702 703 704 705 706 707 708
          709 710 711 712 713 714 715 716 717 718 719 720
          721 722 723 724 725 726 727 728 729 730 731 732
          733 734 735 736 737 738 739 740 741 742 743 744
          745 746 747 748 749 750 751 752 753 754 755 756
          757 758 759 760 761 762 763 764 765 766 767 768
          769 770 771 772 773 774 775 776 777 778 779 780
          781 782 783 784 785 786 787 788 789 790 791 792
          793 794 795 796 797 798 799 800
        </DataArray>
      </CellData>
      <Points>
        <DataArray type="Float64" Name="Points" NumberOfComponents="3" format="ascii">
          0.0 0.0 -0.05 0.0 0.0 0.0 0.2759316 0.0 -0.05
          0.2759316 0.0 0.0 0.2794691 0.2 -0.05 0.2794691 0.2 6.938894e-18
          0.0 0.2 -0.05 0.0 0.2 0.0 0.5412504 0.0 -0.05
          0.5412504 0.0 0.0 0.5481895 0.2 -0.05 0.5481895 0.2 6.938894e-18
          0.7963646 0.0 -0.05 0.7963646 0.0 0.0 0.8065744 0.2 -0.05
          0.8065744 0.2 6.938894e-18 1.041667 0.0 -0.05 1.041667 0.0 0.0
          1.055021 0.2 -0.05 1.055021 0.2 6.938894e-18 1.277534 0.0 -0.05
          1.277534 0.0 0.0 1.293913 0.2 -0.05 1.293913 0.2 6.938894e-18
          1.50433 0.0 -0.05 1.50433 0.0 0.0 1.523616 0.2 -0.05
          1.523616 0.2 6.938894e-18 1.722403 0.0 -0.05 1.722403 0.0 0.0
          1.744485 0.2 -0.05 1.744485 0.2 6.938894e-18 1.932088 0.0 -0.05
          1.932088 0.0 0.0 1.956858 0.2 -0.05 1.956858 0.2 6.938894e-18
          2.133708 0.0 -0.05 2.133708 0.0 0.0 2.161064 0.2 -0.05
          2.161064 0.2 6.938894e-18 2.327574 0.0 -0.05 2.327574 0.0 0.0
          2.357415 0.2 -0.05 2.357415 0.2 6.938894e-18 2.513984 0.0 -0.05
          2.513984 0.0 0.0 2.546214 0.2 -0.05 2.546214 0.2 6.938894e-18
          2.693224 0.0 -0.05 2.693224 0.0 0.0 2.727752 0.2 -0.05
          2.727752 0.2 6.938894e-18 2.86557 0.0 -0.05 2.86557 0.0 0.0
          2.902308 0.2 -0.05 2.902308 0.2 6.938894e-18 3.031287 0.0 -0.05
          3.031287 0.0 0.0 3.07015 0.2 -0.05 3.07015 0.2 6.938894e-18
          3.190631 0.0 -0.05 3.190631 0.0 0.0 3.231536 0.2 -0.05
          3.231536 0.2 6.938894e-18 3.343846 0.0 -0.05 3.343846 0.0 0.0
          3.386715 0.2 -0.05 3.386715 0.2 6.938894e-18 3.491168 0.0 -0.05
          3.491168 0.0 0.0 3.535926 0.2 -0.05 3.535926 0.2 6.938894e-18
          3.632824 0.0 -0.05 3.632824 0.0 0.0 3.679398 0.2 -0.05
          3.679398 0.2 6.938894e-18 3.769031 0.0 -0.05 3.769031 0.0 0.0
          3.817352 0.2 -0.05 3.817352 0.2 6.938894e-18 3.9 0.0 -0.05
          3.9 0.0 0.0 3.95 0.2 -0.05 3.95 0.2 0.0
          0.2830067 0.4 -0.05 0.2830067 0.4 0.0 0.0 0.4 -0.05
          0.0 0.4 0.0 0.5551286 0.4 -0.05 0.5551286 0.4 0.0
          0.8167842 0.4 -0.05 0.8167842 0.4 0.0 1.068376 0.4 -0.05
          1.068376 0.4 0.0 1.310292 0.4 -0.05 1.310292 0.4 0.0
          1.542902 0.4 -0.05 1.542902 0.4 0.0 1.766567 0.4 -0.05
          1.766567 0.4 0.0 1.981629 0.4 -0.05 1.981629 0.4 0.0
          2.188419 0.4 -0.05 2.188419 0.4 0.0 2.387256 0.4 -0.05
          2.387256 0.4 0.0 2.578445 0.4 -0.05 2.578445 0.4 0.0
          2.762281 0.4 -0.05 2.762281 0.4 0.0 2.939046 0.4 -0.05
          2.939046 0.4 0.0 3.109012 0.4 -0.05 3.109012 0.4 0.0
          3.272442 0.4 -0.05 3.272442 0.4 0.0 3.429585 0.4 -0.05
          3.429585 0.4 0.0 3.580685 0.4 -0.05 3.580685 0.4 0.0
          3.725973 0.4 -0.05 3.725973 0.4 0.0 3.865673 0.4 -0.05
          3.865673 0.4 0.0 4.0 0.4 -0.05 4.0 0.4 0.0
          0.2830067 0.6 -0.05 0.2830067 0.6 0.0 0.0 0.6 -0.05
          0.0 0.6 0.0 0.5551286 0.6 -0.05 0.5551286 0.6 0.0
          0.8167842 0.6 -0.05 0.8167842 0.6 0.0 1.068376 0.6 -0.05
          1.068376 0.6 0.0 1.310292 0.6 -0.05 1.310292 0.6 0.0
          1.542902 0.6 -0.05 1.542902 0.6 0.0 1.766567 0.6 -0.05
          1.766567 0.6 0.0 1.981629 0.6 -0.05 1.981629 0.6 0.0
          2.188419 0.6 -0.05 2.188419 0.6 0.0 2.387256 0.6 -0.05
          2.387256 0.6 0.0 2.578445 0.6 -0.05 2.578445 0.6 0.0
          2.762281 0.6 -0.05 2.762281 0.6 0.0 2.939046 0.6 -0.05
          2.939046 0.6 0.0 3.109012 0.6 -0.05 3.109012 0.6 0.0
          3.272442 0.6 -0.05 3.272442 0.6 0.0 3.429585 0.6 -0.05
          3.429585 0.6 0.0 3.580685 0.6 -0.05 3.580685 0.6 0.0
          3.725973 0.6 -0.05 3.725973 0.6 0.0 3.865673 0.6 -0.05
          3.865673 0.6 0.0 4.0 0.6 -0.05 4.0 0.6 0.0
          0.2830067 0.8 -0.05 0.2830067 0.8 0.0 0.0 0.8 -0.05
          0.0 0.8 0.0 0.5551286 0.8 -0.05 0.5551286 0.8 0.0
          0.8167842 0.8 -0.05 0.8167842 0.8 0.0 1.068376 0.8 -0.05
          1.068376 0.8 0.0 1.310292 0.8 -0.05 1.310292 0.8 0.0
          1.542902 0.8 -0.05 1.542902 0.8 0.0 1.766567 0.8 -0.05
          1.766567 0.8 0.0 1.981629 0.8 -0.05 1.981629 0.8 0.0
          2.188419 0.8 -0.05 2.188419 0.8 0.0 2.387256 0.8 -0.05
          2.387256 0.8 0.0 2.578445 0.8 -0.05 2.578445 0.8 0.0
          2.762281 0.8 -0.05 2.762281 0.8 0.0 2.939046 0.8 -0.05
          2.939046 0.8 0.0 3.109012 0.8 -0.05 3.109012 0.8 0.0
          3.272442 0.8 -0.05 3.272442 0.8 0.0 3.429585 0.8 -0.05
          3.429585 0.8 0.0 3.580685 0.8 -0.05 3.580685 0.8 0.0
          3.725973 0.8 -0.05 3.725973 0.8 0.0 3.865673 0.8 -0.05
          3.865673 0.8 0.0 4.0 0.8 -0.05 4.0 0.8 0.0
          0.2830067 1.0 -0.05 0.2830067 1.0 0.0 0.0 1.0 -0.05
          0.0 1.0 0.0 0.5551286 1.0 -0.05 0.5551286 1.0 0.0
          0.8167842 1.0 -0.05 0.8167842 1.0 0.0 1.068376 1.0 -0.05
          1.068376 1.0 0.0 1.310292 1.0 -0.05 1.310292 1.0 0.0
          1.542902 1.0 -0.05 1.542902 1.0 0.0 1.766567 1.0 -0.05
          1.766567 1.0 0.0 1.981629 1.0 -0.05 1.981629 1.0 0.0
          2.188419 1.0 -0.05 2.188419 1.0 0.0 2.387256 1.0 -0.05
          2.387256 1.0 0.0 2.578445 1.0 -0.05 2.578445 1.0 0.0
          2.762281 1.0 -0.05 2.762281 1.0 0.0 2.939046 1.0 -0.05
          2.939046 1.0 0.0 3.109012 1.0 -0.05 3.109012 1.0 0.0
          3.272442 1.0 -0.05 3.272442 1.0 0.0 3.429585 1.0 -0.05
          3.429585 1.0 0.0 3.580685 1.0 -0.05 3.580685 1.0 0.0
          3.725973 1.0 -0.05 3.725973 1.0 0.0 3.865673 1.0 -0.05
          3.865673 1.0 0.0 4.0 1.0 -0.05 4.0 1.0 0.0
          0.2830067 1.2 -0.05 0.2830067 1.2 0.0 0.0 1.2 -0.05
          0.0 1.2 0.0 0.5551286 1.2 -0.05 0.5551286 1.2 0.0
          0.8167842 1.2 -0.05 0.8167842 1.2 0.0 1.068376 1.2 -0.05
          1.068376 1.2 0.0 1.310292 1.2 -0.05 1.310292 1.2 0.0
          1.542902 1.2 -0.05 1.542902 1.2 0.0 1.766567 1.2 -0.05
          1.766567 1.2 0.0 1.981629 1.2 -0.05 1.981629 1.2 0.0
          2.188419 1.2 -0.05 2.188419 1.2 0.0 2.387256 1.2 -0.05
          2.387256 1.2 0.0 2.578445 1.2 -0.05 2.578445 1.2 0.0
          2.762281 1.2 -0.05 2.762281 1.2 0.0 2.939046 1.2 -0.05
          2.939046 1.2 0.0 3.109012 1.2 -0.05 3.109012 1.2 0.0
          3.272442 1.2 -0.05 3.272442 1.2 0.0 3.429585 1.2 -0.05
          3.429585 1.2 0.0 3.580685 1.2 -0.05 3.580685 1.2 0.0
          3.725973 1.2 -0.05 3.725973 1.2 0.0 3.865673 1.2 -0.05
          3.865673 1.2 0.0 4.0 1.2 -0.05 4.0 1.2 0.0
          0.2830067 1.4 -0.05 0.2830067 1.4 0.0 0.0 1.4 -0.05
          0.0 1.4 0.0 0.5551286 1.4 -0.05 0.5551286 1.4 0.0
          0.8167842 1.4 -0.05 0.8167842 1.4 0.0 1.068376 1.4 -0.05
          1.068376 1.4 0.0 1.310292 1.4 -0.05 1.310292 1.4 0.0
          1.542902 1.4 -0.05 1.542902 1.4 0.0 1.766567 1.4 -0.05
          1.766567 1.4 0.0 1.981629 1.4 -0.05 1.981629 1.4 0.0
          2.188419 1.4 -0.05 2.188419 1.4 0.0 2.387256 1.4 -0.05
          2.387256 1.4 0.0 2.578445 1.4 -0.05 2.578445 1.4 0.0
          2.762281 1.4 -0.05 2.762281 1.4 0.0 2.939046 1.4 -0.05
          2.939046 1.4 0.0 3.109012 1.4 -0.05 3.109012 1.4 0.0
          3.272442 1.4 -0.05 3.272442 1.4 0.0 3.429585 1.4 -0.05
          3.429585 1.4 0.0 3.580685 1.4 -0.05 3.580685 1.4 0.0
          3.725973 1.4 -0.05 3.725973 1.4 0.0 3.865673 1.4 -0.05
          3.865673 1.4 0.0 4.0 1.4 -0.05 4.0 1.4 0.0
          0.2830067 1.6 -0.05 0.2830067 1.6 0.0 0.0 1.6 -0.05
          0.0 1.6 0.0 0.5551286 1.6 -0.05 0.5551286 1.6 0.0
          0.8167842 1.6 -0.05 0.8167842 1.6 0.0 1.068376 1.6 -0.05
          1.068376 1.6 0.0 1.310292 1.6 -0.05 1.310292 1.6 0.0
          1.542902 1.6 -0.05 1.542902 1.6 0.0 1.766567 1.6 -0.05
          1.766567 1.6 0.0 1.981629 1.6 -0.05 1.981629 1.6 0.0
          2.188419 1.6 -0.05 2.188419 1.6 0.0 2.387256 1.6 -0.05
          2.387256 1.6 0.0 2.578445 1.6 -0.05 2.578445 1.6 0.0
          2.762281 1.6 -0.05 2.762281 1.6 0.0 2.939046 1.6 -0.05
          2.939046 1.6 0.0 3.109012 1.6 -0.05 3.109012 1.6 0.0
          3.272442 1.6 -0.05 3.272442 1.6 0.0 3.429585 1.6 -0.05
          3.429585 1.6 0.0 3.580685 1.6 -0.05 3.580685 1.6 0.0
          3.725973 1.6 -0.05 3.725973 1.6 0.0 3.865673 1.6 -0.05
          3.865673 1.6 0.0 4.0 1.6 -0.05 4.0 1.6 0.0
          0.2830067 1.8 -0.05 0.2830067 1.8 0.0 0.0 1.8 -0.05
          0.0 1.8 0.0 0.5551286 1.8 -0.05 0.5551286 1.8 0.0
          0.8167842 1.8 -0.05 0.8167842 1.8 0.0 1.068376 1.8 -0.05
          1.068376 1.8 0.0 1.310292 1.8 -0.05 1.310292 1.8 0.0
          1.542902 1.8 -0.05 1.542902 1.8 0.0 1.766567 1.8 -0.05
          1.766567 1.8 0.0 1.981629 1.8 -0.05 1.981629 1.8 0.0
          2.188419 1.8 -0.05 2.188419 1.8 0.0 2.387256 1.8 -0.05
          2.387256 1.8 0.0 2.578445 1.8 -0.05 2.578445 1.8 0.0
          2.762281 1.8 -0.05 2.762281 1.8 0.0 2.939046 1.8 -0.05
          2.939046 1.8 0.0 3.109012 1.8 -0.05 3.109012 1.8 0.0
          3.272442 1.8 -0.05 3.272442 1.8 0.0 3.429585 1.8 -0.05
          3.429585 1.8 0.0 3.580685 1.8 -0.05 3.580685 1.8 0.0
          3.725973 1.8 -0.05 3.725973 1.8 0.0 3.865673 1.8 -0.05
          3.865673 1.8 0.0 4.0 1.8 -0.05 4.0 1.8 0.0
          0.2830067 2.0 -0.05 0.2830067 2.0 0.0 0.0 2.0 -0.05
          0.0 2.0 0.0 0.5551286 2.0 -0.05 0.5551286 2.0 0.0
          0.8167842 2.0 -0.05 0.8167842 2.0 0.0 1.068376 2.0 -0.05
          1.068376 2.0 0.0 1.310292 2.0 -0.05 1.310292 2.0 0.0
          1.542902 2.0 -0.05 1.542902 2.0 0.0 1.766567 2.0 -0.05
          1.766567 2.0 0.0 1.981629 2.0 -0.05 1.981629 2.0 0.0
          2.188419 2.0 -0.05 2.188419 2.0 0.0 2.387256 2.0 -0.05
          2.387256 2.0 0.0 2.578445 2.0 -0.05 2.578445 2.0 0.0
          2.762281 2.0 -0.05 2.762281 2.0 0.0 2.939046 2.0 -0.05
          2.939046 2.0 0.0 3.109012 2.0 -0.05 3.109012 2.0 0.0
          3.272442 2.0 -0.05 3.272442 2.0 0.0 3.429585 2.0 -0.05
          3.429585 2.0 0.0 3.580685 2.0 -0.05 3.580685 2.0 0.0
          3.725973 2.0 -0.05 3.725973 2.0 0.0 3.865673 2.0 -0.05
          3.865673 2.0 0.0 4.0 2.0 -0.05 4.0 2.0 0.0
          4.05 0.2 -0.05 4.05 0.2 0.0 4.182648 0.2 -0.05
          4.182648 0.2 1.387779e-17 4.134327 0.4 -0.05 4.134327 0.4 0.0
          4.1 0.0 -0.05 4.1 0.0 0.0 4.230969 0.0 -0.05
          4.230969 0.0 0.0 4.320602 0.2 -0.05 4.320602 0.2 1.387779e-17
          4.274027 0.4 -0.05 4.274027 0.4 0.0 4.367176 0.0 -0.05
          4.367176 0.0 0.0 4.464074 0.2 -0.05 4.464074 0.2 1.387779e-17
          4.419315 0.4 -0.05 4.419315 0.4 0.0 4.508832 0.0 -0.05
          4.508832 0.0 0.0 4.613285 0.2 -0.05 4.613285 0.2 1.387779e-17
          4.570415 0.4 -0.05 4.570415 0.4 0.0 4.656154 0.0 -0.05
          4.656154 0.0 0.0 4.768464 0.2 -0.05 4.768464 0.2 1.387779e-17
          4.727558 0.4 -0.05 4.727558 0.4 0.0 4.809369 0.0 -0.05
          4.809369 0.0 0.0 4.92985 0.2 -0.05 4.92985 0.2 1.387779e-17
          4.890988 0.4 -0.05 4.890988 0.4 0.0 4.968713 0.0 -0.05
          4.968713 0.0 0.0 5.097692 0.2 -0.05 5.097692 0.2 1.387779e-17
          5.060954 0.4 -0.05 5.060954 0.4 0.0 5.13443 0.0 -0.05
          5.13443 0.0 0.0 5.272248 0.2 -0.05 5.272248 0.2 1.387779e-17
          5.237719 0.4 -0.05 5.237719 0.4 0.0 5.306776 0.0 -0.05
          5.306776 0.0 0.0 5.453786 0.2 -0.05 5.453786 0.2 1.387779e-17
          5.421555 0.4 -0.05 5.421555 0.4 0.0 5.486016 0.0 -0.05
          5.486016 0.0 0.0 5.642585 0.2 -0.05 5.642585 0.2 1.387779e-17
          5.612744 0.4 -0.05 5.612744 0.4 0.0 5.672426 0.0 -0.05
          5.672426 0.0 0.0 5.838936 0.2 -0.05 5.838936 0.2 1.387779e-17
          5.811581 0.4 -0.05 5.811581 0.4 0.0 5.866292 0.0 -0.05
          5.866292 0.0 0.0 6.043142 0.2 -0.05 6.043142 0.2 1.387779e-17
          6.018371 0.4 -0.05 6.018371 0.4 0.0 6.067912 0.0 -0.05
          6.067912 0.0 0.0 6.255515 0.2 -0.05 6.255515 0.2 1.387779e-17
          6.233433 0.4 -0.05 6.233433 0.4 0.0 6.277597 0.0 -0.05
          6.277597 0.0 0.0 6.476384 0.2 -0.05 6.476384 0.2 1.387779e-17
          6.457098 0.4 -0.05 6.457098 0.4 0.0 6.49567 0.0 -0.05
          6.49567 0.0 0.0 6.706087 0.2 -0.05 6.706087 0.2 1.387779e-17
          6.689708 0.4 -0.05 6.689708 0.4 0.0 6.722466 0.0 -0.05
          6.722466 0.0 0.0 6.944979 0.2 -0.05 6.944979 0.2 1.387779e-17
          6.931624 0.4 -0.05 6.931624 0.4 0.0 6.958333 0.0 -0.05
          6.958333 0.0 0.0 7.193426 0.2 -0.05 7.193426 0.2 1.387779e-17
          7.183216 0.4 -0.05 7.183216 0.4 0.0 7.203635 0.0 -0.05
          7.203635 0.0 0.0 7.451811 0.2 -0.05 7.451811 0.2 1.387779e-17
          7.444871 0.4 -0.05 7.444871 0.4 0.0 7.45875 0.0 -0.05
          7.45875 0.0 0.0 7.720531 0.2 -0.05 7.720531 0.2 1.387779e-17
          7.716993 0.4 -0.05 7.716993 0.4 0.0 7.724068 0.0 -0.05
          7.724068 0.0 0.0 8.0 0.2 -0.05 8.0 0.2 0.0
          8.0 0.4 -0.05 8.0 0.4 0.0 8.0 0.0 -0.05
          8.0 0.0 0.0 4.134327 0.6 -0.05 4.134327 0.6 0.0
          4.274027 0.6 -0.05 4.274027 0.6 0.0 4.419315 0.6 -0.05
          4.419315 0.6 0.0 4.570415 0.6 -0.05 4.570415 0.6 0.0
          4.727558 0.6 -0.05 4.727558 0.6 0.0 4.890988 0.6 -0.05
          4.890988 0.6 0.0 5.060954 0.6 -0.05 5.060954 0.6 0.0
          5.237719 0.6 -0.05 5.237719 0.6 0.0 5.421555 0.6 -0.05
          5.421555 0.6 0.0 5.612744 0.6 -0.05 5.612744 0.6 0.0
          5.811581 0.6 -0.05 5.811581 0.6 0.0 6.018371 0.6 -0.05
          6.018371 0.6 0.0 6.233433 0.6 -0.05 6.233433 0.6 0.0
          6.457098 0.6 -0.05 6.457098 0.6 0.0 6.689708 0.6 -0.05
          6.689708 0.6 0.0 6.931624 0.6 -0.05 6.931624 0.6 0.0
          7.183216 0.6 -0.05 7.183216 0.6 0.0 7.444871 0.6 -0.05
          7.444871 0.6 0.0 7.716993 0.6 -0.05 7.716993 0.6 0.0
          8.0 0.6 -0.05 8.0 0.6 0.0 4.134327 0.8 -0.05
          4.134327 0.8 0.0 4.274027 0.8 -0.05 4.274027 0.8 0.0
          4.419315 0.8 -0.05 4.419315 0.8 0.0 4.570415 0.8 -0.05
          4.570415 0.8 0.0 4.727558 0.8 -0.05 4.727558 0.8 0.0
          4.890988 0.8 -0.05 4.890988 0.8 0.0 5.060954 0.8 -0.05
          5.060954 0.8 0.0 5.237719 0.8 -0.05 5.237719 0.8 0.0
          5.421555 0.8 -0.05 5.421555 0.8 0.0 5.612744 0.8 -0.05
          5.612744 0.8 0.0 5.811581 0.8 -0.05 5.811581 0.8 0.0
          6.018371 0.8 -0.05 6.018371 0.8 0.0 6.233433 0.8 -0.05
          6.233433 0.8 0.0 6.457098 0.8 -0.05 6.457098 0.8 0.0
          6.689708 0.8 -0.05 6.689708 0.8 0.0 6.931624 0.8 -0.05
          6.931624 0.8 0.0 7.183216 0.8 -0.05 7.183216 0.8 0.0
          7.444871 0.8 -0.05 7.444871 0.8 0.0 7.716993 0.8 -0.05
          7.716993 0.8 0.0 8.0 0.8 -0.05 8.0 0.8 0.0
          4.134327 1.0 -0.05 4.134327 1.0 0.0 4.274027 1.0 -0.05
          4.274027 1.0 0.0 4.419315 1.0 -0.05 4.419315 1.0 0.0
          4.570415 1.0 -0.05 4.570415 1.0 0.0 4.727558 1.0 -0.05
          4.727558 1.0 0.0 4.890988 1.0 -0.05 4.890988 1.0 0.0
          5.060954 1.0 -0.05 5.060954 1.0 0.0 5.237719 1.0 -0.05
          5.237719 1.0 0.0 5.421555 1.0 -0.05 5.421555 1.0 0.0
          5.612744 1.0 -0.05 5.612744 1.0 0.0 5.811581 1.0 -0.05
          5.811581 1.0 0.0 6.018371 1.0 -0.05 6.018371 1.0 0.0
          6.233433 1.0 -0.05 6.233433 1.0 0.0 6.457098 1.0 -0.05
          6.457098 1.0 0.0 6.689708 1.0 -0.05 6.689708 1.0 0.0
          6.931624 1.0 -0.05 6.931624 1.0 0.0 7.183216 1.0 -0.05
          7.183216 1.0 0.0 7.444871 1.0 -0.05 7.444871 1.0 0.0
          7.716993 1.0 -0.05 7.716993 1.0 0.0 8.0 1.0 -0.05
          8.0 1.0 0.0 4.134327 1.2 -0.05 4.134327 1.2 0.0
          4.274027 1.2 -0.05 4.274027 1.2 0.0 4.419315 1.2 -0.05
          4.419315 1.2 0.0 4.570415 1.2 -0.05 4.570415 1.2 0.0
          4.727558 1.2 -0.05 4.727558 1.2 0.0 4.890988 1.2 -0.05
          4.890988 1.2 0.0 5.060954 1.2 -0.05 5.060954 1.2 0.0
          5.237719 1.2 -0.05 5.237719 1.2 0.0 5.421555 1.2 -0.05
          5.421555 1.2 0.0 5.612744 1.2 -0.05 5.612744 1.2 0.0
          5.811581 1.2 -0.05 5.811581 1.2 0.0 6.018371 1.2 -0.05
          6.018371 1.2 0.0 6.233433 1.2 -0.05 6.233433 1.2 0.0
          6.457098 1.2 -0.05 6.457098 1.2 0.0 6.689708 1.2 -0.05
          6.689708 1.2 0.0 6.931624 1.2 -0.05 6.931624 1.2 0.0
          7.183216 1.2 -0.05 7.183216 1.2 0.0 7.444871 1.2 -0.05
          7.444871 1.2 0.0 7.716993 1.2 -0.05 7.716993 1.2 0.0
          8.0 1.2 -0.05 8.0 1.2 0.0 4.134327 1.4 -0.05
          4.134327 1.4 0.0 4.274027 1.4 -0.05 4.274027 1.4 0.0
          4.419315 1.4 -0.05 4.419315 1.4 0.0 4.570415 1.4 -0.05
          4.570415 1.4 0.0 4.727558 1.4 -0.05 4.727558 1.4 0.0
          4.890988 1.4 -0.05 4.890988 1.4 0.0 5.060954 1.4 -0.05
          5.060954 1.4 0.0 5.237719 1.4 -0.05 5.237719 1.4 0.0
          5.421555 1.4 -0.05 5.421555 1.4 0.0 5.612744 1.4 -0.05
          5.612744 1.4 0.0 5.811581 1.4 -0.05 5.811581 1.4 0.0
          6.018371 1.4 -0.05 6.018371 1.4 0.0 6.233433 1.4 -0.05
          6.233433 1.4 0.0 6.457098 1.4 -0.05 6.457098 1.4 0.0
          6.689708 1.4 -0.05 6.689708 1.4 0.0 6.931624 1.4 -0.05
          6.931624 1.4 0.0 7.183216 1.4 -0.05 7.183216 1.4 0.0
          7.444871 1.4 -0.05 7.444871 1.4 0.0 7.716993 1.4 -0.05
          7.716993 1.4 0.0 8.0 1.4 -0.05 8.0 1.4 0.0
          4.134327 1.6 -0.05 4.134327 1.6 0.0 4.274027 1.6 -0.05
          4.274027 1.6 0.0 4.419315 1.6 -0.05 4.419315 1.6 0.0
          4.570415 1.6 -0.05 4.570415 1.6 0.0 4.727558 1.6 -0.05
          4.727558 1.6 0.0 4.890988 1.6 -0.05 4.890988 1.6 0.0
          5.060954 1.6 -0.05 5.060954 1.6 0.0 5.237719 1.6 -0.05
          5.237719 1.6 0.0 5.421555 1.6 -0.05 5.421555 1.6 0.0
          5.612744 1.6 -0.05 5.612744 1.6 0.0 5.811581 1.6 -0.05
          5.811581 1.6 0.0 6.018371 1.6 -0.05 6.018371 1.6 0.0
          6.233433 1.6 -0.05 6.233433 1.6 0.0 6.457098 1.6 -0.05
          6.457098 1.6 0.0 6.689708 1.6 -0.05 6.689708 1.6 0.0
          6.931624 1.6 -0.05 6.931624 1.6 0.0 7.183216 1.6 -0.05
          7.183216 1.6 0.0 7.444871 1.6 -0.05 7.444871 1.6 0.0
          7.716993 1.6 -0.05 7.716993 1.6 0.0 8.0 1.6 -0.05
          8.0 1.6 0.0 4.134327 1.8 -0.05 4.134327 1.8 0.0
          4.274027 1.8 -0.05 4.274027 1.8 0.0 4.419315 1.8 -0.05
          4.419315 1.8 0.0 4.570415 1.8 -0.05 4.570415 1.8 0.0
          4.727558 1.8 -0.05 4.727558 1.8 0.0 4.890988 1.8 -0.05
          4.890988 1.8 0.0 5.060954 1.8 -0.05 5.060954 1.8 0.0
          5.237719 1.8 -0.05 5.237719 1.8 0.0 5.421555 1.8 -0.05
          5.421555 1.8 0.0 5.612744 1.8 -0.05 5.612744 1.8 0.0
          5.811581 1.8 -0.05 5.811581 1.8 0.0 6.018371 1.8 -0.05
          6.018371 1.8 0.0 6.233433 1.8 -0.05 6.233433 1.8 0.0
          6.457098 1.8 -0.05 6.457098 1.8 0.0 6.689708 1.8 -0.05
          6.689708 1.8 0.0 6.931624 1.8 -0.05 6.931624 1.8 0.0
          7.183216 1.8 -0.05 7.183216 1.8 0.0 7.444871 1.8 -0.05
          7.444871 1.8 0.0 7.716993 1.8 -0.05 7.716993 1.8 0.0
          8.0 1.8 -0.05 8.0 1.8 0.0 4.134327 2.0 -0.05
          4.134327 2.0 0.0 4.274027 2.0 -0.05 4.274027 2.0 0.0
          4.419315 2.0 -0.05 4.419315 2.0 0.0 4.570415 2.0 -0.05
          4.570415 2.0 0.0 4.727558 2.0 -0.05 4.727558 2.0 0.0
          4.890988 2.0 -0.05 4.890988 2.0 0.0 5.060954 2.0 -0.05
          5.060954 2.0 0.0 5.237719 2.0 -0.05 5.237719 2.0 0.0
          5.421555 2.0 -0.05 5.421555 2.0 0.0 5.612744 2.0 -0.05
          5.612744 2.0 0.0 5.811581 2.0 -0.05 5.811581 2.0 0.0
          6.018371 2.0 -0.05 6.018371 2.0 0.0 6.233433 2.0 -0.05
          6.233433 2.0 0.0 6.457098 2.0 -0.05 6.457098 2.0 0.0
          6.689708 2.0 -0.05 6.689708 2.0 0.0 6.931624 2.0 -0.05
          6.931624 2.0 0.0 7.183216 2.0 -0.05 7.183216 2.0 0.0
          7.444871 2.0 -0.05 7.444871 2.0 0.0 7.716993 2.0 -0.05
          7.716993 2.0 0.0 8.0 2.0 -0.05 8.0 2.0 0.0
          0.0 0.0 0.05 0.2759316 0.0 0.05 0.2794691 0.2 0.05
          0.0 0.2 0.05 0.5412504 0.0 0.05 0.5481895 0.2 0.05
          0.7963646 0.0 0.05 0.8065744 0.2 0.05 1.041667 0.0 0.05
          1.055021 0.2 0.05 1.277534 0.0 0.05 1.293913 0.2 0.05
          1.50433 0.0 0.05 1.523616 0.2 0.05 1.722403 0.0 0.05
          1.744485 0.2 0.05 1.932088 0.0 0.05 1.956858 0.2 0.05
          2.133708 0.0 0.05 2.161064 0.2 0.05 2.327574 0.0 0.05
          2.357415 0.2 0.05 2.513984 0.0 0.05 2.546214 0.2 0.05
          2.693224 0.0 0.05 2.727752 0.2 0.05 2.86557 0.0 0.05
          2.902308 0.2 0.05 3.031287 0.0 0.05 3.07015 0.2 0.05
          3.190631 0.0 0.05 3.231536 0.2 0.05 3.343846 0.0 0.05
          3.386715 0.2 0.05 3.491168 0.0 0.05 3.535926 0.2 0.05
          3.632824 0.0 0.05 3.679398 0.2 0.05 3.769031 0.0 0.05
          3.817352 0.2 0.05 3.9 0.0 0.05 3.95 0.2 0.05
          0.2830067 0.4 0.05 0.0 0.4 0.05 0.5551286 0.4 0.05
          0.8167842 0.4 0.05 1.068376 0.4 0.05 1.310292 0.4 0.05
          1.542902 0.4 0.05 1.766567 0.4 0.05 1.981629 0.4 0.05
          2.188419 0.4 0.05 2.387256 0.4 0.05 2.578445 0.4 0.05
          2.762281 0.4 0.05 2.939046 0.4 0.05 3.109012 0.4 0.05
          3.272442 0.4 0.05 3.429585 0.4 0.05 3.580685 0.4 0.05
          3.725973 0.4 0.05 3.865673 0.4 0.05 4.0 0.4 0.05
          0.2830067 0.6 0.05 0.0 0.6 0.05 0.5551286 0.6 0.05
          0.8167842 0.6 0.05 1.068376 0.6 0.05 1.310292 0.6 0.05
          1.542902 0.6 0.05 1.766567 0.6 0.05 1.981629 0.6 0.05
          2.188419 0.6 0.05 2.387256 0.6 0.05 2.578445 0.6 0.05
          2.762281 0.6 0.05 2.939046 0.6 0.05 3.109012 0.6 0.05
          3.272442 0.6 0.05 3.429585 0.6 0.05 3.580685 0.6 0.05
          3.725973 0.6 0.05 3.865673 0.6 0.05 4.0 0.6 0.05
          0.2830067 0.8 0.05 0.0 0.8 0.05 0.5551286 0.8 0.05
          0.8167842 0.8 0.05 1.068376 0.8 0.05 1.310292 0.8 0.05
          1.542902 0.8 0.05 1.766567 0.8 0.05 1.981629 0.8 0.05
          2.188419 0.8 0.05 2.387256 0.8 0.05 2.578445 0.8 0.05
          2.762281 0.8 0.05 2.939046 0.8 0.05 3.109012 0.8 0.05
          3.272442 0.8 0.05 3.429585 0.8 0.05 3.580685 0.8 0.05
          3.725973 0.8 0.05 3.865673 0.8 0.05 4.0 0.8 0.05
          0.2830067 1.0 0.05 0.0 1.0 0.05 0.5551286 1.0 0.05
          0.8167842 1.0 0.05 1.068376 1.0 0.05 1.310292 1.0 0.05
          1.542902 1.0 0.05 1.766567 1.0 0.05 1.981629 1.0 0.05
          2.188419 1.0 0.05 2.387256 1.0 0.05 2.578445 1.0 0.05
          2.762281 1.0 0.05 2.939046 1.0 0.05 3.109012 1.0 0.05
          3.272442 1.0 0.05 3.429585 1.0 0.05 3.580685 1.0 0.05
          3.725973 1.0 0.05 3.865673 1.0 0.05 4.0 1.0 0.05
          0.2830067 1.2 0.05 0.0 1.2 0.05 0.5551286 1.2 0.05
          0.8167842 1.2 0.05 1.068376 1.2 0.05 1.310292 1.2 0.05
          1.542902 1.2 0.05 1.766567 1.2 0.05 1.981629 1.2 0.05
          2.188419 1.2 0.05 2.387256 1.2 0.05 2.578445 1.2 0.05
          2.762281 1.2 0.05 2.939046 1.2 0.05 3.109012 1.2 0.05
          3.272442 1.2 0.05 3.429585 1.2 0.05 3.580685 1.2 0.05
          3.725973 1.2 0.05 3.865673 1.2 0.05 4.0 1.2 0.05
          0.2830067 1.4 0.05 0.0 1.4 0.05 0.5551286 1.4 0.05
          0.8167842 1.4 0.05 1.068376 1.4 0.05 1.310292 1.4 0.05
          1.542902 1.4 0.05 1.766567 1.4 0.05 1.981629 1.4 0.05
          2.188419 1.4 0.05 2.387256 1.4 0.05 2.578445 1.4 0.05
          2.762281 1.4 0.05 2.939046 1.4 0.05 3.109012 1.4 0.05
          3.272442 1.4 0.05 3.429585 1.4 0.05 3.580685 1.4 0.05
          3.725973 1.4 0.05 3.865673 1.4 0.05 4.0 1.4 0.05
          0.2830067 1.6 0.05 0.0 1.6 0.05 0.5551286 1.6 0.05
          0.8167842 1.6 0.05 1.068376 1.6 0.05 1.310292 1.6 0.05
          1.542902 1.6 0.05 1.766567 1.6 0.05 1.981629 1.6 0.05
          2.188419 1.6 0.05 2.387256 1.6 0.05 2.578445 1.6 0.05
          2.762281 1.6 0.05 2.939046 1.6 0.05 3.109012 1.6 0.05
          3.272442 1.6 0.05 3.429585 1.6 0.05 3.580685 1.6 0.05
          3.725973 1.6 0.05 3.865673 1.6 0.05 4.0 1.6 0.05
          0.2830067 1.8 0.05 0.0 1.8 0.05 0.5551286 1.8 0.05
          0.8167842 1.8 0.05 1.068376 1.8 0.05 1.310292 1.8 0.05
          1.542902 1.8 0.05 1.766567 1.8 0.05 1.981629 1.8 0.05
          2.188419 1.8 0.05 2.387256 1.8 0.05 2.578445 1.8 0.05
          2.762281 1.8 0.05 2.939046 1.8 0.05 3.109012 1.8 0.05
          3.272442 1.8 0.05 3.429585 1.8 0.05 3.580685 1.8 0.05
          3.725973 1.8 0.05 3.865673 1.8 0.05 4.0 1.8 0.05
          0.2830067 2.0 0.05 0.0 2.0 0.05 0.5551286 2.0 0.05
          0.8167842 2.0 0.05 1.068376 2.0 0.05 1.310292 2.0 0.05
          1.542902 2.0 0.05 1.766567 2.0 0.05 1.981629 2.0 0.05
          2.188419 2.0 0.05 2.387256 2.0 0.05 2.578445 2.0 0.05
          2.762281 2.0 0.05 2.939046 2.0 0.05 3.109012 2.0 0.05
          3.272442 2.0 0.05 3.429585 2.0 0.05 3.580685 2.0 0.05
          3.725973 2.0 0.05 3.865673 2.0 0.05 4.0 2.0 0.05
          4.05 0.2 0.05 4.182648 0.2 0.05 4.134327 0.4 0.05
          4.1 0.0 0.05 4.230969 0.0 0.05 4.320602 0.2 0.05
          4.274027 0.4 0.05 4.367176 0.0 0.05 4.464074 0.2 0.05
          4.419315 0.4 0.05 4.508832 0.0 0.05 4.613285 0.2 0.05
          4.570415 0.4 0.05 4.656154 0.0 0.05 4.768464 0.2 0.05
          4.727558 0.4 0.05 4.809369 0.0 0.05 4.92985 0.2 0.05
          4.890988 0.4 0.05 4.968713 0.0 0.05 5.097692 0.2 0.05
          5.060954 0.4 0.05 5.13443 0.0 0.05 5.272248 0.2 0.05
          5.237719 0.4 0.05 5.306776 0.0 0.05 5.453786 0.2 0.05
          5.421555 0.4 0.05 5.486016 0.0 0.05 5.642585 0.2 0.05
          5.612744 0.4 0.05 5.672426 0.0 0.05 5.838936 0.2 0.05
          5.811581 0.4 0.05 5.866292 0.0 0.05 6.043142 0.2 0.05
          6.018371 0.4 0.05 6.067912 0.0 0.05 6.255515 0.2 0.05
          6.233433 0.4 0.05 6.277597 0.0 0.05 6.476384 0.2 0.05
          6.457098 0.4 0.05 6.49567 0.0 0.05 6.706087 0.2 0.05
          6.689708 0.4 0.05 6.722466 0.0 0.05 6.944979 0.2 0.05
          6.931624 0.4 0.05 6.958333 0.0 0.05 7.193426 0.2 0.05
          7.183216 0.4 0.05 7.203635 0.0 0.05 7.451811 0.2 0.05
          7.444871 0.4 0.05 7.45875 0.0 0.05 7.720531 0.2 0.05
          7.716993 0.4 0.05 7.724068 0.0 0.05 8.0 0.2 0.05
          8.0 0.4 0.05 8.0 0.0 0.05 4.134327 0.6 0.05
          4.274027 0.6 0.05 4.419315 0.6 0.05 4.570415 0.6 0.05
          4.727558 0.6 0.05 4.890988 0.6 0.05 5.060954 0.6 0.05
          5.237719 0.6 0.05 5.421555 0.6 0.05 5.612744 0.6 0.05
          5.811581 0.6 0.05 6.018371 0.6 0.05 6.233433 0.6 0.05
          6.457098 0.6 0.05 6.689708 0.6 0.05 6.931624 0.6 0.05
          7.183216 0.6 0.05 7.444871 0.6 0.05 7.716993 0.6 0.05
          8.0 0.6 0.05 4.134327 0.8 0.05 4.274027 0.8 0.05
          4.419315 0.8 0.05 4.570415 0.8 0.05 4.727558 0.8 0.05
          4.890988 0.8 0.05 5.060954 0.8 0.05 5.237719 0.8 0.05
          5.421555 0.8 0.05 5.612744 0.8 0.05 5.811581 0.8 0.05
          6.018371 0.8 0.05 6.233433 0.8 0.05 6.457098 0.8 0.05
          6.689708 0.8 0.05 6.931624 0.8 0.05 7.183216 0.8 0.05
          7.444871 0.8 0.05 7.716993 0.8 0.05 8.0 0.8 0.05
          4.134327 1.0 0.05 4.274027 1.0 0.05 4.419315 1.0 0.05
          4.570415 1.0 0.05 4.727558 1.0 0.05 4.890988 1.0 0.05
          5.060954 1.0 0.05 5.237719 1.0 0.05 5.421555 1.0 0.05
          5.612744 1.0 0.05 5.811581 1.0 0.05 6.018371 1.0 0.05
          6.233433 1.0 0.05 6.457098 1.0 0.05 6.689708 1.0 0.05
          6.931624 1.0 0.05 7.183216 1.0 0.05 7.444871 1.0 0.05
          7.716993 1.0 0.05 8.0 1.0 0.05 4.134327 1.2 0.05
          4.274027 1.2 0.05 4.419315 1.2 0.05 4.570415 1.2 0.05
          4.727558 1.2 0.05 4.890988 1.2 0.05 5.060954 1.2 0.05
          5.237719 1.2 0.05 5.421555 1.2 0.05 5.612744 1.2 0.05
          5.811581 1.2 0.05 6.018371 1.2 0.05 6.233433 1.2 0.05
          6.457098 1.2 0.05 6.689708 1.2 0.05 6.931624 1.2 0.05
          7.183216 1.2 0.05 7.444871 1.2 0.05 7.716993 1.2 0.05
          8.0 1.2 0.05 4.134327 1.4 0.05 4.274027 1.4 0.05
          4.419315 1.4 0.05 4.570415 1.4 0.05 4.727558 1.4 0.05
          4.890988 1.4 0.05 5.060954 1.4 0.05 5.237719 1.4 0.05
          5.421555 1.4 0.05 5.612744 1.4 0.05 5.811581 1.4 0.05
          6.018371 1.4 0.05 6.233433 1.4 0.05 6.457098 1.4 0.05
          6.689708 1.4 0.05 6.931624 1.4 0.05 7.183216 1.4 0.05
          7.444871 1.4 0.05 7.716993 1.4 0.05 8.0 1.4 0.05
          4.134327 1.6 0.05 4.274027 1.6 0.05 4.419315 1.6 0.05
          4.570415 1.6 0.05 4.727558 1.6 0.05 4.890988 1.6 0.05
          5.060954 1.6 0.05 5.237719 1.6 0.05 5.421555 1.6 0.05
          5.612744 1.6 0.05 5.811581 1.6 0.05 6.018371 1.6 0.05
          6.233433 1.6 0.05 6.457098 1.6 0.05 6.689708 1.6 0.05
          6.931624 1.6 0.05 7.183216 1.6 0.05 7.444871 1.6 0.05
          7.716993 1.6 0.05 8.0 1.6 0.05 4.134327 1.8 0.05
          4.274027 1.8 0.05 4.419315 1.8 0.05 4.570415 1.8 0.05
          4.727558 1.8 0.05 4.890988 1.8 0.05 5.060954 1.8 0.05
          5.237719 1.8 0.05 5.421555 1.8 0.05 5.612744 1.8 0.05
          5.811581 1.8 0.05 6.018371 1.8 0.05 6.233433 1.8 0.05
          6.457098 1.8 0.05 6.689708 1.8 0.05 6.931624 1.8 0.05
          7.183216 1.8 0.05 7.444871 1.8 0.05 7.716993 1.8 0.05
          8.0 1.8 0.05 4.134327 2.0 0.05 4.274027 2.0 0.05
          4.419315 2.0 0.05 4.570415 2.0 0.05 4.727558 2.0 0.05
          4.890988 2.0 0.05 5.060954 2.0 0.05 5.237719 2.0 0.05
          5.421555 2.0 0.05 5.612744 2.0 0.05 5.811581 2.0 0.05
          6.018371 2.0 0.05 6.233433 2.0 0.05 6.457098 2.0 0.05
          6.689708 2.0 0.05 6.931624 2.0 0.05 7.183216 2.0 0.05
          7.444871 2.0 0.05 7.716993 2.0 0.05 8.0 2.0 0.05
        </DataArray>
      </Points>
      <Cells>
        <DataArray type="Int64" Name="connectivity" format="ascii">
          0 2 4 6 1 3 5 7 2 8 10 4 3 9 11 5
          8 12 14 10 9 13 15 11 12 16 18 14 13 17 19 15
          16 20 22 18 17 21 23 19 20 24 26 22 21 25 27 23
          24 28 30 26 25 29 31 27 28 32 34 30 29 33 35 31
          32 36 38 34 33 37 39 35 36 40 42 38 37 41 43 39
          40 44 46 42 41 45 47 43 44 48 50 46 45 49 51 47
          48 52 54 50 49 53 55 51 52 56 58 54 53 57 59 55
          56 60 62 58 57 61 63 59 60 64 66 62 61 65 67 63
          64 68 70 66 65 69 71 67 68 72 74 70 69 73 75 71
          72 76 78 74 73 77 79 75 76 80 82 78 77 81 83 79
          6 4 84 86 7 5 85 87 4 10 88 84 5 11 89 85
          10 14 90 88 11 15 91 89 14 18 92 90 15 19 93 91
          18 22 94 92 19 23 95 93 22 26 96 94 23 27 97 95
          26 30 98 96 27 31 99 97 30 34 100 98 31 35 101 99
          34 38 102 100 35 39 103 101 38 42 104 102 39 43 105 103
          42 46 106 104 43 47 107 105 46 50 108 106 47 51 109 107
          50 54 110 108 51 55 111 109 54 58 112 110 55 59 113 111
          58 62 114 112 59 63 115 113 62 66 116 114 63 67 117 115
          66 70 118 116 67 71 119 117 70 74 120 118 71 75 121 119
          74 78 122 120 75 79 123 121 78 82 124 122 79 83 125 123
          86 84 126 128 87 85 127 129 84 88 130 126 85 89 131 127
          88 90 132 130 89 91 133 131 90 92 134 132 91 93 135 133
          92 94 136 134 93 95 137 135 94 96 138 136 95 97 139 137
          96 98 140 138 97 99 141 139 98 100 142 140 99 101 143 141
          100 102 144 142 101 103 145 143 102 104 146 144 103 105 147 145
          104 106 148 146 105 107 149 147 106 108 150 148 107 109 151 149
          108 110 152 150 109 111 153 151 110 112 154 152 111 113 155 153
          112 114 156 154 113 115 157 155 114 116 158 156 115 117 159 157
          116 118 160 158 117 119 161 159 118 120 162 160 119 121 163 161
          120 122 164 162 121 123 165 163 122 124 166 164 123 125 167 165
          128 126 168 170 129 127 169 171 126 130 172 168 127 131 173 169
          130 132 174 172 131 133 175 173 132 134 176 174 133 135 177 175
          134 136 178 176 135 137 179 177 136 138 180 178 137 139 181 179
          138 140 182 180 139 141 183 181 140 142 184 182 141 143 185 183
          142 144 186 184 143 145 187 185 144 146 188 186 145 147 189 187
          146 148 190 188 147 149 191 189 148 150 192 190 149 151 193 191
          150 152 194 192 151 153 195 193 152 154 196 194 153 155 197 195
          154 156 198 196 155 157 199 197 156 158 200 198 157 159 201 199
          158 160 202 200 159 161 203 201 160 162 204 202 161 163 205 203
          162 164 206 204 163 165 207 205 164 166 208 206 165 167 209 207
          170 168 210 212 171 169 211 213 168 172 214 210 169 173 215 211
          172 174 216 214 173 175 217 215 174 176 218 216 175 177 219 217
          176 178 220 218 177 179 221 219 178 180 222 220 179 181 223 221
          180 182 224 222 181 183 225 223 182 184 226 224 183 185 227 225
          184 186 228 226 185 187 229 227 186 188 230 228 187 189 231 229
          188 190 232 230 189 191 233 231 190 192 234 232 191 193 235 233
          192 194 236 234 193 195 237 235 194 196 238 236 195 197 239 237
          196 198 240 238 197 199 241 239 198 200 242 240 199 201 243 241
          200 202 244 242 201 203 245 243 202 204 246 244 203 205 247 245
          204 206 248 246 205 207 249 247 206 208 250 248 207 209 251 249
          212 210 252 254 213 211 253 255 210 214 256 252 211 215 257 253
          214 216 258 256 215 217 259 257 216 218 260 258 217 219 261 259
          218 220 262 260 219 221 263 261 220 222 264 262 221 223 265 263
          222 224 266 264 223 225 267 265 224 226 268 266 225 227 269 267
          226 228 270 268 227 229 271 269 228 230 272 270 229 231 273 271
          230 232 274 272 231 233 275 273 232 234 276 274 233 235 277 275
          234 236 278 276 235 237 279 277 236 238 280 278 237 239 281 279
          238 240 282 280 239 241 283 281 240 242 284 282 241 243 285 283
          242 244 286 284 243 245 287 285 244 246 288 286 245 247 289 287
          246 248 290 288 247 249 291 289 248 250 292 290 249 251 293 291
          254 252 294 296 255 253 295 297 252 256 298 294 253 257 299 295
          256 258 300 298 257 259 301 299 258 260 302 300 259 261 303 301
          260 262 304 302 261 263 305 303 262 264 306 304 263 265 307 305
          264 266 308 306 265 267 309 307 266 268 310 308 267 269 311 309
          268 270 312 310 269 271 313 311 270 272 314 312 271 273 315 313
          272 274 316 314 273 275 317 315 274 276 318 316 275 277 319 317
          276 278 320 318 277 279 321 319 278 280 322 320 279 281 323 321
          280 282 324 322 281 283 325 323 282 284 326 324 283 285 327 325
          284 286 328 326 285 287 329 327 286 288 330 328 287 289 331 329
          288 290 332 330 289 291 333 331 290 292 334 332 291 293 335 333
          296 294 336 338 297 295 337 339 294 298 340 336 295 299 341 337
          298 300 342 340 299 301 343 341 300 302 344 342 301 303 345 343
          302 304 346 344 303 305 347 345 304 306 348 346 305 307 349 347
          306 308 350 348 307 309 351 349 308 310 352 350 309 311 353 351
          310 312 354 352 311 313 355 353 312 314 356 354 313 315 357 355
          314 316 358 356 315 317 359 357 316 318 360 358 317 319 361 359
          318 320 362 360 319 321 363 361 320 322 364 362 321 323 365 363
          322 324 366 364 323 325 367 365 324 326 368 366 325 327 369 367
          326 328 370 368 327 329 371 369 328 330 372 370 329 331 373 371
          330 332 374 372 331 333 375 373 332 334 376 374 333 335 377 375
          338 336 378 380 339 337 379 381 336 340 382 378 337 341 383 379
          340 342 384 382 341 343 385 383 342 344 386 384 343 345 387 385
          344 346 388 386 345 347 389 387 346 348 390 388 347 349 391 389
          348 350 392 390 349 351 393 391 350 352 394 392 351 353 395 393
          352 354 396 394 353 355 397 395 354 356 398 396 355 357 399 397
          356 358 400 398 357 359 401 399 358 360 402 400 359 361 403 401
          360 362 404 402 361 363 405 403 362 364 406 404 363 365 407 405
          364 366 408 406 365 367 409 407 366 368 410 408 367 369 411 409
          368 370 412 410 369 371 413 411 370 372 414 412 371 373 415 413
          372 374 416 414 373 375 417 415 374 376 418 416 375 377 419 417
          380 378 420 422 381 379 421 423 378 382 424 420 379 383 425 421
          382 384 426 424 383 385 427 425 384 386 428 426 385 387 429 427
          386 388 430 428 387 389 431 429 388 390 432 430 389 391 433 431
          390 392 434 432 391 393 435 433 392 394 436 434 393 395 437 435
          394 396 438 436 395 397 439 437 396 398 440 438 397 399 441 439
          398 400 442 440 399 401 443 441 400 402 444 442 401 403 445 443
          402 404 446 444 403 405 447 445 404 406 448 446 405 407 449 447
          406 408 450 448 407 409 451 449 408 410 452 450 409 411 453 451
          410 412 454 452 411 413 455 453 412 414 456 454 413 415 457 455
          414 416 458 456 415 417 459 457 416 418 460 458 417 419 461 459
          124 462 464 466 125 463 465 467 462 468 470 464 463 469 471 465
          466 464 472 474 467 465 473 475 464 470 476 472 465 471 477 473
          474 472 478 480 475 473 479 481 472 476 482 478 473 477 483 479
          480 478 484 486 481 479 485 487 478 482 488 484 479 483 489 485
          486 484 490 492 487 485 491 493 484 488 494 490 485 489 495 491
          492 490 496 498 493 491 497 499 490 494 500 496 491 495 501 497
          498 496 502 504 499 497 503 505 496 500 506 502 497 501 507 503
          504 502 508 510 505 503 509 511 502 506 512 508 503 507 513 509
          510 508 514 516 511 509 515 517 508 512 518 514 509 513 519 515
          516 514 520 522 517 515 521 523 514 518 524 520 515 519 525 521
          522 520 526 528 523 521 527 529 520 524 530 526 521 525 531 527
          528 526 532 534 529 527 533 535 526 530 536 532 527 531 537 533
          534 532 538 540 535 533 539 541 532 536 542 538 533 537 543 539
          540 538 544 546 541 539 545 547 538 542 548 544 539 543 549 545
          546 544 550 552 547 545 551 553 544 548 554 550 545 549 555 551
          552 550 556 558 553 551 557 559 550 554 560 556 551 555 561 557
          558 556 562 564 559 557 563 565 556 560 566 562 557 561 567 563
          564 562 568 570 565 563 569 571 562 566 572 568 563 567 573 569
          570 568 574 576 571 569 575 577 568 572 578 574 569 573 579 575
          576 574 580 582 577 575 581 583 574 578 584 580 575 579 585 581
          124 466 586 166 125 467 587 167 466 474 588 586 467 475 589 587
          474 480 590 588 475 481 591 589 480 486 592 590 481 487 593 591
          486 492 594 592 487 493 595 593 492 498 596 594 493 499 597 595
          498 504 598 596 499 505 599 597 504 510 600 598 505 511 601 599
          510 516 602 600 511 517 603 601 516 522 604 602 517 523 605 603
          522 528 606 604 523 529 607 605 528 534 608 606 529 535 609 607
          534 540 610 608 535 541 611 609 540 546 612 610 541 547 613 611
          546 552 614 612 547 553 615 613 552 558 616 614 553 559 617 615
          558 564 618 616 559 565 619 617 564 570 620 618 565 571 621 619
          570 576 622 620 571 577 623 621 576 582 624 622 577 583 625 623
          166 586 626 208 167 587 627 209 586 588 628 626 587 589 629 627
          588 590 630 628 589 591 631 629 590 592 632 630 591 593 633 631
          592 594 634 632 593 595 635 633 594 596 636 634 595 597 637 635
          596 598 638 636 597 599 639 637 598 600 640 638 599 601 641 639
          600 602 642 640 601 603 643 641 602 604 644 642 603 605 645 643
          604 606 646 644 605 607 647 645 606 608 648 646 607 609 649 647
          608 610 650 648 609 611 651 649 610 612 652 650 611 613 653 651
          612 614 654 652 613 615 655 653 614 616 656 654 615 617 657 655
          616 618 658 656 617 619 659 657 618 620 660 658 619 621 661 659
          620 622 662 660 621 623 663 661 622 624 664 662 623 625 665 663
          208 626 666 250 209 627 667 251 626 628 668 666 627 629 669 667
          628 630 670 668 629 631 671 669 630 632 672 670 631 633 673 671
          632 634 674 672 633 635 675 673 634 636 676 674 635 637 677 675
          636 638 678 676 637 639 679 677 638 640 680 678 639 641 681 679
          640 642 682 680 641 643 683 681 642 644 684 682 643 645 685 683
          644 646 686 684 645 647 687 685 646 648 688 686 647 649 689 687
          648 650 690 688 649 651 691 689 650 652 692 690 651 653 693 691
          652 654 694 692 653 655 695 693 654 656 696 694 655 657 697 695
          656 658 698 696 657 659 699 697 658 660 700 698 659 661 701 699
          660 662 702 700 661 663 703 701 662 664 704 702 663 665 705 703
          250 666 706 292 251 667 707 293 666 668 708 706 667 669 709 707
          668 670 710 708 669 671 711 709 670 672 712 710 671 673 713 711
          672 674 714 712 673 675 715 713 674 676 716 714 675 677 717 715
          676 678 718 716 677 679 719 717 678 680 720 718 679 681 721 719
          680 682 722 720 681 683 723 721 682 684 724 722 683 685 725 723
          684 686 726 724 685 687 727 725 686 688 728 726 687 689 729 727
          688 690 730 728 689 691 731 729 690 692 732 730 691 693 733 731
          692 694 734 732 693 695 735 733 694 696 736 734 695 697 737 735
          696 698 738 736 697 699 739 737 698 700 740 738 699 701 741 739
          700 702 742 740 701 703 743 741 702 704 744 742 703 705 745 743
          292 706 746 334 293 707 747 335 706 708 748 746 707 709 749 747
          708 710 750 748 709 711 751 749 710 712 752 750 711 713 753 751
          712 714 754 752 713 715 755 753 714 716 756 754 715 717 757 755
          716 718 758 756 717 719 759 757 718 720 760 758 719 721 761 759
          720 722 762 760 721 723 763 761 722 724 764 762 723 725 765 763
          724 726 766 764 725 727 767 765 726 728 768 766 727 729 769 767
          728 730 770 768 729 731 771 769 730 732 772 770 731 733 773 771
          732 734 774 772 733 735 775 773 734 736 776 774 735 737 777 775
          736 738 778 776 737 739 779 777 738 740 780 778 739 741 781 779
          740 742 782 780 741 743 783 781 742 744 784 782 743 745 785 783
          334 746 786 376 335 747 787 377 746 748 788 786 747 749 789 787
          748 750 790 788 749 751 791 789 750 752 792 790 751 753 793 791
          752 754 794 792 753 755 795 793 754 756 796 794 755 757 797 795
          756 758 798 796 757 759 799 797 758 760 800 798 759 761 801 799
          760 762 802 800 761 763 803 801 762 764 804 802 763 765 805 803
          764 766 806 804 765 767 807 805 766 768 808 806 767 769 809 807
          768 770 810 808 769 771 811 809 770 772 812 810 771 773 813 811
          772 774 814 812 773 775 815 813 774 776 816 814 775 777 817 815
          776 778 818 816 777 779 819 817 778 780 820 818 779 781 821 819
          780 782 822 820 781 783 823 821 782 784 824 822 783 785 825 823
          376 786 826 418 377 787 827 419 786 788 828 826 787 789 829 827
          788 790 830 828 789 791 831 829 790 792 832 830 791 793 833 831
          792 794 834 832 793 795 835 833 794 796 836 834 795 797 837 835
          796 798 838 836 797 799 839 837 798 800 840 838 799 801 841 839
          800 802 842 840 801 803 843 841 802 804 844 842 803 805 845 843
          804 806 846 844 805 807 847 845 806 808 848 846 807 809 849 847
          808 810 850 848 809 811 851 849 810 812 852 850 811 813 853 851
          812 814 854 852 813 815 855 853 814 816 856 854 815 817 857 855
          816 818 858 856 817 819 859 857 818 820 860 858 819 821 861 859
          820 822 862 860 821 823 863 861 822 824 864 862 823 825 865 863
          418 826 866 460 419 827 867 461 826 828 868 866 827 829 869 867
          828 830 870 868 829 831 871 869 830 832 872 870 831 833 873 871
          832 834 874 872 833 835 875 873 834 836 876 874 835 837 877 875
          836 838 878 876 837 839 879 877 838 840 880 878 839 841 881 879
          840 842 882 880 841 843 883 881 842 844 884 882 843 845 885 883
          844 846 886 884 845 847 887 885 846 848 888 886 847 849 889 887
          848 850 890 888 849 851 891 889 850 852 892 890 851 853 893 891
          852 854 894 892 853 855 895 893 854 856 896 894 855 857 897 895
          856 858 898 896 857 859 899 897 858 860 900 898 859 861 901 899
          860 862 902 900 861 863 903 901 862 864 904 902 863 865 905 903
          1 3 5 7 906 907 908 909 3 9 11 5 907 910 911 908
          9 13 15 11 910 912 913 911 13 17 19 15 912 914 915 913
          17 21 23 19 914 916 917 915 21 25 27 23 916 918 919 917
          25 29 31 27 918 920 921 919 29 33 35 31 920 922 923 921
          33 37 39 35 922 924 925 923 37 41 43 39 924 926 927 925
          41 45 47 43 926 928 929 927 45 49 51 47 928 930 931 929
          49 53 55 51 930 932 933 931 53 57 59 55 932 934 935 933
          57 61 63 59 934 936 937 935 61 65 67 63 936 938 939 937
          65 69 71 67 938 940 941 939 69 73 75 71 940 942 943 941
          73 77 79 75 942 944 945 943 77 81 83 79 944 946 947 945
          7 5 85 87 909 908 948 949 5 11 89 85 908 911 950 948
          11 15 91 89 911 913 951 950 15 19 93 91 913 915 952 951
          19 23 95 93 915 917 953 952 23 27 97 95 917 919 954 953
          27 31 99 97 919 921 955 954 31 35 101 99 921 923 956 955
          35 39 103 101 923 925 957 956 39 43 105 103 925 927 958 957
          43 47 107 105 927 929 959 958 47 51 109 107 929 931 960 959
          51 55 111 109 931 933 961 960 55 59 113 111 933 935 962 961
          59 63 115 113 935 937 963 962 63 67 117 115 937 939 964 963
          67 71 119 117 939 941 965 964 71 75 121 119 941 943 966 965
          75 79 123 121 943 945 967 966 79 83 125 123 945 947 968 967
          87 85 127 129 949 948 969 970 85 89 131 127 948 950 971 969
          89 91 133 131 950 951 972 971 91 93 135 133 951 952 973 972
          93 95 137 135 952 953 974 973 95 97 139 137 953 954 975 974
          97 99 141 139 954 955 976 975 99 101 143 141 955 956 977 976
          101 103 145 143 956 957 978 977 103 105 147 145 957 958 979 978
          105 107 149 147 958 959 980 979 107 109 151 149 959 960 981 980
          109 111 153 151 960 961 982 981 111 113 155 153 961 962 983 982
          113 115 157 155 962 963 984 983 115 117 159 157 963 964 985 984
          117 119 161 159 964 965 986 985 119 121 163 161 965 966 987 986
          121 123 165 163 966 967 988 987 123 125 167 165 967 968 989 988
          129 127 169 171 970 969 990 991 127 131 173 169 969 971 992 990
          131 133 175 173 971 972 993 992 133 135 177 175 972 973 994 993
          135 137 179 177 973 974 995 994 137 139 181 179 974 975 996 995
          139 141 183 181 975 976 997 996 141 143 185 183 976 977 998 997
          143 145 187 185 977 978 999 998 145 147 189 187 978 979 1000 999
          147 149 191 189 979 980 1001 1000 149 151 193 191 980 981 1002 1001
          151 153 195 193 981 982 1003 1002 153 155 197 195 982 983 1004 1003
          155 157 199 197 983 984 1005 1004 157 159 201 199 984 985 1006 1005
          159 161 203 201 985 986 1007 1006 161 163 205 203 986 987 1008 1007
          163 165 207 205 987 988 1009 1008 165 167 209 207 988 989 1010 1009
          171 169 211 213 991 990 1011 1012 169 173 215 211 990 992 1013 1011
          173 175 217 215 992 993 1014 1013 175 177 219 217 993 994 1015 1014
          177 179 221 219 994 995 1016 1015 179 181 223 221 995 996 1017 1016
          181 183 225 223 996 997 1018 1017 183 185 227 225 997 998 1019 1018
          185 187 229 227 998 999 1020 1019 187 189 231 229 999 1000 1021 1020
          189 191 233 231 1000 1001 1022 1021 191 193 235 233 1001 1002 1023 1022
          193 195 237 235 1002 1003 1024 1023 195 197 239 237 1003 1004 1025 1024
          197 199 241 239 1004 1005 1026 1025 199 201 243 241 1005 1006 1027 1026
          201 203 245 243 1006 1007 1028 1027 203 205 247 245 1007 1008 1029 1028
          205 207 249 247 1008 1009 1030 1029 207 209 251 249 1009 1010 1031 1030
          213 211 253 255 1012 1011 1032 1033 211 215 257 253 1011 1013 1034 1032
          215 217 259 257 1013 1014 1035 1034 217 219 261 259 1014 1015 1036 1035
          219 221 263 261 1015 1016 1037 1036 221 223 265 263 1016 1017 1038 1037
          223 225 267 265 1017 1018 1039 1038 225 227 269 267 1018 1019 1040 1039
          227 229 271 269 1019 1020 1041 1040 229 231 273 271 1020 1021 1042 1041
          231 233 275 273 1021 1022 1043 1042 233 235 277 275 1022 1023 1044 1043
          235 237 279 277 1023 1024 1045 1044 237 239 281 279 1024 1025 1046 1045
          239 241 283 281 1025 1026 1047 1046 241 243 285 283 1026 1027 1048 1047
          243 245 287 285 1027 1028 1049 1048 245 247 289 287 1028 1029 1050 1049
          247 249 291 289 1029 1030 1051 1050 249 251 293 291 1030 1031 1052 1051
          255 253 295 297 1033 1032 1053 1054 253 257 299 295 1032 1034 1055 1053
          257 259 301 299 1034 1035 1056 1055 259 261 303 301 1035 1036 1057 1056
          261 263 305 303 1036 1037 1058 1057 263 265 307 305 1037 1038 1059 1058
          265 267 309 307 1038 1039 1060 1059 267 269 311 309 1039 1040 1061 1060
          269 271 313 311 1040 1041 1062 1061 271 273 315 313 1041 1042 1063 1062
          273 275 317 315 1042 1043 1064 1063 275 277 319 317 1043 1044 1065 1064
          277 279 321 319 1044 1045 1066 1065 279 281 323 321 1045 1046 1067 1066
          281 283 325 323 1046 1047 1068 1067 283 285 327 325 1047 1048 1069 1068
          285 287 329 327 1048 1049 1070 1069 287 289 331 329 1049 1050 1071 1070
          289 291 333 331 1050 1051 1072 1071 291 293 335 333 1051 1052 1073 1072
          297 295 337 339 1054 1053 1074 1075 295 299 341 337 1053 1055 1076 1074
          299 301 343 341 1055 1056 1077 1076 301 303 345 343 1056 1057 1078 1077
          303 305 347 345 1057 1058 1079 1078 305 307 349 347 1058 1059 1080 1079
          307 309 351 349 1059 1060 1081 1080 309 311 353 351 1060 1061 1082 1081
          311 313 355 353 1061 1062 1083 1082 313 315 357 355 1062 1063 1084 1083
          315 317 359 357 1063 1064 1085 1084 317 319 361 359 1064 1065 1086 1085
          319 321 363 361 1065 1066 1087 1086 321 323 365 363 1066 1067 1088 1087
          323 325 367 365 1067 1068 1089 1088 325 327 369 367 1068 1069 1090 1089
          327 329 371 369 1069 1070 1091 1090 329 331 373 371 1070 1071 1092 1091
          331 333 375 373 1071 1072 1093 1092 333 335 377 375 1072 1073 1094 1093
          339 337 379 381 1075 1074 1095 1096 337 341 383 379 1074 1076 1097 1095
          341 343 385 383 1076 1077 1098 1097 343 345 387 385 1077 1078 1099 1098
          345 347 389 387 1078 1079 1100 1099 347 349 391 389 1079 1080 1101 1100
          349 351 393 391 1080 1081 1102 1101 351 353 395 393 1081 1082 1103 1102
          353 355 397 395 1082 1083 1104 1103 355 357 399 397 1083 1084 1105 1104
          357 359 401 399 1084 1085 1106 1105 359 361 403 401 1085 1086 1107 1106
          361 363 405 403 1086 1087 1108 1107 363 365 407 405 1087 1088 1109 1108
          365 367 409 407 1088 1089 1110 1109 367 369 411 409 1089 1090 1111 1110
          369 371 413 411 1090 1091 1112 1111 371 373 415 413 1091 1092 1113 1112
          373 375 417 415 1092 1093 1114 1113 375 377 419 417 1093 1094 1115 1114
          381 379 421 423 1096 1095 1116 1117 379 383 425 421 1095 1097 1118 1116
          383 385 427 425 1097 1098 1119 1118 385 387 429 427 1098 1099 1120 1119
          387 389 431 429 1099 1100 1121 1120 389 391 433 431 1100 1101 1122 1121
          391 393 435 433 1101 1102 1123 1122 393 395 437 435 1102 1103 1124 1123
          395 397 439 437 1103 1104 1125 1124 397 399 441 439 1104 1105 1126 1125
          399 401 443 441 1105 1106 1127 1126 401 403 445 443 1106 1107 1128 1127
          403 405 447 445 1107 1108 1129 1128 405 407 449 447 1108 1109 1130 1129
          407 409 451 449 1109 1110 1131 1130 409 411 453 451 1110 1111 1132 1131
          411 413 455 453 1111 1112 1133 1132 413 415 457 455 1112 1113 1134 1133
          415 417 459 457 1113 1114 1135 1134 417 419 461 459 1114 1115 1136 1135
          125 463 465 467 968 1137 1138 1139 463 469 471 465 1137 1140 1141 1138
          467 465 473 475 1139 1138 1142 1143 465 471 477 473 1138 1141 1144 1142
          475 473 479 481 1143 1142 1145 1146 473 477 483 479 1142 1144 1147 1145
          481 479 485 487 1146 1145 1148 1149 479 483 489 485 1145 1147 1150 1148
          487 485 491 493 1149 1148 1151 1152 485 489 495 491 1148 1150 1153 1151
          493 491 497 499 1152 1151 1154 1155 491 495 501 497 1151 1153 1156 1154
          499 497 503 505 1155 1154 1157 1158 497 501 507 503 1154 1156 1159 1157
          505 503 509 511 1158 1157 1160 1161 503 507 513 509 1157 1159 1162 1160
          511 509 515 517 1161 1160 1163 1164 509 513 519 515 1160 1162 1165 1163
          517 515 521 523 1164 1163 1166 1167 515 519 525 521 1163 1165 1168 1166
          523 521 527 529 1167 1166 1169 1170 521 525 531 527 1166 1168 1171 1169
          529 527 533 535 1170 1169 1172 1173 527 531 537 533 1169 1171 1174 1172
          535 533 539 541 1173 1172 1175 1176 533 537 543 539 1172 1174 1177 1175
          541 539 545 547 1176 1175 1178 1179 539 543 549 545 1175 1177 1180 1178
          547 545 551 553 1179 1178 1181 1182 545 549 555 551 1178 1180 1183 1181
          553 551 557 559 1182 1181 1184 1185 551 555 561 557 1181 1183 1186 1184
          559 557 563 565 1185 1184 1187 1188 557 561 567 563 1184 1186 1189 1187
          565 563 569 571 1188 1187 1190 1191 563 567 573 569 1187 1189 1192 1190
          571 569 575 577 1191 1190 1193 1194 569 573 579 575 1190 1192 1195 1193
          577 575 581 583 1194 1193 1196 1197 575 579 585 581 1193 1195 1198 1196
          125 467 587 167 968 1139 1199 989 467 475 589 587 1139 1143 1200 1199
          475 481 591 589 1143 1146 1201 1200 481 487 593 591 1146 1149 1202 1201
          487 493 595 593 1149 1152 1203 1202 493 499 597 595 1152 1155 1204 1203
          499 505 599 597 1155 1158 1205 1204 505 511 601 599 1158 1161 1206 1205
          511 517 603 601 1161 1164 1207 1206 517 523 605 603 1164 1167 1208 1207
          523 529 607 605 1167 1170 1209 1208 529 535 609 607 1170 1173 1210 1209
          535 541 611 609 1173 1176 1211 1210 541 547 613 611 1176 1179 1212 1211
          547 553 615 613 1179 1182 1213 1212 553 559 617 615 1182 1185 1214 1213
          559 565 619 617 1185 1188 1215 1214 565 571 621 619 1188 1191 1216 1215
          571 577 623 621 1191 1194 1217 1216 577 583 625 623 1194 1197 1218 1217
          167 587 627 209 989 1199 1219 1010 587 589 629 627 1199 1200 1220 1219
          589 591 631 629 1200 1201 1221 1220 591 593 633 631 1201 1202 1222 1221
          593 595 635 633 1202 1203 1223 1222 595 597 637 635 1203 1204 1224 1223
          597 599 639 637 1204 1205 1225 1224 599 601 641 639 1205 1206 1226 1225
          601 603 643 641 1206 1207 1227 1226 603 605 645 643 1207 1208 1228 1227
          605 607 647 645 1208 1209 1229 1228 607 609 649 647 1209 1210 1230 1229
          609 611 651 649 1210 1211 1231 1230 611 613 653 651 1211 1212 1232 1231
          613 615 655 653 1212 1213 1233 1232 615 617 657 655 1213 1214 1234 1233
          617 619 659 657 1214 1215 1235 1234 619 621 661 659 1215 1216 1236 1235
          621 623 663 661 1216 1217 1237 1236 623 625 665 663 1217 1218 1238 1237
          209 627 667 251 1010 1219 1239 1031 627 629 669 667 1219 1220 1240 1239
          629 631 671 669 1220 1221 1241 1240 631 633 673 671 1221 1222 1242 1241
          633 635 675 673 1222 1223 1243 1242 635 637 677 675 1223 1224 1244 1243
          637 639 679 677 1224 1225 1245 1244 639 641 681 679 1225 1226 1246 1245
          641 643 683 681 1226 1227 1247 1246 643 645 685 683 1227 1228 1248 1247
          645 647 687 685 1228 1229 1249 1248 647 649 689 687 1229 1230 1250 1249
          649 651 691 689 1230 1231 1251 1250 651 653 693 691 1231 1232 1252 1251
          653 655 695 693 1232 1233 1253 1252 655 657 697 695 1233 1234 1254 1253
          657 659 699 697 1234 1235 1255 1254 659 661 701 699 1235 1236 1256 1255
          661 663 703 701 1236 1237 1257 1256 663 665 705 703 1237 1238 1258 1257
          251 667 707 293 1031 1239 1259 1052 667 669 709 707 1239 1240 1260 1259
          669 671 711 709 1240 1241 1261 1260 671 673 713 711 1241 1242 1262 1261
          673 675 715 713 1242 1243 1263 1262 675 677 717 715 1243 1244 1264 1263
          677 679 719 717 1244 1245 1265 1264 679 681 721 719 1245 1246 1266 1265
          681 683 723 721 1246 1247 1267 1266 683 685 725 723 1247 1248 1268 1267
          685 687 727 725 1248 1249 1269 1268 687 689 729 727 1249 1250 1270 1269
          689 691 731 729 1250 1251 1271 1270 691 693 733 731 1251 1252 1272 1271
          693 695 735 733 1252 1253 1273 1272 695 697 737 735 1253 1254 1274 1273
          697 699 739 737 1254 1255 1275 1274 699 701 741 739 1255 1256 1276 1275
          701 703 743 741 1256 1257 1277 1276 703 705 745 743 1257 1258 1278 1277
          293 707 747 335 1052 1259 1279 1073 707 709 749 747 1259 1260 1280 1279
          709 711 751 749 1260 1261 1281 1280 711 713 753 751 1261 1262 1282 1281
          713 715 755 753 1262 1263 1283 1282 715 717 757 755 1263 1264 1284 1283
          717 719 759 757 1264 1265 1285 1284 719 721 761 759 1265 1266 1286 1285
          721 723 763 761 1266 1267 1287 1286 723 725 765 763 1267 1268 1288 1287
          725 727 767 765 1268 1269 1289 1288 727 729 769 767 1269 1270 1290 1289
          729 731 771 769 1270 1271 1291 1290 731 733 773 771 1271 1272 1292 1291
          733 735 775 773 1272 1273 1293 1292 735 737 777 775 1273 1274 1294 1293
          737 739 779 777 1274 1275 1295 1294 739 741 781 779 1275 1276 1296 1295
          741 743 783 781 1276 1277 1297 1296 743 745 785 783 1277 1278 1298 1297
          335 747 787 377 1073 1279 1299 1094 747 749 789 787 1279 1280 1300 1299
          749 751 791 789 1280 1281 1301 1300 751 753 793 791 1281 1282 1302 1301
          753 755 795 793 1282 1283 1303 1302 755 757 797 795 1283 1284 1304 1303
          757 759 799 797 1284 1285 1305 1304 759 761 801 799 1285 1286 1306 1305
          761 763 803 801 1286 1287 1307 1306 763 765 805 803 1287 1288 1308 1307
          765 767 807 805 1288 1289 1309 1308 767 769 809 807 1289 1290 1310 1309
          769 771 811 809 1290 1291 1311 1310 771 773 813 811 1291 1292 1312 1311
          773 775 815 813 1292 1293 1313 1312 775 777 817 815 1293 1294 1314 1313
          777 779 819 817 1294 1295 1315 1314 779 781 821 819 1295 1296 1316 1315
          781 783 823 821 1296 1297 1317 1316 783 785 825 823 1297 1298 1318 1317
          377 787 827 419 1094 1299 1319 1115 787 789 829 827 1299 1300 1320 1319
          789 791 831 829 1300 1301 1321 1320 791 793 833 831 1301 1302 1322 1321
          793 795 835 833 1302 1303 1323 1322 795 797 837 835 1303 1304 1324 1323
          797 799 839 837 1304 1305 1325 1324 799 801 841 839 1305 1306 1326 1325
          801 803 843 841 1306 1307 1327 1326 803 805 845 843 1307 1308 1328 1327
          805 807 847 845 1308 1309 1329 1328 807 809 849 847 1309 1310 1330 1329
          809 811 851 849 1310 1311 1331 1330 811 813 853 851 1311 1312 1332 1331
          813 815 855 853 1312 1313 1333 1332 815 817 857 855 1313 1314 1334 1333
          817 819 859 857 1314 1315 1335 1334 819 821 861 859 1315 1316 1336 1335
          821 823 863 861 1316 1317 1337 1336 823 825 865 863 1317 1318 1338 1337
          419 827 867 461 1115 1319 1339 1136 827 829 869 867 1319 1320 1340 1339
          829 831 871 869 1320 1321 1341 1340 831 833 873 871 1321 1322 1342 1341
          833 835 875 873 1322 1323 1343 1342 835 837 877 875 1323 1324 1344 1343
          837 839 879 877 1324 1325 1345 1344 839 841 881 879 1325 1326 1346 1345
          841 843 883 881 1326 1327 1347 1346 843 845 885 883 1327 1328 1348 1347
          845 847 887 885 1328 1329 1349 1348 847 849 889 887 1329 1330 1350 1349
          849 851 891 889 1330 1331 1351 1350 851 853 893 891 1331 1332 1352 1351
          853 855 895 893 1332 1333 1353 1352 855 857 897 895 1333 1334 1354 1353
          857 859 899 897 1334 1335 1355 1354 859 861 901 899 1335 1336 1356 1355
          861 863 903 901 1336 1337 1357 1356 863 865 905 903 1337 1338 1358 1357
        </DataArray>
        <DataArray type="Int64" Name="offsets" format="ascii">
          8 16 24 32 40 48 56 64 72 80 88 96
          104 112 120 128 136 144 152 160 168 176 184 192
          200 208 216 224 232 240 248 256 264 272 280 288
          296 304 312 320 328 336 344 352 360 368 376 384
          392 400 408 416 424 432 440 448 456 464 472 480
          488 496 504 512 520 528 536 544 552 560 568 576
          584 592 600 608 616 624 632 640 648 656 664 672
          680 688 696 704 712 720 728 736 744 752 760 768
          776 784 792 800 808 816 824 832 840 848 856 864
          872 880 888 896 904 912 920 928 936 944 952 960
          968 976 984 992 1000 1008 1016 1024 1032 1040 1048 1056
          1064 1072 1080 1088 1096 1104 1112 1120 1128 1136 1144 1152
          1160 1168 1176 1184 1192 1200 1208 1216 1224 1232 1240 1248
          1256 1264 1272 1280 1288 1296 1304 1312 1320 1328 1336 1344
          1352 1360 1368 1376 1384 1392 1400 1408 1416 1424 1432 1440
          1448 1456 1464 1472 1480 1488 1496 1504 1512 1520 1528 1536
          1544 1552 1560 1568 1576 1584 1592 1600 1608 1616 1624 1632
          1640 1648 1656 1664 1672 1680 1688 1696 1704 1712 1720 1728
          1736 1744 1752 1760 1768 1776 1784 1792 1800 1808 1816 1824
          1832 1840 1848 1856 1864 1872 1880 1888 1896 1904 1912 1920
          1928 1936 1944 1952 1960 1968 1976 1984 1992 2000 2008 2016
          2024 2032 2040 2048 2056 2064 2072 2080 2088 2096 2104 2112
          2120 2128 2136 2144 2152 2160 2168 2176 2184 2192 2200 2208
          2216 2224 2232 2240 2248 2256 2264 2272 2280 2288 2296 2304
          2312 2320 2328 2336 2344 2352 2360 2368 2376 2384 2392 2400
          2408 2416 2424 2432 2440 2448 2456 2464 2472 2480 2488 2496
          2504 2512 2520 2528 2536 2544 2552 2560 2568 2576 2584 2592
          2600 2608 2616 2624 2632 2640 2648 2656 2664 2672 2680 2688
          2696 2704 2712 2720 2728 2736 2744 2752 2760 2768 2776 2784
          2792 2800 2808 2816 2824 2832 2840 2848 2856 2864 2872 2880
          2888 2896 2904 2912 2920 2928 2936 2944 2952 2960 2968 2976
          2984 2992 3000 3008 3016 3024 3032 3040 3048 3056 3064 3072
          3080 3088 3096 3104 3112 3120 3128 3136 3144 3152 3160 3168
          3176 3184 3192 3200 3208 3216 3224 3232 3240 3248 3256 3264
          3272 3280 3288 3296 3304 3312 3320 3328 3336 3344 3352 3360
          3368 3376 3384 3392 3400 3408 3416 3424 3432 3440 3448 3456
          3464 3472 3480 3488 3496 3504 3512 3520 3528 3536 3544 3552
          3560 3568 3576 3584 3592 3600 3608 3616 3624 3632 3640 3648
          3656 3664 3672 3680 3688 3696 3704 3712 3720 3728 3736 3744
          3752 3760 3768 3776 3784 3792 3800 3808 3816 3824 3832 3840
          3848 3856 3864 3872 3880 3888 3896 3904 3912 3920 3928 3936
          3944 3952 3960 3968 3976 3984 3992 4000 4008 4016 4024 4032
          4040 4048 4056 4064 4072 4080 4088 4096 4104 4112 4120 4128
          4136 4144 4152 4160 4168 4176 4184 4192 4200 4208 4216 4224
          4232 4240 4248 4256 4264 4272 4280 4288 4296 4304 4312 4320
          4328 4336 4344 4352 4360 4368 4376 4384 4392 4400 4408 4416
          4424 4432 4440 4448 4456 4464 4472 4480 4488 4496 4504 4512
          4520 4528 4536 4544 4552 4560 4568 4576 4584 4592 4600 4608
          4616 4624 4632 4640 4648 4656 4664 4672 4680 4688 4696 4704
          4712 4720 4728 4736 4744 4752 4760 4768 4776 4784 4792 4800
          4808 4816 4824 4832 4840 4848 4856 4864 4872 4880 4888 4896
          4904 4912 4920 4928 4936 4944 4952 4960 4968 4976 4984 4992
          5000 5008 5016 5024 5032 5040 5048 5056 5064 5072 5080 5088
          5096 5104 5112 5120 5128 5136 5144 5152 5160 5168 5176 5184
          5192 5200 5208 5216 5224 5232 5240 5248 5256 5264 5272 5280
          5288 5296 5304 5312 5320 5328 5336 5344 5352 5360 5368 5376
          5384 5392 5400 5408 5416 5424 5432 5440 5448 5456 5464 5472
          5480 5488 5496 5504 5512 5520 5528 5536 5544 5552 5560 5568
          5576 5584 5592 5600 5608 5616 5624 5632 5640 5648 5656 5664
          5672 5680 5688 5696 5704 5712 5720 5728 5736 5744 5752 5760
          5768 5776 5784 5792 5800 5808 5816 5824 5832 5840 5848 5856
          5864 5872 5880 5888 5896 5904 5912 5920 5928 5936 5944 5952
          5960 5968 5976 5984 5992 6000 6008 6016 6024 6032 6040 6048
          6056 6064 6072 6080 6088 6096 6104 6112 6120 6128 6136 6144
          6152 6160 6168 6176 6184 6192 6200 6208 6216 6224 6232 6240
          6248 6256 6264 6272 6280 6288 6296 6304 6312 6320 6328 6336
          6344 6352 6360 6368 6376 6384 6392 6400
        </DataArray>
        <DataArray type="UInt8" Name="types" format="ascii">
          12 12 12 12 12 12 12 12 12 12 12 12 12 12 12 12 12 12 12 12 12 12 12 12 12 12 12 12 12 12
          12 12 12 12 12 12 12 12 12 12 12 12 12 12 12 12 12 12 12 12 12 12 12 12 12 12 12 12 12 12
          12 12 12 12 12 12 12 12 12 12 12 12 12 12 12 12 12 12 12 12 12 12 12 12 12 12 12 12 12 12
          12 12 12 12 12 12 12 12 12 12 12 12 12 12 12 12 12 12 12 12 12 12 12 12 12 12 12 12 12 12
          12 12 12 12 12 12 12 12 12 12 12 12 12 12 12 12 12 12 12 12 12 12 12 12 12 12 12 12 12 12
          12 12 12 12 12 12 12 12 12 12 12 12 12 12 12 12 12 12 12 12 12 12 12 12 12 12 12 12 12 12
          12 12 12 12 12 12 12 12 12 12 12 12 12 12 12 12 12 12 12 12 12 12 12 12 12 12 12 12 12 12
          12 12 12 12 12 12 12 12 12 12 12 12 12 12 12 12 12 12 12 12 12 12 12 12 12 12 12 12 12 12
          12 12 12 12 12 12 12 12 12 12 12 12 12 12 12 12 12 12 12 12 12 12 12 12 12 12 12 12 12 12
          12 12 12 12 12 12 12 12 12 12 12 12 12 12 12 12 12 12 12 12 12 12 12 12 12 12 12 12 12 12
          12 12 12 12 12 12 12 12 12 12 12 12 12 12 12 12 12 12 12 12 12 12 12 12 12 12 12 12 12 12
          12 12 12 12 12 12 12 12 12 12 12 12 12 12 12 12 12 12 12 12 12 12 12 12 12 12 12 12 12 12
          12 12 12 12 12 12 12 12 12 12 12 12 12 12 12 12 12 12 12 12 12 12 12 12 12 12 12 12 12 12
          12 12 12 12 12 12 12 12 12 12 12 12 12 12 12 12 12 12 12 12 12 12 12 12 12 12 12 12 12 12
          12 12 12 12 12 12 12 12 12 12 12 12 12 12 12 12 12 12 12 12 12 12 12 12 12 12 12 12 12 12
          12 12 12 12 12 12 12 12 12 12 12 12 12 12 12 12 12 12 12 12 12 12 12 12 12 12 12 12 12 12
          12 12 12 12 12 12 12 12 12 12 12 12 12 12 12 12 12 12 12 12 12 12 12 12 12 12 12 12 12 12
          12 12 12 12 12 12 12 12 12 12 12 12 12 12 12 12 12 12 12 12 12 12 12 12 12 12 12 12 12 12
          12 12 12 12 12 12 12 12 12 12 12 12 12 12 12 12 12 12 12 12 12 12 12 12 12 12 12 12 12 12
          12 12 12 12 12 12 12 12 12 12 12 12 12 12 12 12 12 12 12 12 12 12 12 12 12 12 12 12 12 12
          12 12 12 12 12 12 12 12 12 12 12 12 12 12 12 12 12 12 12 12 12 12 12 12 12 12 12 12 12 12
          12 12 12 12 12 12 12 12 12 12 12 12 12 12 12 12 12 12 12 12 12 12 12 12 12 12 12 12 12 12
          12 12 12 12 12 12 12 12 12 12 12 12 12 12 12 12 12 12 12 12 12 12 12 12 12 12 12 12 12 12
          12 12 12 12 12 12 12 12 12 12 12 12 12 12 12 12 12 12 12 12 12 12 12 12 12 12 12 12 12 12
          12 12 12 12 12 12 12 12 12 12 12 12 12 12 12 12 12 12 12 12 12 12 12 12 12 12 12 12 12 12
          12 12 12 12 12 12 12 12 12 12 12 12 12 12 12 12 12 12 12 12 12 12 12 12 12 12 12 12 12 12
          12 12 12 12 12 12 12 12 12 12 12 12 12 12 12 12 12 12 12 12
        </DataArray>
      </Cells>
    </Piece>
  </UnstructuredGrid>
</VTKFile>
