<?xml version="1.0"?>
<VTKFile type="UnstructuredGrid" version="0.1" byte_order="LittleEndian" header_type="UInt32" compressor="vtkZLibDataCompressor">
  <UnstructuredGrid>
    <FieldData>
      <DataArray type="Float64" Name="TIME" NumberOfTuples="1" format="ascii" RangeMin="0.2790000000000002" RangeMax="0.2790000000000002">
        0.2790000000000002
      </DataArray>
    </FieldData>
    <Piece NumberOfPoints="24" NumberOfCells="11">
      <PointData>
      </PointData>
      <CellData>
        <DataArray type="Float64" Name="fracturePorosity_referencePorosity" format="ascii" RangeMin="1" RangeMax="1">
          1 1 1 1 1 1
          1 1 1 1 1
        </DataArray>
        <DataArray type="Float64" Name="fracturePorosity_initialPorosity" format="ascii" RangeMin="1" RangeMax="1">
          1 1 1 1 1 1
          1 1 1 1 1
        </DataArray>
        <DataArray type="Float64" Name="fracturePorosity_porosity" format="ascii" RangeMin="1" RangeMax="1">
          1 1 1 1 1 1
          1 1 1 1 1
        </DataArray>
        <DataArray type="Float64" Name="water_dEnthalpy" format="ascii" RangeMin="0" RangeMax="0">
          0 0 0 0 0 0
          0 0 0 0 0
        </DataArray>
        <DataArray type="Float64" Name="water_enthalpy" format="ascii" RangeMin="0" RangeMax="0">
          0 0 0 0 0 0
          0 0 0 0 0
        </DataArray>
        <DataArray type="Float64" Name="water_dInternalEnergy" format="ascii" RangeMin="0" RangeMax="0">
          0 0 0 0 0 0
          0 0 0 0 0
        </DataArray>
        <DataArray type="Float64" Name="water_internalEnergy" format="ascii" RangeMin="0" RangeMax="0">
          0 0 0 0 0 0
          0 0 0 0 0
        </DataArray>
        <DataArray type="Float64" Name="water_viscosity" format="ascii" RangeMin="0.001" RangeMax="0.001">
          0.001 0.001 0.001 0.001 0.001 0.001
          0.001 0.001 0.001 0.001 0.001
        </DataArray>
        <DataArray type="Float64" Name="fracturePerm_permeability" NumberOfComponents="3" format="ascii" RangeMin="0.000016771625068438692" RangeMax="0.00002321802764179437">
          0.000009683102248010555 0.000009683102248010555 0.000009683102248010555 0.000010028131614803094 0.000010028131614803094 0.000010028131614803094
          0.000010379195299696024 0.000010379195299696024 0.000010379195299696024 0.00001073629326549787 0.00001073629326549787 0.00001073629326549787
          0.000011099425457611336 0.000011099425457611336 0.000011099425457611336 0.000011468591822262029 0.000011468591822262029 0.000011468591822262029
          0.00001184379230765269 0.00001184379230765269 0.00001184379230765269 0.000012225026863953638 0.000012225026863953638 0.000012225026863953638
          0.000012612295443282137 0.000012612295443282137 0.000012612295443282137 0.00001300559800062975 0.00001300559800062975 0.00001300559800062975
          0.000013404934509042152 0.000013404934509042152 0.000013404934509042152
          <InformationKey name="L2_NORM_RANGE" location="vtkDataArray" length="2">
            <Value index="0">
              1.6771625068e-05
            </Value>
            <Value index="1">
              2.3218027642e-05
            </Value>
          </InformationKey>
        </DataArray>
        <DataArray type="Float64" Name="water_dDensity" format="ascii" RangeMin="5e-9" RangeMax="5e-9">
          5e-9 5e-9 5e-9 5e-9 5e-9 5e-9
          5e-9 5e-9 5e-9 5e-9 5e-9
        </DataArray>
        <DataArray type="Float64" Name="water_dViscosity" format="ascii" RangeMin="0" RangeMax="0">
          0 0 0 0 0 0
          0 0 0 0 0
        </DataArray>
        <DataArray type="Float64" Name="water_density" format="ascii" RangeMin="1000.0500000000001" RangeMax="1000.1453103">
          1000.0500000000001 1000.0610202138815 1000.0716643044877 1000.0819512115437 1000.0918986232385 1000.1015230784567
          1000.1108400586878 1000.1198640712221 1000.1286087246115 1000.137086797241 1000.1453103
        </DataArray>
        <DataArray type="Int64" Name="SinglePhaseFlow_singlePhaseVariables_dofIndex" format="ascii" RangeMin="0" RangeMax="10">
          0 1 2 3 4 5
          6 7 8 9 10
        </DataArray>
        <DataArray type="Float64" Name="mass" format="ascii" RangeMin="0.10000500000000001" RangeMax="0.10001453103">
          0.10000500000000001 0.10000610202138815 0.10000716643044878 0.10000819512115437 0.10000918986232386 0.10001015230784567
          0.10001108400586879 0.10001198640712221 0.10001286087246115 0.1000137086797241 0.10001453103
        </DataArray>
        <DataArray type="Int64" Name="localToGlobalMap" format="ascii" RangeMin="11" RangeMax="21">
          11 12 13 14 15 16
          17 18 19 20 21
        </DataArray>
        <DataArray type="Int32" Name="ghostRank" format="ascii" RangeMin="-2" RangeMax="-2">
          -2 -2 -2 -2 -2 -2
          -2 -2 -2 -2 -2
        </DataArray>
        <DataArray type="Float64" Name="elementCenter" NumberOfComponents="3" format="ascii" RangeMin="0.7071067811865476" RangeMax="10.51189802081432">
          0 0.5 0.5 0 1.5 0.5
          0 2.5 0.5 0 3.5 0.5
          0 4.5 0.5 0 5.5 0.5
          0 6.5 0.5 0 7.5 0.5
          0 8.5 0.5 0 9.5 0.5
          0 10.5 0.5
          <InformationKey name="L2_NORM_RANGE" location="vtkDataArray" length="2">
            <Value index="0">
              0.70710678119
            </Value>
            <Value index="1">
              10.511898021
            </Value>
          </InformationKey>
        </DataArray>
        <DataArray type="Float64" Name="deltaPressure" format="ascii" RangeMin="10000000" RangeMax="29062060">
          10000000 12204042.77628976 14332860.897541922 16390242.308756469 18379724.647704106 20304615.691330083
          22168011.7375439 23972814.244424507 25721744.9223228 27417359.448209383 29062060
        </DataArray>
        <DataArray type="Float64" Name="elementVolume" format="ascii" RangeMin="0.0001" RangeMax="0.0001">
          0.0001 0.0001 0.0001 0.0001 0.0001 0.0001
          0.0001 0.0001 0.0001 0.0001 0.0001
        </DataArray>
        <DataArray type="Float64" Name="elementArea" format="ascii" RangeMin="1" RangeMax="1">
          1 1 1 1 1 1
          1 1 1 1 1
        </DataArray>
        <DataArray type="Float64" Name="pressure" format="ascii" RangeMin="10000000" RangeMax="29062060">
          10000000 12204042.77628976 14332860.897541922 16390242.308756469 18379724.647704106 20304615.691330083
          22168011.7375439 23972814.244424507 25721744.9223228 27417359.448209383 29062060
        </DataArray>
        <DataArray type="Float64" Name="normalVector" NumberOfComponents="3" format="ascii" RangeMin="1" RangeMax="1">
          0 0 1 0 0 1
          0 0 1 0 0 1
          0 0 1 0 0 1
          0 0 1 0 0 1
          0 0 1 0 0 1
          0 0 1
          <InformationKey name="L2_NORM_RANGE" location="vtkDataArray" length="2">
            <Value index="0">
              1
            </Value>
            <Value index="1">
              1
            </Value>
          </InformationKey>
        </DataArray>
        <DataArray type="Float64" Name="temperature" format="ascii" RangeMin="0" RangeMax="0">
          0 0 0 0 0 0
          0 0 0 0 0
        </DataArray>
        <DataArray type="Float64" Name="tangentVector1" NumberOfComponents="3" format="ascii" RangeMin="1" RangeMax="1">
          1 0 0 1 0 0
          1 0 0 1 0 0
          1 0 0 1 0 0
          1 0 0 1 0 0
          1 0 0 1 0 0
          1 0 0
          <InformationKey name="L2_NORM_RANGE" location="vtkDataArray" length="2">
            <Value index="0">
              1
            </Value>
            <Value index="1">
              1
            </Value>
          </InformationKey>
        </DataArray>
        <DataArray type="Float64" Name="massCreated" format="ascii" RangeMin="0" RangeMax="0">
          0 0 0 0 0 0
          0 0 0 0 0
        </DataArray>
        <DataArray type="Float64" Name="elementAperture" format="ascii" RangeMin="0.0001" RangeMax="0.0001">
          0.0001 0.0001 0.0001 0.0001 0.0001 0.0001
          0.0001 0.0001 0.0001 0.0001 0.0001
        </DataArray>
        <DataArray type="Float64" Name="tangentVector2" NumberOfComponents="3" format="ascii" RangeMin="1" RangeMax="1">
          0 1 0 0 1 0
          0 1 0 0 1 0
          0 1 0 0 1 0
          0 1 0 0 1 0
          0 1 0 0 1 0
          0 1 0
          <InformationKey name="L2_NORM_RANGE" location="vtkDataArray" length="2">
            <Value index="0">
              1
            </Value>
            <Value index="1">
              1
            </Value>
          </InformationKey>
        </DataArray>
        <DataArray type="Float64" Name="hydraulicAperture" format="ascii" RangeMin="0.010779481758235256" RangeMax="0.01268302858581127">
          0.010779481758235256 0.010969848648802641 0.011160212524694693 0.011350573517931789 0.011540931742772592 0.011731287306478533
          0.011921640310453603 0.01211199085070013 0.012302339018226804 0.012492684899874686 0.01268302858581127
        </DataArray>
      </CellData>
      <Points>
        <DataArray type="Float32" Name="Points" NumberOfComponents="3" format="ascii" RangeMin="0.7071067811865476" RangeMax="11.022703842524301">
          0.5 1 0.5 0.5 0 0.5
          -0.5 0 0.5 -0.5 1 0.5
          -0.5 2 0.5 0.5 2 0.5
          -0.5 3 0.5 0.5 3 0.5
          -0.5 4 0.5 0.5 4 0.5
          -0.5 5 0.5 0.5 5 0.5
          -0.5 6 0.5 0.5 6 0.5
          -0.5 7 0.5 0.5 7 0.5
          -0.5 8 0.5 0.5 8 0.5
          -0.5 9 0.5 0.5 9 0.5
          -0.5 10 0.5 0.5 10 0.5
          -0.5 11 0.5 0.5 11 0.5
          <InformationKey name="L2_NORM_RANGE" location="vtkDataArray" length="2">
            <Value index="0">
              0.70710678119
            </Value>
            <Value index="1">
              11.022703843
            </Value>
          </InformationKey>
        </DataArray>
      </Points>
      <Cells>
        <DataArray type="Int64" Name="connectivity" format="ascii" RangeMin="0" RangeMax="23">
          0 1 2 3 0 3
          4 5 5 4 6 7
          7 6 8 9 9 8
          10 11 11 10 12 13
          13 12 14 15 15 14
          16 17 17 16 18 19
          19 18 20 21 21 20
          22 23
        </DataArray>
        <DataArray type="Int64" Name="offsets" format="ascii" RangeMin="4" RangeMax="44">
          4 8 12 16 20 24
          28 32 36 40 44
        </DataArray>
        <DataArray type="UInt8" Name="types" format="ascii" RangeMin="7" RangeMax="7">
          7 7 7 7 7 7
          7 7 7 7 7
        </DataArray>
      </Cells>
    </Piece>
  </UnstructuredGrid>
</VTKFile>
