<?xml version="1.0" encoding="UTF-8" standalone="no"?><svg xmlns="http://www.w3.org/2000/svg" xmlns:xlink="http://www.w3.org/1999/xlink" contentScriptType="application/ecmascript" contentStyleType="text/css" height="748px" preserveAspectRatio="none" style="width:950px;height:748px;" version="1.1" viewBox="0 0 950 748" width="950px" zoomAndPan="magnify"><defs><filter height="300%" id="fgtr89qo99dyc" width="300%" x="-1" y="-1"><feGaussianBlur result="blurOut" stdDeviation="2.0"/><feColorMatrix in="blurOut" result="blurOut2" type="matrix" values="0 0 0 0 0 0 0 0 0 0 0 0 0 0 0 0 0 0 .4 0"/><feOffset dx="4.0" dy="4.0" in="blurOut2" result="blurOut3"/><feBlend in="SourceGraphic" in2="blurOut3" mode="normal"/></filter></defs><g><!--class DomainPartition--><rect fill="#FEFECE" filter="url(#fgtr89qo99dyc)" height="60.8047" id="DomainPartition" style="stroke: #A80036; stroke-width: 1.5;" width="225" x="235.5" y="8"/><ellipse cx="293.75" cy="24" fill="#ADD1B2" rx="11" ry="11" style="stroke: #A80036; stroke-width: 1.0;"/><path d="M296.7188,29.6406 Q296.1406,29.9375 295.5,30.0781 Q294.8594,30.2344 294.1563,30.2344 Q291.6563,30.2344 290.3281,28.5938 Q289.0156,26.9375 289.0156,23.8125 Q289.0156,20.6875 290.3281,19.0313 Q291.6563,17.375 294.1563,17.375 Q294.8594,17.375 295.5,17.5313 Q296.1563,17.6875 296.7188,17.9844 L296.7188,20.7031 Q296.0938,20.125 295.5,19.8594 Q294.9063,19.5781 294.2813,19.5781 Q292.9375,19.5781 292.25,20.6563 Q291.5625,21.7188 291.5625,23.8125 Q291.5625,25.9063 292.25,26.9844 Q292.9375,28.0469 294.2813,28.0469 Q294.9063,28.0469 295.5,27.7813 Q296.0938,27.5 296.7188,26.9219 L296.7188,29.6406 Z "/><text fill="#000000" font-family="sans-serif" font-size="12" lengthAdjust="spacingAndGlyphs" textLength="100" x="314.25" y="28.1543">DomainPartition</text><line style="stroke: #A80036; stroke-width: 1.5;" x1="236.5" x2="459.5" y1="40" y2="40"/><line style="stroke: #A80036; stroke-width: 1.5;" x1="236.5" x2="459.5" y1="48" y2="48"/><ellipse cx="246.5" cy="59.9023" fill="#84BE84" rx="3" ry="3" style="stroke: #038048; stroke-width: 1.0;"/><text fill="#000000" font-family="sans-serif" font-size="11" lengthAdjust="spacingAndGlyphs" textLength="199" x="255.5" y="62.2104">getMeshBodies(): List&lt;MeshBody&gt;</text><!--class MeshBody--><rect fill="#FEFECE" filter="url(#fgtr89qo99dyc)" height="60.8047" id="MeshBody" style="stroke: #A80036; stroke-width: 1.5;" width="230" x="233" y="129"/><ellipse cx="312.25" cy="145" fill="#ADD1B2" rx="11" ry="11" style="stroke: #A80036; stroke-width: 1.0;"/><path d="M315.2188,150.6406 Q314.6406,150.9375 314,151.0781 Q313.3594,151.2344 312.6563,151.2344 Q310.1563,151.2344 308.8281,149.5938 Q307.5156,147.9375 307.5156,144.8125 Q307.5156,141.6875 308.8281,140.0313 Q310.1563,138.375 312.6563,138.375 Q313.3594,138.375 314,138.5313 Q314.6563,138.6875 315.2188,138.9844 L315.2188,141.7031 Q314.5938,141.125 314,140.8594 Q313.4063,140.5781 312.7813,140.5781 Q311.4375,140.5781 310.75,141.6563 Q310.0625,142.7188 310.0625,144.8125 Q310.0625,146.9063 310.75,147.9844 Q311.4375,149.0469 312.7813,149.0469 Q313.4063,149.0469 314,148.7813 Q314.5938,148.5 315.2188,147.9219 L315.2188,150.6406 Z "/><text fill="#000000" font-family="sans-serif" font-size="12" lengthAdjust="spacingAndGlyphs" textLength="63" x="332.75" y="149.1543">MeshBody</text><line style="stroke: #A80036; stroke-width: 1.5;" x1="234" x2="462" y1="161" y2="161"/><line style="stroke: #A80036; stroke-width: 1.5;" x1="234" x2="462" y1="169" y2="169"/><ellipse cx="244" cy="180.9023" fill="#84BE84" rx="3" ry="3" style="stroke: #038048; stroke-width: 1.0;"/><text fill="#000000" font-family="sans-serif" font-size="11" lengthAdjust="spacingAndGlyphs" textLength="204" x="253" y="183.2104">getMeshLevels(): List&lt;MeshLevels&gt;</text><!--class MeshLevel--><rect fill="#FEFECE" filter="url(#fgtr89qo99dyc)" height="99.2188" id="MeshLevel" style="stroke: #A80036; stroke-width: 1.5;" width="274" x="211" y="250"/><ellipse cx="311.75" cy="266" fill="#ADD1B2" rx="11" ry="11" style="stroke: #A80036; stroke-width: 1.0;"/><path d="M314.7188,271.6406 Q314.1406,271.9375 313.5,272.0781 Q312.8594,272.2344 312.1563,272.2344 Q309.6563,272.2344 308.3281,270.5938 Q307.0156,268.9375 307.0156,265.8125 Q307.0156,262.6875 308.3281,261.0313 Q309.6563,259.375 312.1563,259.375 Q312.8594,259.375 313.5,259.5313 Q314.1563,259.6875 314.7188,259.9844 L314.7188,262.7031 Q314.0938,262.125 313.5,261.8594 Q312.9063,261.5781 312.2813,261.5781 Q310.9375,261.5781 310.25,262.6563 Q309.5625,263.7188 309.5625,265.8125 Q309.5625,267.9063 310.25,268.9844 Q310.9375,270.0469 312.2813,270.0469 Q312.9063,270.0469 313.5,269.7813 Q314.0938,269.5 314.7188,268.9219 L314.7188,271.6406 Z "/><text fill="#000000" font-family="sans-serif" font-size="12" lengthAdjust="spacingAndGlyphs" textLength="64" x="332.25" y="270.1543">MeshLevel</text><line style="stroke: #A80036; stroke-width: 1.5;" x1="212" x2="484" y1="282" y2="282"/><line style="stroke: #A80036; stroke-width: 1.5;" x1="212" x2="484" y1="290" y2="290"/><ellipse cx="222" cy="301.9023" fill="#84BE84" rx="3" ry="3" style="stroke: #038048; stroke-width: 1.0;"/><text fill="#000000" font-family="sans-serif" font-size="11" lengthAdjust="spacingAndGlyphs" textLength="190" x="231" y="304.2104">getNodeManager(): NodeManager</text><ellipse cx="222" cy="314.707" fill="#84BE84" rx="3" ry="3" style="stroke: #038048; stroke-width: 1.0;"/><text fill="#000000" font-family="sans-serif" font-size="11" lengthAdjust="spacingAndGlyphs" textLength="188" x="231" y="317.0151">getEdgeManager(): EdgeManager</text><ellipse cx="222" cy="327.5117" fill="#84BE84" rx="3" ry="3" style="stroke: #038048; stroke-width: 1.0;"/><text fill="#000000" font-family="sans-serif" font-size="11" lengthAdjust="spacingAndGlyphs" textLength="184" x="231" y="329.8198">getFaceManager(): FaceManager</text><ellipse cx="222" cy="340.3164" fill="#84BE84" rx="3" ry="3" style="stroke: #038048; stroke-width: 1.0;"/><text fill="#000000" font-family="sans-serif" font-size="11" lengthAdjust="spacingAndGlyphs" textLength="248" x="231" y="342.6245">getElemManager():: ElementRegionManager</text><!--class NodeManager--><rect fill="#FEFECE" filter="url(#fgtr89qo99dyc)" height="112.0234" id="NodeManager" style="stroke: #A80036; stroke-width: 1.5;" width="160" x="6" y="409"/><ellipse cx="39" cy="425" fill="#ADD1B2" rx="11" ry="11" style="stroke: #A80036; stroke-width: 1.0;"/><path d="M41.9688,430.6406 Q41.3906,430.9375 40.75,431.0781 Q40.1094,431.2344 39.4063,431.2344 Q36.9063,431.2344 35.5781,429.5938 Q34.2656,427.9375 34.2656,424.8125 Q34.2656,421.6875 35.5781,420.0313 Q36.9063,418.375 39.4063,418.375 Q40.1094,418.375 40.75,418.5313 Q41.4063,418.6875 41.9688,418.9844 L41.9688,421.7031 Q41.3438,421.125 40.75,420.8594 Q40.1563,420.5781 39.5313,420.5781 Q38.1875,420.5781 37.5,421.6563 Q36.8125,422.7188 36.8125,424.8125 Q36.8125,426.9063 37.5,427.9844 Q38.1875,429.0469 39.5313,429.0469 Q40.1563,429.0469 40.75,428.7813 Q41.3438,428.5 41.9688,427.9219 L41.9688,430.6406 Z "/><text fill="#000000" font-family="sans-serif" font-size="12" lengthAdjust="spacingAndGlyphs" textLength="88" x="57" y="429.1543">NodeManager</text><line style="stroke: #A80036; stroke-width: 1.5;" x1="7" x2="165" y1="441" y2="441"/><line style="stroke: #A80036; stroke-width: 1.5;" x1="7" x2="165" y1="449" y2="449"/><ellipse cx="17" cy="460.9023" fill="#84BE84" rx="3" ry="3" style="stroke: #038048; stroke-width: 1.0;"/><text fill="#000000" font-family="sans-serif" font-size="11" lengthAdjust="spacingAndGlyphs" textLength="56" x="26" y="463.2104">edgeList()</text><ellipse cx="17" cy="473.707" fill="#84BE84" rx="3" ry="3" style="stroke: #038048; stroke-width: 1.0;"/><text fill="#000000" font-family="sans-serif" font-size="11" lengthAdjust="spacingAndGlyphs" textLength="52" x="26" y="476.0151">faceList()</text><ellipse cx="17" cy="486.5117" fill="#84BE84" rx="3" ry="3" style="stroke: #038048; stroke-width: 1.0;"/><text fill="#000000" font-family="sans-serif" font-size="11" lengthAdjust="spacingAndGlyphs" textLength="74" x="26" y="488.8198">elementList()</text><ellipse cx="17" cy="499.3164" fill="#84BE84" rx="3" ry="3" style="stroke: #038048; stroke-width: 1.0;"/><text fill="#000000" font-family="sans-serif" font-size="11" lengthAdjust="spacingAndGlyphs" textLength="134" x="26" y="501.6245">elementSubRegionList()</text><ellipse cx="17" cy="512.1211" fill="#84BE84" rx="3" ry="3" style="stroke: #038048; stroke-width: 1.0;"/><text fill="#000000" font-family="sans-serif" font-size="11" lengthAdjust="spacingAndGlyphs" textLength="112" x="26" y="514.4292">elementRegionList()</text><!--class EdgeManager--><rect fill="#FEFECE" filter="url(#fgtr89qo99dyc)" height="73.6094" id="EdgeManager" style="stroke: #A80036; stroke-width: 1.5;" width="119" x="201.5" y="428"/><ellipse cx="216.5" cy="444" fill="#ADD1B2" rx="11" ry="11" style="stroke: #A80036; stroke-width: 1.0;"/><path d="M219.4688,449.6406 Q218.8906,449.9375 218.25,450.0781 Q217.6094,450.2344 216.9063,450.2344 Q214.4063,450.2344 213.0781,448.5938 Q211.7656,446.9375 211.7656,443.8125 Q211.7656,440.6875 213.0781,439.0313 Q214.4063,437.375 216.9063,437.375 Q217.6094,437.375 218.25,437.5313 Q218.9063,437.6875 219.4688,437.9844 L219.4688,440.7031 Q218.8438,440.125 218.25,439.8594 Q217.6563,439.5781 217.0313,439.5781 Q215.6875,439.5781 215,440.6563 Q214.3125,441.7188 214.3125,443.8125 Q214.3125,445.9063 215,446.9844 Q215.6875,448.0469 217.0313,448.0469 Q217.6563,448.0469 218.25,447.7813 Q218.8438,447.5 219.4688,446.9219 L219.4688,449.6406 Z "/><text fill="#000000" font-family="sans-serif" font-size="12" lengthAdjust="spacingAndGlyphs" textLength="87" x="230.5" y="448.1543">EdgeManager</text><line style="stroke: #A80036; stroke-width: 1.5;" x1="202.5" x2="319.5" y1="460" y2="460"/><line style="stroke: #A80036; stroke-width: 1.5;" x1="202.5" x2="319.5" y1="468" y2="468"/><ellipse cx="212.5" cy="479.9023" fill="#84BE84" rx="3" ry="3" style="stroke: #038048; stroke-width: 1.0;"/><text fill="#000000" font-family="sans-serif" font-size="11" lengthAdjust="spacingAndGlyphs" textLength="56" x="221.5" y="482.2104">nodeList()</text><ellipse cx="212.5" cy="492.707" fill="#84BE84" rx="3" ry="3" style="stroke: #038048; stroke-width: 1.0;"/><text fill="#000000" font-family="sans-serif" font-size="11" lengthAdjust="spacingAndGlyphs" textLength="52" x="221.5" y="495.0151">faceList()</text><!--class FaceManager--><rect fill="#FEFECE" filter="url(#fgtr89qo99dyc)" height="112.0234" id="FaceManager" style="stroke: #A80036; stroke-width: 1.5;" width="160" x="356" y="409"/><ellipse cx="390.35" cy="425" fill="#ADD1B2" rx="11" ry="11" style="stroke: #A80036; stroke-width: 1.0;"/><path d="M393.3188,430.6406 Q392.7406,430.9375 392.1,431.0781 Q391.4594,431.2344 390.7563,431.2344 Q388.2563,431.2344 386.9281,429.5938 Q385.6156,427.9375 385.6156,424.8125 Q385.6156,421.6875 386.9281,420.0313 Q388.2563,418.375 390.7563,418.375 Q391.4594,418.375 392.1,418.5313 Q392.7563,418.6875 393.3188,418.9844 L393.3188,421.7031 Q392.6938,421.125 392.1,420.8594 Q391.5063,420.5781 390.8813,420.5781 Q389.5375,420.5781 388.85,421.6563 Q388.1625,422.7188 388.1625,424.8125 Q388.1625,426.9063 388.85,427.9844 Q389.5375,429.0469 390.8813,429.0469 Q391.5063,429.0469 392.1,428.7813 Q392.6938,428.5 393.3188,427.9219 L393.3188,430.6406 Z "/><text fill="#000000" font-family="sans-serif" font-size="12" lengthAdjust="spacingAndGlyphs" textLength="85" x="408.65" y="429.1543">FaceManager</text><line style="stroke: #A80036; stroke-width: 1.5;" x1="357" x2="515" y1="441" y2="441"/><line style="stroke: #A80036; stroke-width: 1.5;" x1="357" x2="515" y1="449" y2="449"/><ellipse cx="367" cy="460.9023" fill="#84BE84" rx="3" ry="3" style="stroke: #038048; stroke-width: 1.0;"/><text fill="#000000" font-family="sans-serif" font-size="11" lengthAdjust="spacingAndGlyphs" textLength="56" x="376" y="463.2104">nodeList()</text><ellipse cx="367" cy="473.707" fill="#84BE84" rx="3" ry="3" style="stroke: #038048; stroke-width: 1.0;"/><text fill="#000000" font-family="sans-serif" font-size="11" lengthAdjust="spacingAndGlyphs" textLength="56" x="376" y="476.0151">edgeList()</text><ellipse cx="367" cy="486.5117" fill="#84BE84" rx="3" ry="3" style="stroke: #038048; stroke-width: 1.0;"/><text fill="#000000" font-family="sans-serif" font-size="11" lengthAdjust="spacingAndGlyphs" textLength="74" x="376" y="488.8198">elementList()</text><ellipse cx="367" cy="499.3164" fill="#84BE84" rx="3" ry="3" style="stroke: #038048; stroke-width: 1.0;"/><text fill="#000000" font-family="sans-serif" font-size="11" lengthAdjust="spacingAndGlyphs" textLength="134" x="376" y="501.6245">elementSubRegionList()</text><ellipse cx="367" cy="512.1211" fill="#84BE84" rx="3" ry="3" style="stroke: #038048; stroke-width: 1.0;"/><text fill="#000000" font-family="sans-serif" font-size="11" lengthAdjust="spacingAndGlyphs" textLength="112" x="376" y="514.4292">elementRegionList()</text><!--class ElementRegionManager--><rect fill="#FEFECE" filter="url(#fgtr89qo99dyc)" height="73.6094" id="ElementRegionManager" style="stroke: #A80036; stroke-width: 1.5;" width="181" x="551.5" y="428"/><ellipse cx="566.5" cy="444" fill="#ADD1B2" rx="11" ry="11" style="stroke: #A80036; stroke-width: 1.0;"/><path d="M569.4688,449.6406 Q568.8906,449.9375 568.25,450.0781 Q567.6094,450.2344 566.9063,450.2344 Q564.4063,450.2344 563.0781,448.5938 Q561.7656,446.9375 561.7656,443.8125 Q561.7656,440.6875 563.0781,439.0313 Q564.4063,437.375 566.9063,437.375 Q567.6094,437.375 568.25,437.5313 Q568.9063,437.6875 569.4688,437.9844 L569.4688,440.7031 Q568.8438,440.125 568.25,439.8594 Q567.6563,439.5781 567.0313,439.5781 Q565.6875,439.5781 565,440.6563 Q564.3125,441.7188 564.3125,443.8125 Q564.3125,445.9063 565,446.9844 Q565.6875,448.0469 567.0313,448.0469 Q567.6563,448.0469 568.25,447.7813 Q568.8438,447.5 569.4688,446.9219 L569.4688,449.6406 Z "/><text fill="#000000" font-family="sans-serif" font-size="12" lengthAdjust="spacingAndGlyphs" textLength="149" x="580.5" y="448.1543">ElementRegionManager</text><line style="stroke: #A80036; stroke-width: 1.5;" x1="552.5" x2="731.5" y1="460" y2="460"/><line style="stroke: #A80036; stroke-width: 1.5;" x1="552.5" x2="731.5" y1="468" y2="468"/><ellipse cx="562.5" cy="479.9023" fill="#84BE84" rx="3" ry="3" style="stroke: #038048; stroke-width: 1.0;"/><text fill="#000000" font-family="sans-serif" font-size="11" lengthAdjust="spacingAndGlyphs" textLength="112" x="571.5" y="482.2104">forElementRegion(f)</text><ellipse cx="562.5" cy="492.707" fill="#84BE84" rx="3" ry="3" style="stroke: #038048; stroke-width: 1.0;"/><text fill="#000000" font-family="sans-serif" font-size="11" lengthAdjust="spacingAndGlyphs" textLength="134" x="571.5" y="495.0151">forElementSubRegion(f)</text><!--class WellElementRegion--><rect fill="#FEFECE" filter="url(#fgtr89qo99dyc)" height="48" id="WellElementRegion" style="stroke: #A80036; stroke-width: 1.5;" width="151" x="365.5" y="581"/><ellipse cx="380.5" cy="597" fill="#ADD1B2" rx="11" ry="11" style="stroke: #A80036; stroke-width: 1.0;"/><path d="M383.4688,602.6406 Q382.8906,602.9375 382.25,603.0781 Q381.6094,603.2344 380.9063,603.2344 Q378.4063,603.2344 377.0781,601.5938 Q375.7656,599.9375 375.7656,596.8125 Q375.7656,593.6875 377.0781,592.0313 Q378.4063,590.375 380.9063,590.375 Q381.6094,590.375 382.25,590.5313 Q382.9063,590.6875 383.4688,590.9844 L383.4688,593.7031 Q382.8438,593.125 382.25,592.8594 Q381.6563,592.5781 381.0313,592.5781 Q379.6875,592.5781 379,593.6563 Q378.3125,594.7188 378.3125,596.8125 Q378.3125,598.9063 379,599.9844 Q379.6875,601.0469 381.0313,601.0469 Q381.6563,601.0469 382.25,600.7813 Q382.8438,600.5 383.4688,599.9219 L383.4688,602.6406 Z "/><text fill="#000000" font-family="sans-serif" font-size="12" lengthAdjust="spacingAndGlyphs" textLength="119" x="394.5" y="601.1543">WellElementRegion</text><line style="stroke: #A80036; stroke-width: 1.5;" x1="366.5" x2="515.5" y1="613" y2="613"/><line style="stroke: #A80036; stroke-width: 1.5;" x1="366.5" x2="515.5" y1="621" y2="621"/><!--class FaceElementRegion--><rect fill="#FEFECE" filter="url(#fgtr89qo99dyc)" height="48" id="FaceElementRegion" style="stroke: #A80036; stroke-width: 1.5;" width="156" x="564" y="581"/><ellipse cx="579" cy="597" fill="#ADD1B2" rx="11" ry="11" style="stroke: #A80036; stroke-width: 1.0;"/><path d="M581.9688,602.6406 Q581.3906,602.9375 580.75,603.0781 Q580.1094,603.2344 579.4063,603.2344 Q576.9063,603.2344 575.5781,601.5938 Q574.2656,599.9375 574.2656,596.8125 Q574.2656,593.6875 575.5781,592.0313 Q576.9063,590.375 579.4063,590.375 Q580.1094,590.375 580.75,590.5313 Q581.4063,590.6875 581.9688,590.9844 L581.9688,593.7031 Q581.3438,593.125 580.75,592.8594 Q580.1563,592.5781 579.5313,592.5781 Q578.1875,592.5781 577.5,593.6563 Q576.8125,594.7188 576.8125,596.8125 Q576.8125,598.9063 577.5,599.9844 Q578.1875,601.0469 579.5313,601.0469 Q580.1563,601.0469 580.75,600.7813 Q581.3438,600.5 581.9688,599.9219 L581.9688,602.6406 Z "/><text fill="#000000" font-family="sans-serif" font-size="12" lengthAdjust="spacingAndGlyphs" textLength="124" x="593" y="601.1543">FaceElementRegion</text><line style="stroke: #A80036; stroke-width: 1.5;" x1="565" x2="719" y1="613" y2="613"/><line style="stroke: #A80036; stroke-width: 1.5;" x1="565" x2="719" y1="621" y2="621"/><!--class CellElementRegion--><rect fill="#FEFECE" filter="url(#fgtr89qo99dyc)" height="48" id="CellElementRegion" style="stroke: #A80036; stroke-width: 1.5;" width="148" x="767" y="581"/><ellipse cx="782" cy="597" fill="#ADD1B2" rx="11" ry="11" style="stroke: #A80036; stroke-width: 1.0;"/><path d="M784.9688,602.6406 Q784.3906,602.9375 783.75,603.0781 Q783.1094,603.2344 782.4063,603.2344 Q779.9063,603.2344 778.5781,601.5938 Q777.2656,599.9375 777.2656,596.8125 Q777.2656,593.6875 778.5781,592.0313 Q779.9063,590.375 782.4063,590.375 Q783.1094,590.375 783.75,590.5313 Q784.4063,590.6875 784.9688,590.9844 L784.9688,593.7031 Q784.3438,593.125 783.75,592.8594 Q783.1563,592.5781 782.5313,592.5781 Q781.1875,592.5781 780.5,593.6563 Q779.8125,594.7188 779.8125,596.8125 Q779.8125,598.9063 780.5,599.9844 Q781.1875,601.0469 782.5313,601.0469 Q783.1563,601.0469 783.75,600.7813 Q784.3438,600.5 784.9688,599.9219 L784.9688,602.6406 Z "/><text fill="#000000" font-family="sans-serif" font-size="12" lengthAdjust="spacingAndGlyphs" textLength="116" x="796" y="601.1543">CellElementRegion</text><line style="stroke: #A80036; stroke-width: 1.5;" x1="768" x2="914" y1="613" y2="613"/><line style="stroke: #A80036; stroke-width: 1.5;" x1="768" x2="914" y1="621" y2="621"/><!--class WellElementSubRegion--><rect fill="#FEFECE" filter="url(#fgtr89qo99dyc)" height="48" id="WellElementSubRegion" style="stroke: #A80036; stroke-width: 1.5;" width="175" x="341.5" y="689"/><ellipse cx="356.5" cy="705" fill="#ADD1B2" rx="11" ry="11" style="stroke: #A80036; stroke-width: 1.0;"/><path d="M359.4688,710.6406 Q358.8906,710.9375 358.25,711.0781 Q357.6094,711.2344 356.9063,711.2344 Q354.4063,711.2344 353.0781,709.5938 Q351.7656,707.9375 351.7656,704.8125 Q351.7656,701.6875 353.0781,700.0313 Q354.4063,698.375 356.9063,698.375 Q357.6094,698.375 358.25,698.5313 Q358.9063,698.6875 359.4688,698.9844 L359.4688,701.7031 Q358.8438,701.125 358.25,700.8594 Q357.6563,700.5781 357.0313,700.5781 Q355.6875,700.5781 355,701.6563 Q354.3125,702.7188 354.3125,704.8125 Q354.3125,706.9063 355,707.9844 Q355.6875,709.0469 357.0313,709.0469 Q357.6563,709.0469 358.25,708.7813 Q358.8438,708.5 359.4688,707.9219 L359.4688,710.6406 Z "/><text fill="#000000" font-family="sans-serif" font-size="12" lengthAdjust="spacingAndGlyphs" textLength="143" x="370.5" y="709.1543">WellElementSubRegion</text><line style="stroke: #A80036; stroke-width: 1.5;" x1="342.5" x2="515.5" y1="721" y2="721"/><line style="stroke: #A80036; stroke-width: 1.5;" x1="342.5" x2="515.5" y1="729" y2="729"/><!--class FaceElementSubRegion--><rect fill="#FEFECE" filter="url(#fgtr89qo99dyc)" height="48" id="FaceElementSubRegion" style="stroke: #A80036; stroke-width: 1.5;" width="180" x="552" y="689"/><ellipse cx="567" cy="705" fill="#ADD1B2" rx="11" ry="11" style="stroke: #A80036; stroke-width: 1.0;"/><path d="M569.9688,710.6406 Q569.3906,710.9375 568.75,711.0781 Q568.1094,711.2344 567.4063,711.2344 Q564.9063,711.2344 563.5781,709.5938 Q562.2656,707.9375 562.2656,704.8125 Q562.2656,701.6875 563.5781,700.0313 Q564.9063,698.375 567.4063,698.375 Q568.1094,698.375 568.75,698.5313 Q569.4063,698.6875 569.9688,698.9844 L569.9688,701.7031 Q569.3438,701.125 568.75,700.8594 Q568.1563,700.5781 567.5313,700.5781 Q566.1875,700.5781 565.5,701.6563 Q564.8125,702.7188 564.8125,704.8125 Q564.8125,706.9063 565.5,707.9844 Q566.1875,709.0469 567.5313,709.0469 Q568.1563,709.0469 568.75,708.7813 Q569.3438,708.5 569.9688,707.9219 L569.9688,710.6406 Z "/><text fill="#000000" font-family="sans-serif" font-size="12" lengthAdjust="spacingAndGlyphs" textLength="148" x="581" y="709.1543">FaceElementSubRegion</text><line style="stroke: #A80036; stroke-width: 1.5;" x1="553" x2="731" y1="721" y2="721"/><line style="stroke: #A80036; stroke-width: 1.5;" x1="553" x2="731" y1="729" y2="729"/><!--class CellElementSubRegion--><rect fill="#FEFECE" filter="url(#fgtr89qo99dyc)" height="48" id="CellElementSubRegion" style="stroke: #A80036; stroke-width: 1.5;" width="172" x="767" y="689"/><ellipse cx="782" cy="705" fill="#ADD1B2" rx="11" ry="11" style="stroke: #A80036; stroke-width: 1.0;"/><path d="M784.9688,710.6406 Q784.3906,710.9375 783.75,711.0781 Q783.1094,711.2344 782.4063,711.2344 Q779.9063,711.2344 778.5781,709.5938 Q777.2656,707.9375 777.2656,704.8125 Q777.2656,701.6875 778.5781,700.0313 Q779.9063,698.375 782.4063,698.375 Q783.1094,698.375 783.75,698.5313 Q784.4063,698.6875 784.9688,698.9844 L784.9688,701.7031 Q784.3438,701.125 783.75,700.8594 Q783.1563,700.5781 782.5313,700.5781 Q781.1875,700.5781 780.5,701.6563 Q779.8125,702.7188 779.8125,704.8125 Q779.8125,706.9063 780.5,707.9844 Q781.1875,709.0469 782.5313,709.0469 Q783.1563,709.0469 783.75,708.7813 Q784.3438,708.5 784.9688,707.9219 L784.9688,710.6406 Z "/><text fill="#000000" font-family="sans-serif" font-size="12" lengthAdjust="spacingAndGlyphs" textLength="140" x="796" y="709.1543">CellElementSubRegion</text><line style="stroke: #A80036; stroke-width: 1.5;" x1="768" x2="938" y1="721" y2="721"/><line style="stroke: #A80036; stroke-width: 1.5;" x1="768" x2="938" y1="729" y2="729"/><!--link DomainPartition to MeshBody--><path d="M348,82.23 C348,97.64 348,114.68 348,128.74 " fill="none" id="DomainPartition-MeshBody" style="stroke: #A80036; stroke-width: 1.0;"/><polygon fill="#A80036" points="348,69.22,344,75.22,348,81.22,352,75.22,348,69.22" style="stroke: #A80036; stroke-width: 1.0;"/><text fill="#000000" font-family="sans-serif" font-size="13" lengthAdjust="spacingAndGlyphs" textLength="8" x="339.2125" y="88.8438">1</text><text fill="#000000" font-family="sans-serif" font-size="13" lengthAdjust="spacingAndGlyphs" textLength="23" x="322.6281" y="117.9496">1..*</text><!--link MeshBody to MeshLevel--><path d="M348,203.54 C348,218.26 348,234.82 348,249.95 " fill="none" id="MeshBody-MeshLevel" style="stroke: #A80036; stroke-width: 1.0;"/><polygon fill="#A80036" points="348,190.1,344,196.1,348,202.1,352,196.1,348,190.1" style="stroke: #A80036; stroke-width: 1.0;"/><text fill="#000000" font-family="sans-serif" font-size="13" lengthAdjust="spacingAndGlyphs" textLength="8" x="339.175" y="210.0589">1</text><text fill="#000000" font-family="sans-serif" font-size="13" lengthAdjust="spacingAndGlyphs" textLength="23" x="323.3828" y="238.9882">1..*</text><!--link MeshLevel to NodeManager--><path d="M258.79,356.17 C228.81,374.88 195.57,395.62 166.32,413.87 " fill="none" id="MeshLevel-NodeManager" style="stroke: #A80036; stroke-width: 1.0;"/><polygon fill="#A80036" points="270.1,349.11,262.8921,348.8946,259.9211,355.4652,267.1289,355.6806,270.1,349.11" style="stroke: #A80036; stroke-width: 1.0;"/><text fill="#000000" font-family="sans-serif" font-size="13" lengthAdjust="spacingAndGlyphs" textLength="8" x="250.5828" y="369.2019">1</text><text fill="#000000" font-family="sans-serif" font-size="13" lengthAdjust="spacingAndGlyphs" textLength="8" x="174.0932" y="405.537">1</text><!--link MeshLevel to EdgeManager--><path d="M316,360.64 C304.01,383.18 290.76,408.07 280.27,427.78 " fill="none" id="MeshLevel-EdgeManager" style="stroke: #A80036; stroke-width: 1.0;"/><polygon fill="#A80036" points="322.13,349.11,315.7779,352.5234,316.4857,359.6997,322.8377,356.2863,322.13,349.11" style="stroke: #A80036; stroke-width: 1.0;"/><text fill="#000000" font-family="sans-serif" font-size="13" lengthAdjust="spacingAndGlyphs" textLength="8" x="309.9295" y="369.2019">1</text><text fill="#000000" font-family="sans-serif" font-size="13" lengthAdjust="spacingAndGlyphs" textLength="8" x="274.99" y="416.9278">1</text><!--link MeshLevel to FaceManager--><path d="M380.5,360.89 C388.98,376.64 398.07,393.53 406.39,408.98 " fill="none" id="MeshLevel-FaceManager" style="stroke: #A80036; stroke-width: 1.0;"/><polygon fill="#A80036" points="374.16,349.11,373.4875,356.2897,379.8563,359.6718,380.5288,352.4922,374.16,349.11" style="stroke: #A80036; stroke-width: 1.0;"/><text fill="#000000" font-family="sans-serif" font-size="13" lengthAdjust="spacingAndGlyphs" textLength="8" x="369.2763" y="369.2019">1</text><text fill="#000000" font-family="sans-serif" font-size="13" lengthAdjust="spacingAndGlyphs" textLength="8" x="394.0837" y="397.9154">1</text><!--link MeshLevel to ElementRegionManager--><path d="M447.02,355.57 C489.84,379.38 538.75,406.58 576.87,427.78 " fill="none" id="MeshLevel-ElementRegionManager" style="stroke: #A80036; stroke-width: 1.0;"/><polygon fill="#A80036" points="435.41,349.11,438.7076,355.5229,445.8955,354.9455,442.5979,348.5326,435.41,349.11" style="stroke: #A80036; stroke-width: 1.0;"/><text fill="#000000" font-family="sans-serif" font-size="13" lengthAdjust="spacingAndGlyphs" textLength="8" x="439.1395" y="369.2019">1</text><text fill="#000000" font-family="sans-serif" font-size="13" lengthAdjust="spacingAndGlyphs" textLength="8" x="556.5562" y="416.9278">1</text><!--link ElementRegionManager to WellElementRegion--><path d="M578.53,509.57 C544.1,533.22 502.91,561.49 474.65,580.9 " fill="none" id="ElementRegionManager-WellElementRegion" style="stroke: #A80036; stroke-width: 1.0;"/><polygon fill="#A80036" points="589.45,502.08,582.2395,502.1744,579.5534,508.8666,586.7639,508.7722,589.45,502.08" style="stroke: #A80036; stroke-width: 1.0;"/><text fill="#000000" font-family="sans-serif" font-size="13" lengthAdjust="spacingAndGlyphs" textLength="8" x="572.0839" y="521.5738">1</text><text fill="#000000" font-family="sans-serif" font-size="13" lengthAdjust="spacingAndGlyphs" textLength="24" x="456.1978" y="569.8864">0..n</text><!--link ElementRegionManager to FaceElementRegion--><path d="M642,515.35 C642,537.73 642,563.11 642,580.96 " fill="none" id="ElementRegionManager-FaceElementRegion" style="stroke: #A80036; stroke-width: 1.0;"/><polygon fill="#A80036" points="642,502.26,638,508.26,642,514.26,646,508.26,642,502.26" style="stroke: #A80036; stroke-width: 1.0;"/><text fill="#000000" font-family="sans-serif" font-size="13" lengthAdjust="spacingAndGlyphs" textLength="8" x="633.3375" y="521.7836">1</text><text fill="#000000" font-family="sans-serif" font-size="13" lengthAdjust="spacingAndGlyphs" textLength="24" x="614.925" y="569.9618">0..n</text><!--link ElementRegionManager to CellElementRegion--><path d="M704.84,509.57 C738.93,533.22 779.7,561.49 807.69,580.9 " fill="none" id="ElementRegionManager-CellElementRegion" style="stroke: #A80036; stroke-width: 1.0;"/><polygon fill="#A80036" points="694.02,502.08,696.6651,508.7885,703.8749,508.927,701.2298,502.2185,694.02,502.08" style="stroke: #A80036; stroke-width: 1.0;"/><text fill="#000000" font-family="sans-serif" font-size="13" lengthAdjust="spacingAndGlyphs" textLength="8" x="693.9733" y="521.5738">1</text><text fill="#000000" font-family="sans-serif" font-size="13" lengthAdjust="spacingAndGlyphs" textLength="24" x="772.0793" y="569.8864">0..n</text><!--link WellElementRegion to WellElementSubRegion--><path d="M436.89,642.34 C435.15,657.68 433.18,675.1 431.64,688.68 " fill="none" id="WellElementRegion-WellElementSubRegion" style="stroke: #A80036; stroke-width: 1.0;"/><polygon fill="#A80036" points="438.4,629,433.7525,634.5137,437.0546,640.9243,441.7021,635.4106,438.4,629" style="stroke: #A80036; stroke-width: 1.0;"/><text fill="#000000" font-family="sans-serif" font-size="13" lengthAdjust="spacingAndGlyphs" textLength="8" x="428.7087" y="649.1558">1</text><text fill="#000000" font-family="sans-serif" font-size="13" lengthAdjust="spacingAndGlyphs" textLength="24" x="405.3585" y="678.007">1..n</text><!--link FaceElementRegion to FaceElementSubRegion--><path d="M642,642.34 C642,657.68 642,675.1 642,688.68 " fill="none" id="FaceElementRegion-FaceElementSubRegion" style="stroke: #A80036; stroke-width: 1.0;"/><polygon fill="#A80036" points="642,629,638,635,642,641,646,635,642,629" style="stroke: #A80036; stroke-width: 1.0;"/><text fill="#000000" font-family="sans-serif" font-size="13" lengthAdjust="spacingAndGlyphs" textLength="8" x="632.975" y="649.1558">1</text><text fill="#000000" font-family="sans-serif" font-size="13" lengthAdjust="spacingAndGlyphs" textLength="24" x="615.075" y="678.007">1..n</text><!--link CellElementRegion to CellElementSubRegion--><path d="M845.11,642.34 C846.85,657.68 848.82,675.1 850.36,688.68 " fill="none" id="CellElementRegion-CellElementSubRegion" style="stroke: #A80036; stroke-width: 1.0;"/><polygon fill="#A80036" points="843.6,629,840.2979,635.4106,844.9454,640.9243,848.2475,634.5137,843.6,629" style="stroke: #A80036; stroke-width: 1.0;"/><text fill="#000000" font-family="sans-serif" font-size="13" lengthAdjust="spacingAndGlyphs" textLength="8" x="835.2413" y="649.1558">1</text><text fill="#000000" font-family="sans-serif" font-size="13" lengthAdjust="spacingAndGlyphs" textLength="24" x="822.7915" y="678.007">1..n</text><!--
@startuml
class DomainPartition {
    +getMeshBodies(): List<MeshBody>
}

class MeshBody {
    +getMeshLevels(): List<MeshLevels>
}

class MeshLevel {
    +getNodeManager(): NodeManager
    +getEdgeManager(): EdgeManager
    +getFaceManager(): FaceManager
    +getElemManager():: ElementRegionManager
}

class NodeManager {
    +edgeList()
    +faceList()
    +elementList()
    +elementSubRegionList()
    +elementRegionList()
}

class EdgeManager {
    +nodeList()
    +faceList()
}

class FaceManager {
    +nodeList()
    +edgeList()
    +elementList()
    +elementSubRegionList()
    +elementRegionList()
}

class ElementRegionManager {
    +forElementRegion(f)
    +forElementSubRegion(f)
}

DomainPartition "1" *- - "1..*" MeshBody
MeshBody "1" *- - "1..*" MeshLevel

MeshLevel "1" *- - "1" NodeManager
MeshLevel "1" *- - "1" EdgeManager
MeshLevel "1" *- - "1" FaceManager
MeshLevel "1" *- - "1" ElementRegionManager

ElementRegionManager "1" *- - "0..n" WellElementRegion
ElementRegionManager "1" *- - "0..n" FaceElementRegion
ElementRegionManager "1" *- - "0..n" CellElementRegion

WellElementRegion "1" *- - "1..n" WellElementSubRegion
FaceElementRegion "1" *- - "1..n" FaceElementSubRegion
CellElementRegion "1" *- - "1..n" CellElementSubRegion

@enduml

PlantUML version 1.2018.13(Mon Nov 26 17:11:51 UTC 2018)
(GPL source distribution)
Java Runtime: OpenJDK Runtime Environment
JVM: OpenJDK 64-Bit Server VM
Java Version: 11.0.21+9-post-Ubuntu-0ubuntu120.04
Operating System: Linux
OS Version: 5.19.0-1028-aws
Default Encoding: UTF-8
Language: en
Country: null
--></g></svg>